<svg width="15" height="13" viewBox="0 0 15 13" fill="none" xmlns="http://www.w3.org/2000/svg">
<path fill-rule="evenodd" clip-rule="evenodd" d="M3.695 0.0269221C2.77221 0.128655 1.98159 0.505882 1.31008 1.16487C0.539317 1.92127 0.126312 2.82184 0.0194631 3.97908C-0.0828815 5.08778 0.218361 6.16675 0.924126 7.2194C1.47545 8.04167 2.19698 8.80202 3.53413 9.96976C4.36602 10.6963 6.94786 12.8513 7.07334 12.9239C7.19101 12.9919 7.23445 13 7.48284 13C7.73105 13 7.77475 12.9919 7.89233 12.924C8.01758 12.8517 10.596 10.6994 11.4315 9.96976C12.7685 8.80222 13.4902 8.04167 14.0415 7.2194C14.5524 6.45753 14.8769 5.61711 14.9324 4.91202C14.9423 4.78708 14.9615 4.67808 14.9752 4.66984C14.9888 4.66156 15 4.51316 15 4.34003C15 4.16689 14.9887 4.03208 14.9749 4.04044C14.9611 4.04876 14.9408 3.95058 14.9299 3.8222C14.8893 3.34628 14.717 2.75648 14.4801 2.28299C14.0807 1.48435 13.3915 0.794369 12.6162 0.416712C11.429 -0.16152 9.97646 -0.134334 8.90145 0.486194C8.42795 0.759514 7.93167 1.18496 7.63169 1.57472C7.56204 1.66521 7.49506 1.73927 7.48284 1.73927C7.47061 1.73927 7.40363 1.66521 7.33398 1.57472C7.26431 1.48424 7.09493 1.2994 6.95754 1.16398C6.05993 0.279409 4.9413 -0.110467 3.695 0.0269221ZM3.70963 0.881908C2.19804 1.13628 1.15786 2.22676 0.917749 3.80875C0.765066 4.81489 1.01664 5.82166 1.65312 6.75154C2.12918 7.44704 2.92504 8.28337 4.03138 9.25076C4.71889 9.85195 7.45476 12.1558 7.48111 12.1558C7.50822 12.1557 10.2593 9.84164 10.9343 9.25108C13.0114 7.43379 13.8552 6.26374 14.0503 4.93005C14.2071 3.85863 13.8996 2.7426 13.2334 1.96494C12.2214 0.783723 10.4406 0.503994 9.17452 1.32744C8.76558 1.59341 8.45082 1.92485 7.92459 2.64345C7.82102 2.7849 7.6605 2.86566 7.48284 2.86566C7.30517 2.86566 7.14465 2.7849 7.04108 2.64345C6.65706 2.11901 6.49265 1.92147 6.26219 1.70753C5.64435 1.13405 5.06404 0.889577 4.26537 0.86634C4.04819 0.860016 3.79811 0.867027 3.70963 0.881908ZM0.00597897 4.37202C0.00597897 4.55302 0.0107467 4.62705 0.0165381 4.53657C0.0223295 4.44608 0.0223295 4.29796 0.0165381 4.20747C0.0107467 4.11699 0.00597897 4.19102 0.00597897 4.37202Z" fill="white"/>
</svg>
