<svg width="32" height="38" viewBox="0 0 32 38" fill="none" xmlns="http://www.w3.org/2000/svg">
<path id="Vector" d="M27.7268 5.98045C24.7355 2.7518 20.676 0.923813 16.284 0.840723C11.8446 0.733892 7.77321 2.41944 4.66326 5.52939C-0.31029 10.5148 -1.43794 18.3016 1.92128 24.4859C2.51478 25.566 3.55935 26.2901 4.78196 26.48C6.04019 26.67 7.27467 26.2664 8.16493 25.3761L10.1354 23.4294C11.2986 24.4146 12.7112 24.9369 14.1474 24.9369C15.738 24.9369 17.3286 24.3316 18.5512 23.1208L20.3792 21.2928L20.7709 21.6845C20.8659 21.7676 20.9846 21.827 21.1033 21.827C21.222 21.827 21.3526 21.7795 21.4356 21.6845L22.9313 20.1889C23.0144 20.0939 23.0737 19.9752 23.0737 19.8565C23.0737 19.7378 23.0262 19.6073 22.9313 19.5242L21.6137 18.2066L24.9492 14.8711C25.5427 14.2776 25.5427 13.3043 24.9492 12.7108C24.3557 12.1173 23.3823 12.1173 22.777 12.7108L19.4415 16.0463L16.8182 13.423L20.213 10.0281C20.8065 9.43464 20.8065 8.4613 20.213 7.86779C19.6195 7.27429 18.6462 7.27429 18.0527 7.86779L14.6578 11.2626L13.3403 9.94505C13.1503 9.75513 12.8536 9.75513 12.6637 9.94505L11.168 11.4407C11.085 11.5238 11.0256 11.6543 11.0256 11.773C11.0256 11.8917 11.0731 12.0223 11.168 12.1054L11.5598 12.4971L9.73177 14.3251C7.41711 16.6398 7.33402 20.3195 9.43502 22.7647L7.46459 24.7114C6.77613 25.388 5.8384 25.6847 4.88879 25.5542C3.96293 25.4117 3.16764 24.8657 2.72844 24.0467C-0.40525 18.2185 0.651184 10.8828 5.33985 6.20599C8.25989 3.28595 12.1414 1.70724 16.2722 1.79033C20.4029 1.87342 24.2251 3.58271 27.0383 6.60957C32.5579 12.5683 32.3798 21.732 26.6347 27.4771C26.1006 28.0231 25.5071 28.4979 24.9136 28.9371C23.8927 27.0498 21.7205 25.7203 19.5839 25.7203H19.5246C16.8894 25.756 14.2068 28.2368 12.4381 29.8867C11.4767 30.777 10.4915 30.6702 10.4558 30.6702C10.2778 30.6583 10.1116 30.7176 10.0048 30.8601C9.89795 31.0025 9.88608 31.1924 9.9573 31.3468C9.99291 31.4061 12.8773 37.1631 18.5987 37.1631C18.9785 37.1631 19.3703 37.1393 19.7738 37.08C22.5514 36.712 25.5308 34.3736 25.5189 31.2518C25.5189 30.777 25.4121 30.3022 25.2697 29.8511C25.9819 29.3407 26.6585 28.7828 27.2876 28.1537C33.4007 22.0406 33.5906 12.2953 27.7149 5.96859L27.7268 5.98045ZM23.4773 13.3755C23.691 13.1618 24.0827 13.1618 24.2963 13.3755C24.4032 13.4823 24.4625 13.6366 24.4625 13.7909C24.4625 13.9453 24.4032 14.0877 24.2963 14.2064L20.9608 17.5419L20.1418 16.7228L23.4773 13.3874V13.3755ZM18.7411 8.52065C18.9667 8.29511 19.3346 8.29511 19.5602 8.52065C19.667 8.62748 19.7264 8.78179 19.7264 8.9361C19.7264 9.09041 19.667 9.23285 19.5602 9.35155L16.1653 12.7464L15.3463 11.9274L18.7411 8.53252V8.52065ZM13.0198 10.9421L21.9342 19.8565L21.1152 20.6756L20.7234 20.2839L19.8094 19.3699L12.6043 12.1648L12.2126 11.773L13.0316 10.954L13.0198 10.9421ZM10.4321 14.9898L12.2601 13.1618L19.7145 20.6162L17.8865 22.4442C15.833 24.4977 12.4856 24.4977 10.4321 22.4442C8.37859 20.3907 8.37859 17.0433 10.4321 14.9898ZM24.5693 31.2755C24.5812 33.792 22.041 35.8336 19.6433 36.1541C14.9309 36.7951 12.1177 33.1035 11.168 31.5723C11.6903 31.4773 12.3907 31.2162 13.0673 30.5871C14.6341 29.1389 17.2455 26.7056 19.5127 26.6818C19.5246 26.6818 19.5483 26.6818 19.5602 26.6818C21.3882 26.6818 23.2755 27.857 24.1064 29.495C21.1626 31.3942 17.661 32.2133 14.1 31.7859C13.8269 31.7385 13.6014 31.9403 13.5658 32.2014C13.5302 32.4625 13.7201 32.6999 13.9813 32.7355C14.6578 32.8186 15.3226 32.8661 15.9992 32.8661C19.0142 32.8661 21.9223 32.0115 24.4506 30.4209C24.5219 30.7058 24.5575 30.9907 24.5575 31.2874L24.5693 31.2755Z" fill="#34354C"/>
</svg>
