<svg width="16" height="16" viewBox="0 0 14 14" fill="none" xmlns="http://www.w3.org/2000/svg"><path fill-rule="evenodd" clip-rule="evenodd" d="M4.806.008c-1.364.17-2.386.65-3.27 1.534A5.26 5.26 0 0 0 .049 4.456c-.059.35-.066 1.19-.013 1.52.192 1.201.683 2.178 1.509 3a5.14 5.14 0 0 0 3.693 1.534 5.2 5.2 0 0 0 3.307-1.16l.192-.154 2.397 2.395c2.1 2.098 2.409 2.396 2.497 2.412.217.04.405-.15.366-.366-.016-.088-.315-.397-2.413-2.497L9.19 8.743l.154-.192a5.2 5.2 0 0 0 1.16-3.304A5.16 5.16 0 0 0 8.97 1.551 5.2 5.2 0 0 0 6.066.059C5.814.017 5.001-.016 4.806.01m-.192.656a4.67 4.67 0 0 0-3.319 2.181C.647 3.89.453 5.202.765 6.43c.402 1.581 1.683 2.87 3.28 3.303 2.803.758 5.625-1.255 5.827-4.157a4.6 4.6 0 0 0-.399-2.223c-.549-1.245-1.731-2.245-3.05-2.58a5.2 5.2 0 0 0-1.809-.11" fill="#000"/></svg>