<svg width="39" height="14" viewBox="0 0 39 14" fill="none" xmlns="http://www.w3.org/2000/svg">
<g id="a" clip-path="url(#clip0_1_998)">
<path id="Vector" d="M28.6135 5.35076H27.2857V9.93483C27.2857 9.97652 27.2691 10.0165 27.2399 10.0462C27.2106 10.0759 27.1709 10.0924 27.1295 10.0924H26.1055C26.0639 10.0924 26.0244 10.0758 25.9949 10.0462C25.9656 10.0165 25.9491 9.97657 25.9491 9.93483V5.35076H24.6135C24.5935 5.35161 24.5734 5.34842 24.5545 5.3413C24.5358 5.33398 24.5184 5.32325 24.504 5.30928C24.4893 5.29532 24.4776 5.27854 24.4698 5.26006C24.4615 5.24136 24.4572 5.22134 24.457 5.20116V4.39021C24.4572 4.37003 24.4615 4.35001 24.4698 4.33131C24.4776 4.31262 24.4893 4.29584 24.504 4.28187C24.5184 4.26791 24.5358 4.25718 24.5545 4.25006C24.5734 4.24295 24.5935 4.23976 24.6135 4.2404H28.613C28.6546 4.23849 28.6952 4.2533 28.7259 4.28124C28.7567 4.30938 28.7752 4.34852 28.7773 4.39021V5.20137C28.7752 5.24306 28.7567 5.28199 28.7259 5.31013C28.6954 5.33807 28.6548 5.35267 28.6135 5.35076Z" fill="#737678"/>
<path id="Vector_2" d="M32.8756 10.0592C32.602 10.0986 32.1418 10.1615 31.2976 10.1615C30.2893 10.1615 29.3984 9.9017 29.3984 8.46873V5.85302C29.3984 4.42005 30.2974 4.16797 31.3057 4.16797C32.1492 4.16797 32.602 4.23116 32.8756 4.2703C32.9851 4.28618 33.0321 4.32574 33.0321 4.42807V5.16144C33.0319 5.20313 33.0155 5.24312 32.9862 5.27254C32.9569 5.30222 32.9171 5.31874 32.8756 5.31895H31.2276C30.8603 5.31895 30.7274 5.44492 30.7274 5.85456V6.57115H32.8134C32.8548 6.57115 32.8945 6.58793 32.924 6.61735C32.953 6.64704 32.9696 6.68697 32.9696 6.72871V7.47669C32.9696 7.51859 32.953 7.55857 32.924 7.58805C32.8945 7.61773 32.8548 7.63425 32.8134 7.63446H30.7274V8.46905C30.7274 8.87848 30.8603 9.00466 31.2276 9.00466H32.8756C32.917 9.00466 32.9569 9.02144 32.9862 9.05086C33.0156 9.08028 33.0319 9.12048 33.0321 9.16222V9.89447C33.0321 9.99612 32.9851 10.0436 32.8756 10.0593" fill="#737678"/>
<path id="Vector_3" d="M38.7724 10.0893H37.5298C37.4283 10.0893 37.3812 10.0568 37.3264 9.97127L36.249 8.24814L35.2732 9.93319C35.2182 10.0278 35.1637 10.091 35.0783 10.091H33.9217C33.8434 10.091 33.8045 10.0435 33.8045 9.98863C33.8062 9.9693 33.8116 9.9504 33.82 9.93319L35.5131 7.08898L33.8026 4.38815C33.7939 4.37375 33.7886 4.3574 33.7871 4.34067C33.7897 4.31189 33.8035 4.28502 33.8251 4.26611C33.847 4.24699 33.8754 4.23712 33.9041 4.23839H35.1624C35.2484 4.23839 35.3108 4.31725 35.357 4.3882L36.357 5.97867L37.3248 4.3882C37.3638 4.31725 37.4343 4.23839 37.5196 4.23839H38.676C38.7052 4.23712 38.7332 4.24699 38.755 4.26611C38.7769 4.28502 38.7907 4.31189 38.7932 4.34067C38.7915 4.35745 38.7862 4.37375 38.7777 4.38815L37.0755 7.10576L38.8507 9.93319C38.8647 9.95746 38.8726 9.98454 38.8741 10.0123C38.8745 10.0578 38.835 10.0892 38.7724 10.0892" fill="#737678"/>
<path id="Vector_4" d="M22.5838 4.25476C22.5558 4.25476 22.5289 4.26463 22.5074 4.28248C22.4858 4.30032 22.4711 4.32523 22.4656 4.353L21.3313 8.58308C21.3155 8.6699 21.2922 8.70129 21.2218 8.70129C21.1513 8.70129 21.1281 8.66863 21.1123 8.58308L19.9766 4.35194C19.9711 4.32443 19.9564 4.29947 19.935 4.28163C19.9134 4.26378 19.8864 4.25391 19.8584 4.25391H18.7417C18.7234 4.25391 18.7056 4.258 18.6892 4.26596C18.6729 4.27393 18.6584 4.2855 18.6472 4.29968C18.636 4.31407 18.6281 4.33085 18.6241 4.3487C18.6201 4.36654 18.6201 4.38502 18.6243 4.40286C18.6243 4.40286 20.01 9.25432 20.0253 9.30227C20.2102 9.87999 20.6591 10.1564 21.2304 10.1564C21.7744 10.1564 22.249 9.86709 22.4348 9.30376C22.4567 9.23844 23.8118 4.40265 23.8118 4.40265C23.8158 4.38481 23.8158 4.36633 23.8118 4.34848C23.8077 4.33064 23.7999 4.31407 23.7886 4.29968C23.7772 4.2855 23.7629 4.27387 23.7466 4.26596C23.7301 4.258 23.7122 4.25391 23.6942 4.25391L22.584 4.25476H22.5838Z" fill="#737678"/>
<path id="Vector_5" d="M15.7033 0H3.56553C2.62433 0 2.02172 1.00781 2.46217 1.84585L3.67614 4.16173H1.47513C1.33567 4.16173 1.19874 4.19827 1.07732 4.26725C0.955911 4.33645 0.854428 4.43575 0.782471 4.55593C0.710305 4.67626 0.670394 4.81322 0.666355 4.95357C0.662317 5.09393 0.694362 5.23301 0.759133 5.35722L4.66444 12.8033C4.7332 12.9342 4.83615 13.0439 4.96223 13.1204C5.08831 13.1967 5.23243 13.2371 5.37955 13.2371C5.52666 13.2371 5.67099 13.1967 5.79707 13.1204C5.92315 13.0439 6.0261 12.9342 6.09486 12.8033L7.15538 10.792L8.4861 13.3295C8.95434 14.2223 10.2231 14.2238 10.693 13.3323L16.7767 1.79902C17.2067 0.983333 16.62 5.31043e-05 15.7032 5.31043e-05M10.2508 4.9276L7.6276 9.90178C7.58177 9.98861 7.51317 10.0617 7.42936 10.1126C7.3455 10.1633 7.24957 10.1902 7.15171 10.1902C7.05384 10.1902 6.95792 10.1633 6.87406 10.1126C6.79019 10.0617 6.72165 9.98861 6.67581 9.90178L4.07783 4.94869C4.0343 4.86595 4.0129 4.77349 4.01542 4.68003C4.01778 4.58673 4.04426 4.49539 4.09183 4.41547C4.13961 4.33528 4.20711 4.2689 4.28777 4.2227C4.36843 4.1765 4.45948 4.15217 4.55226 4.15196H9.78808C9.87849 4.15196 9.96744 4.17538 10.0462 4.22031C10.125 4.26502 10.1908 4.3297 10.2375 4.40792C10.284 4.48593 10.3097 4.57494 10.312 4.66606C10.3144 4.75719 10.2933 4.84704 10.2509 4.92766" fill="#737678"/>
</g>
<defs>
<clipPath id="clip0_1_998">
<rect width="38.2083" height="14" fill="white" transform="translate(0.666016)"/>
</clipPath>
</defs>
</svg>
