<svg xmlns="http://www.w3.org/2000/svg" width="23" height="16" viewBox="0 0 23 16"><defs><clipPath id="2ozva"><path d="M0 16V0h22.13v16z"/></clipPath></defs><g><g><g><g><path fill="#4d4d4d" d="M0 16V0h22.13v16z"/></g><g clip-path="url(#2ozva)"><path fill="#4d4d4d" d="M21.282 1.696H.847A.848.848 0 0 1 .847 0h20.435a.848.848 0 0 1 0 1.696"/></g><g clip-path="url(#2ozva)"><path fill="#4d4d4d" d="M21.282 8.848H.847a.848.848 0 0 1 0-1.696h20.435a.848.848 0 0 1 0 1.696"/></g><g clip-path="url(#2ozva)"><path fill="#4d4d4d" d="M21.282 16H.847a.848.848 0 0 1 0-1.696h20.435a.848.848 0 0 1 0 1.696"/></g></g></g></g></svg>