<svg xmlns="http://www.w3.org/2000/svg" width="30" height="30" viewBox="0 0 30 30"><g><g><g><path d="M28.76 13.758c-.685 0-1.241.557-1.241 1.24 0 6.904-5.616 12.521-12.52 12.521-3.04 0-6.048-1.154-8.332-3.183h2.87c.683 0 1.24-.556 1.24-1.24 0-.684-.557-1.24-1.24-1.24H3.85c-.041.002-.082.007-.162.017a.654.654 0 0 0-.174.04l.067.195-.111-.18a.907.907 0 0 0-.097.033c-.023.01-.047.024-.103.056-.037.02-.074.04-.128.076-.019.014-.036.03-.077.067a1.045 1.045 0 0 0-.236.27 1.406 1.406 0 0 0-.175.444 1.507 1.507 0 0 0-.016.155l-.005 5.73a1.241 1.241 0 0 0 2.48 0v-2.488A14.967 14.967 0 0 0 15 30c8.27 0 15-6.73 15-15.001 0-.684-.557-1.24-1.24-1.24"/></g><g><path d="M24.886 1.24v2.49A14.967 14.967 0 0 0 15 0C6.728 0 0 6.73 0 15a1.241 1.241 0 0 0 2.48 0C2.48 8.099 8.097 2.482 15 2.482c3.04 0 6.048 1.155 8.331 3.183h-2.868a1.242 1.242 0 0 0 0 2.481l5.687-.002c.035 0 .07-.005.104-.01l-.027-.204.074.2a.855.855 0 0 0 .093-.014.862.862 0 0 0 .08-.024l-.067-.195.116.18a.927.927 0 0 0 .103-.037c.023-.01.045-.023.098-.053a.847.847 0 0 0 .098-.058l.035-.021a.88.88 0 0 0 .072-.063c.032-.027.063-.053.093-.085.025-.025.046-.052.084-.101a1.004 1.004 0 0 0 .127-.204c.017-.032.033-.064.046-.098a1.453 1.453 0 0 0 .082-.382l.006-5.733c0-.684-.557-1.24-1.24-1.24-.685 0-1.241.556-1.241 1.24"/></g></g></g></svg>