<svg width="16" height="16" viewBox="0 0 14 14" fill="none" xmlns="http://www.w3.org/2000/svg">
<path fill-rule="evenodd" clip-rule="evenodd" d="M2.76763 0.048169C1.49106 0.279803 0.505623 1.27866 0.316687 2.53255C0.299576 2.64604 0.215024 4.62249 0.128814 6.92466C-0.0413221 11.4668 -0.0411657 11.3907 0.118867 11.8983C0.271048 12.381 0.505873 12.768 0.863412 13.1255C1.25211 13.5143 1.74268 13.7933 2.2763 13.9293L2.55398 14H6.93329C11.1175 14 11.3222 13.9974 11.5289 13.9413C12.0764 13.7929 12.5371 13.5218 12.9259 13.1192C13.4334 12.5939 13.7228 11.9921 13.7838 11.3355C13.8093 11.0599 13.4988 2.80876 13.452 2.51995C13.2454 1.24616 12.2757 0.273297 10.9879 0.0477623C10.6228 -0.0161756 3.1202 -0.0158003 2.76763 0.048169ZM2.86679 1.04912C2.10404 1.21704 1.50736 1.79896 1.33475 2.54328C1.26465 2.84555 0.95982 11.0234 1.00752 11.3221C1.12414 12.052 1.64856 12.6641 2.38194 12.9263L2.58526 12.999L6.83176 13.0075C10.576 13.015 11.103 13.0102 11.2873 12.9675C11.7093 12.8696 12.1151 12.6045 12.3777 12.2553C12.6995 11.8271 12.8297 11.4311 12.8297 10.8807C12.8297 10.4764 12.5597 3.15532 12.5325 2.8214C12.4749 2.11527 12.0634 1.50845 11.4377 1.20681C10.9998 0.995696 11.1547 1.00255 6.89551 1.0053C3.83568 1.0073 3.01631 1.01622 2.86679 1.04912ZM3.63993 2.066C3.39153 2.17877 3.33707 2.43224 3.4295 3.04556C3.718 4.95941 5.49181 6.25297 7.42763 5.96118C8.94155 5.73295 10.1156 4.55576 10.3446 3.0362C10.4356 2.43283 10.38 2.1782 10.1328 2.066C9.96284 1.98886 9.81573 1.98889 9.64556 2.06612C9.46957 2.14602 9.40285 2.29788 9.37751 2.67635C9.30566 3.74947 8.59687 4.62073 7.55262 4.91953C7.20344 5.01944 6.56931 5.01944 6.22012 4.91953C5.17588 4.62073 4.46708 3.74947 4.39523 2.67635C4.3699 2.29788 4.30317 2.14602 4.12719 2.06612C3.95702 1.98889 3.80991 1.98886 3.63993 2.066Z" fill="black"/>
</svg>
