<svg xmlns="http://www.w3.org/2000/svg" width="53" height="12" viewBox="0 0 53 12"><g><g><path fill="#999" d="M52.622 11.539h-3.57L45.67 7.732l-3.516 3.807H31.269V.04H42.32L45.7 3.81 49.197.04h3.59l-5.34 5.75zm-11.86-2.397L43.9 5.77l-3.005-3.35h-6.889v2.09h6.033v2.346h-6.033v2.287zm-13.945 2.353l-.01-9.003-3.984 9.003H20.41l-3.995-9.011v9.01h-5.588L9.771 8.932h-5.72l-1.067 2.564H0L4.92 0h4.082l4.673 10.883V0h4.485l3.596 7.798L25.059 0h4.574v11.495zM8.779 6.535L6.9 1.951l-1.87 4.582z"/></g></g></svg>