<svg width="36" height="34" viewBox="0 0 36 34" fill="none" xmlns="http://www.w3.org/2000/svg">
<path id="Vector" d="M35.0654 15.7086C34.7398 15.3821 34.2794 15.2091 33.7359 15.2091C33.293 15.2091 32.816 15.3205 32.3184 15.5395C31.9919 15.6832 31.6693 15.8719 31.3868 16.086C31.0769 16.3177 30.1394 17.0391 28.9409 17.9688C28.5801 18.2474 28.2008 18.5407 27.8196 18.8369L27.7668 18.8779C27.4833 19.0979 27.1988 19.3178 26.9192 19.5349L26.8606 19.5798L26.7716 19.6483C26.3425 19.9806 25.9299 20.3013 25.5526 20.5936C25.1224 18.9913 23.267 18.7684 21.3216 18.7684C20.7155 18.7684 20.0674 18.7929 19.4408 18.8163H19.4339C18.7252 18.8427 17.991 18.8701 17.2637 18.8701C17.0946 18.8701 16.9284 18.8682 16.771 18.8652C16.0847 18.8515 15.3252 18.7391 14.5421 18.615C14.4776 17.8124 14.4326 15.2101 16.1835 12.8795C16.2783 12.7524 16.38 12.6263 16.4846 12.5022C16.7241 13.0741 17.0457 13.6235 17.4416 14.1347C18.4387 15.4232 19.9794 16.1329 21.7801 16.1329C23.1243 16.1329 24.53 15.7409 25.7393 15.0292C28.0522 13.6684 29.2165 11.3486 30.2107 9.09043C31.3017 6.61325 32.1023 3.92491 32.5921 1.10069C32.597 1.07528 32.5902 1.04986 32.5735 1.03031C32.5569 1.00978 32.5315 0.998047 32.5041 0.998047C32.4816 0.998047 32.4601 1.00587 32.4425 1.02053C30.9996 2.24935 29.4228 3.02945 27.758 3.33837C26.9554 3.48794 26.143 3.50846 25.3844 3.50846C25.184 3.50846 24.9836 3.50651 24.7832 3.50553C24.5818 3.50358 24.3814 3.5026 24.1801 3.5026C23.3061 3.5026 22.3725 3.53095 21.4634 3.74015C19.5082 4.18886 17.8287 5.37368 16.857 6.99059C16.0144 8.39146 15.7758 9.96536 16.1669 11.5422C15.9195 11.8032 15.6888 12.075 15.4816 12.3506C15.4122 12.4425 15.3428 12.5403 15.2655 12.6537C15.1296 12.1209 14.9107 11.6087 14.6135 11.1287C14.3632 10.724 14.0504 10.3388 13.6858 9.98393C13.9077 8.97507 13.7405 7.9711 13.2038 7.0776C12.5606 6.00715 11.4491 5.22313 10.1538 4.92595C9.55257 4.78811 8.93474 4.76856 8.35798 4.76856C8.22502 4.76856 8.09305 4.76954 7.9601 4.77052C7.82813 4.77149 7.69518 4.77247 7.5632 4.77247C7.06366 4.77247 6.52893 4.75879 6.00006 4.66103C4.90419 4.45769 3.86699 3.94446 2.91776 3.13601C2.9031 3.1233 2.8855 3.11743 2.86595 3.11743C2.84346 3.11743 2.82196 3.12721 2.80729 3.14481C2.79361 3.16142 2.78774 3.18293 2.79165 3.20444C3.11523 5.06868 3.6441 6.84396 4.36359 8.47944C5.02053 9.9722 5.78988 11.5041 7.31979 12.4044C8.11945 12.8756 9.0501 13.1347 9.93969 13.1347C11.1333 13.1347 12.1539 12.6644 12.8147 11.81C13.0318 11.5295 13.2165 11.2303 13.3632 10.9205C13.5421 11.1228 13.7014 11.3349 13.8383 11.552C14.5959 12.7495 14.5392 13.8493 14.5343 13.9236C13.6516 15.7937 13.5968 17.5543 13.6486 18.4752C12.6055 18.3129 11.4725 18.1663 10.2515 18.1663C9.03055 18.1663 8.24164 18.2445 7.57787 18.4263C6.87206 18.615 6.28258 18.9366 5.66573 19.4674C3.48475 21.3463 1.52373 23.1431 0.42005 24.2742C0.416139 24.2781 0.412229 24.2829 0.409296 24.2878C0.396588 24.3025 0.38779 24.3142 0.378014 24.3269C0.370193 24.3387 0.362373 24.3504 0.35553 24.3621C0.347709 24.3748 0.341844 24.3875 0.335978 24.4012C0.330113 24.4139 0.324247 24.4276 0.320337 24.4403C0.315449 24.454 0.312516 24.4667 0.308606 24.4804C0.305673 24.4941 0.30274 24.5078 0.300785 24.5225C0.29883 24.5361 0.297853 24.5498 0.296875 24.5645C0.296875 24.5782 0.296875 24.5919 0.296875 24.6065C0.296875 24.6212 0.29883 24.6349 0.301763 24.6486C0.303718 24.6622 0.306651 24.6759 0.309584 24.6896C0.313494 24.7033 0.317404 24.717 0.322292 24.7307C0.32718 24.7444 0.333045 24.7581 0.338911 24.7708C0.344776 24.7835 0.351619 24.7952 0.358462 24.8079C0.366283 24.8206 0.375081 24.8333 0.383879 24.846C0.388767 24.8539 0.3917 24.8587 0.39561 24.8636L7.00012 32.8358L7.00599 32.8426C7.00599 32.8426 7.01381 32.8514 7.01869 32.8553C7.03825 32.8768 7.05389 32.8915 7.07051 32.9052C7.07833 32.912 7.08712 32.9179 7.09592 32.9237L7.10277 32.9277C7.10277 32.9277 7.10863 32.9316 7.11059 32.9335C7.11743 32.9384 7.12525 32.9443 7.13307 32.9482C7.13796 32.9511 7.14285 32.9531 7.14773 32.955L7.15262 32.957C7.15751 32.9599 7.16338 32.9619 7.16826 32.9638C7.19466 32.9756 7.22105 32.9844 7.24647 32.9902L7.25429 32.9922C7.28851 32.999 7.31685 33.002 7.34325 33.002C7.36378 33.002 7.38626 33 7.4107 32.9961C7.41559 32.9961 7.42048 32.9941 7.42634 32.9932H7.43221C7.44785 32.9892 7.46349 32.9853 7.47816 32.9804C7.48598 32.9785 7.49282 32.9756 7.50064 32.9726C7.51726 32.9658 7.53485 32.958 7.55147 32.9492C7.55636 32.9472 7.55929 32.9453 7.56223 32.9433C7.58178 32.9316 7.60133 32.9189 7.62088 32.9032L7.62479 32.9003C7.62772 32.8974 7.63066 32.8954 7.63261 32.8925C7.64825 32.8788 7.6639 32.8631 7.67954 32.8455C7.6854 32.8387 7.68833 32.8358 7.69029 32.8328C7.70593 32.8123 7.71864 32.7928 7.72939 32.7742C8.42836 31.4984 10.1469 30.601 11.4833 30.3742C11.7169 30.3342 12.7903 30.3146 14.6741 30.3146C16.9372 30.3146 19.8983 30.3439 21.6677 30.3615H21.6823H21.74C22.8036 30.3723 23.6434 30.3801 24.007 30.3801C25.5408 30.3801 26.2447 29.5824 26.623 29.1542C26.6758 29.0936 26.7266 29.0369 26.7657 28.9968C27.147 28.6165 32.8052 22.2994 34.3693 20.4909C36.04 18.5671 35.9833 16.6305 35.0654 15.7125V15.7086ZM25.9632 28.5677C25.6171 28.9597 25.1439 29.4964 24.007 29.4964C23.6307 29.4964 22.7323 29.4876 21.6911 29.4768C18.8122 29.4485 16.5227 29.4289 14.7044 29.4289C12.7258 29.4289 11.6241 29.4524 11.3357 29.5022C10.0365 29.7232 8.29541 30.5238 7.30317 31.8201L1.32626 24.6056C2.45928 23.4755 4.24629 21.8478 6.23761 20.1322C6.75573 19.6864 7.22496 19.4293 7.80662 19.2738C8.39219 19.1125 9.12244 19.0441 10.2496 19.0441C11.6563 19.0441 12.9907 19.2582 14.0631 19.4303L14.0915 19.4351L14.1071 19.4381C15.0407 19.5876 15.9225 19.7294 16.7524 19.746C16.9186 19.7489 17.0926 19.7509 17.2715 19.7509C18.0096 19.7509 18.7467 19.7235 19.4584 19.6962H19.473C20.0996 19.6717 20.7585 19.6502 21.3412 19.6502C23.3921 19.6502 24.6806 19.9083 24.7617 21.1909C24.7617 21.2583 24.7588 21.3297 24.7549 21.4001C24.7207 21.9104 24.5515 22.2633 24.2074 22.5448C23.5857 23.0522 22.3989 23.3093 20.6774 23.3093C19.603 23.3093 18.3048 23.2086 16.8189 23.0092C16.7994 23.0062 16.7798 23.0053 16.7612 23.0053C16.5413 23.0053 16.3536 23.1695 16.3242 23.3865C16.292 23.627 16.4611 23.8489 16.7016 23.8812C18.2139 24.0835 19.5415 24.1862 20.6481 24.1862C22.6257 24.1862 23.9728 23.8724 24.7637 23.2252C25.2485 22.8293 25.5252 22.318 25.6112 21.6611C26.1264 21.2603 26.7472 20.7793 27.3992 20.2749L27.4579 20.2299C27.7345 20.0158 28.0151 19.7988 28.2947 19.5808L28.3582 19.5319L28.3778 19.5173C28.7522 19.2269 29.1237 18.9385 29.4785 18.6648C30.678 17.7351 31.6116 17.0166 31.9146 16.7898C32.1454 16.6158 32.4073 16.4623 32.6723 16.345C33.0467 16.1798 33.4279 16.0899 33.7437 16.0899C34.0594 16.0899 34.2823 16.171 34.4417 16.3313C35.0566 16.9462 35.0077 18.4106 33.7036 19.9122C32.0769 21.7921 26.4607 28.0544 26.1421 28.3722C26.0824 28.4328 26.0208 28.5022 25.9612 28.5696L25.9632 28.5677ZM6.78408 19.6629C6.91116 19.5828 7.0402 19.5124 7.1712 19.4508C7.03922 19.5124 6.91116 19.5828 6.78408 19.6629ZM16.3741 23.3924C16.378 23.367 16.3839 23.3415 16.3917 23.3181C16.3839 23.3415 16.377 23.367 16.3741 23.3924ZM16.4386 23.2272C16.4464 23.2145 16.4552 23.2027 16.465 23.192C16.4552 23.2027 16.4474 23.2154 16.4386 23.2272ZM16.4855 23.1695C16.4953 23.1597 16.5051 23.1499 16.5168 23.1411C16.5061 23.1499 16.4963 23.1597 16.4855 23.1695ZM16.5413 23.1226C16.553 23.1147 16.5638 23.1069 16.5765 23.1011C16.5647 23.1079 16.553 23.1147 16.5413 23.1226ZM16.6048 23.0874C16.6175 23.0815 16.6302 23.0766 16.6429 23.0727C16.6302 23.0766 16.6165 23.0815 16.6048 23.0874ZM16.7475 23.0541C16.7524 23.0541 16.7573 23.0532 16.7622 23.0532C16.7788 23.0532 16.7964 23.0541 16.814 23.0561C16.7915 23.0532 16.77 23.0532 16.7475 23.0541ZM20.696 24.1353C20.6803 24.1353 20.6657 24.1353 20.65 24.1353C20.6315 24.1353 20.6129 24.1353 20.5943 24.1353C20.6285 24.1353 20.6618 24.1353 20.696 24.1353ZM20.2717 24.1314C20.2502 24.1314 20.2287 24.1314 20.2062 24.1304C20.2287 24.1304 20.2492 24.1304 20.2717 24.1314ZM19.3762 24.0962C19.345 24.0943 19.3147 24.0933 19.2834 24.0913C19.3147 24.0933 19.345 24.0953 19.3762 24.0962ZM18.3977 24.0219C18.3596 24.018 18.3224 24.0151 18.2843 24.0112C18.3224 24.0151 18.3605 24.018 18.3977 24.0219ZM17.8239 23.9652C17.8023 23.9633 17.7799 23.9603 17.7584 23.9574C17.7799 23.9594 17.8023 23.9623 17.8239 23.9652ZM17.4201 23.1314C17.5785 23.1509 17.7359 23.1685 17.8893 23.1851C17.7359 23.1685 17.5785 23.1499 17.4201 23.1314ZM17.9285 23.189C18.0712 23.2047 18.2119 23.2184 18.3498 23.2321C18.211 23.2184 18.0712 23.2047 17.9285 23.189ZM18.4554 23.2418C18.602 23.2555 18.7467 23.2682 18.8875 23.279C18.7457 23.2682 18.601 23.2555 18.4554 23.2418ZM20.2922 23.3503C20.4154 23.3533 20.5356 23.3543 20.6539 23.3543C20.5356 23.3543 20.4154 23.3523 20.2922 23.3503ZM24.2719 23.4892C24.2573 23.497 24.2426 23.5058 24.227 23.5136C24.2426 23.5058 24.2563 23.498 24.2719 23.4892ZM23.8653 23.6749C23.8438 23.6837 23.8213 23.6915 23.7998 23.6993C23.8223 23.6915 23.8438 23.6827 23.8653 23.6749ZM23.661 23.7482C23.6385 23.756 23.616 23.7639 23.5925 23.7707C23.616 23.7629 23.6385 23.7551 23.661 23.7482ZM23.4175 23.8235C23.4048 23.8274 23.3921 23.8313 23.3784 23.8352C23.3921 23.8313 23.4039 23.8274 23.4175 23.8235ZM22.9151 23.9437C22.8867 23.9496 22.8593 23.9545 22.831 23.9603C22.8593 23.9555 22.8877 23.9496 22.9151 23.9437ZM22.6531 23.9907C22.6277 23.9946 22.6013 23.9995 22.5759 24.0034C22.6022 23.9995 22.6277 23.9946 22.6531 23.9907ZM22.0372 24.0708C22.0079 24.0737 21.9776 24.0767 21.9473 24.0786C21.9776 24.0757 22.0079 24.0737 22.0372 24.0708ZM21.743 24.0953C21.7107 24.0972 21.6775 24.1001 21.6452 24.1021C21.6784 24.1001 21.7107 24.0972 21.743 24.0953ZM21.0254 24.1285C21.001 24.1285 20.9765 24.1285 20.9521 24.1295C20.9765 24.1295 21.001 24.1295 21.0254 24.1285ZM20.7449 23.3523C20.8133 23.3523 20.8798 23.3523 20.9462 23.3503C20.8798 23.3513 20.8123 23.3523 20.7449 23.3523ZM21.3314 23.3396C21.4145 23.3357 21.4956 23.3318 21.5748 23.3269C21.4947 23.3318 21.4135 23.3357 21.3314 23.3396ZM21.6012 23.3259C21.6892 23.32 21.7752 23.3142 21.8593 23.3063C21.7752 23.3132 21.6892 23.32 21.6012 23.3259ZM21.9336 23.2995C21.9922 23.2936 22.0509 23.2878 22.1076 23.2819C22.0509 23.2888 21.9922 23.2946 21.9336 23.2995ZM22.1926 23.2721C22.2464 23.2653 22.2992 23.2584 22.351 23.2516C22.2992 23.2584 22.2464 23.2663 22.1926 23.2721ZM22.4292 23.2399C22.4888 23.2311 22.5475 23.2213 22.6042 23.2115C22.5465 23.2213 22.4888 23.2311 22.4292 23.2399ZM22.6521 23.2037C22.7244 23.191 22.7948 23.1763 22.8633 23.1617C22.7948 23.1763 22.7244 23.19 22.6521 23.2037ZM23.3188 23.0424C23.3628 23.0287 23.4048 23.0141 23.4459 22.9994C23.4039 23.0141 23.3618 23.0287 23.3188 23.0424ZM23.4938 22.9828C23.5495 22.9622 23.6043 22.9407 23.6571 22.9192C23.6043 22.9417 23.5505 22.9622 23.4938 22.9828ZM23.8565 22.8244C23.8887 22.8078 23.92 22.7912 23.9513 22.7736C23.921 22.7912 23.8887 22.8078 23.8565 22.8244ZM23.9982 22.7452C24.0285 22.7266 24.0579 22.7081 24.0862 22.6895C24.0579 22.7081 24.0285 22.7276 23.9982 22.7452ZM24.1253 22.6631C24.1654 22.6348 24.2035 22.6064 24.2407 22.5771C24.2045 22.6064 24.1654 22.6357 24.1253 22.6631ZM24.4753 20.313C24.4811 20.3189 24.486 20.3257 24.4909 20.3316C24.4851 20.3257 24.4802 20.3189 24.4753 20.313ZM24.5486 20.4029C24.5564 20.4127 24.5633 20.4225 24.5701 20.4333C24.5633 20.4235 24.5564 20.4127 24.5486 20.4029ZM24.7304 20.751C24.7343 20.7617 24.7373 20.7725 24.7402 20.7842C24.7363 20.7734 24.7334 20.7617 24.7304 20.751ZM24.7656 20.8712C24.7695 20.8849 24.7725 20.8996 24.7754 20.9132C24.7725 20.8986 24.7695 20.8849 24.7656 20.8712ZM24.792 21.0042C24.794 21.0178 24.7969 21.0306 24.7989 21.0452C24.7969 21.0315 24.795 21.0178 24.792 21.0042ZM33.7564 16.0351C33.7711 16.0351 33.7848 16.0351 33.7984 16.0361C33.7848 16.0361 33.7701 16.0351 33.7564 16.0351ZM33.8698 16.04C33.8845 16.041 33.9001 16.043 33.9148 16.0449C33.9001 16.043 33.8854 16.041 33.8698 16.04ZM33.9793 16.0527C33.994 16.0547 34.0086 16.0576 34.0243 16.0606C34.0096 16.0576 33.9949 16.0547 33.9793 16.0527ZM34.0849 16.0752C34.0995 16.0791 34.1132 16.083 34.1279 16.0869C34.1142 16.083 34.0995 16.0791 34.0849 16.0752ZM34.1856 16.1065C34.1992 16.1114 34.212 16.1163 34.2256 16.1221C34.2129 16.1163 34.1992 16.1114 34.1856 16.1065ZM32.6547 16.2942C32.6948 16.2766 32.7368 16.259 32.7788 16.2424C32.7368 16.259 32.6957 16.2756 32.6547 16.2942ZM32.9567 16.1779C32.9831 16.1691 33.0095 16.1603 33.0369 16.1524C33.0105 16.1603 32.9831 16.1691 32.9567 16.1779ZM33.0916 16.1358C33.1171 16.128 33.1435 16.1212 33.1689 16.1143C33.1425 16.1212 33.1171 16.128 33.0916 16.1358ZM33.2266 16.1006C33.252 16.0948 33.2784 16.0889 33.3038 16.083C33.2784 16.0879 33.252 16.0938 33.2266 16.1006ZM33.6254 16.039C33.6528 16.0371 33.6792 16.0371 33.7065 16.0361C33.6792 16.0361 33.6528 16.0371 33.6254 16.039ZM24.3296 19.2572C24.3795 19.2807 24.4284 19.3042 24.4753 19.3296C24.4274 19.3042 24.3795 19.2797 24.3296 19.2572ZM24.5085 19.3481C24.5447 19.3687 24.5809 19.3892 24.6161 19.4107C24.5809 19.3892 24.5457 19.3687 24.5085 19.3481ZM24.66 19.4391C24.6913 19.4596 24.7216 19.4801 24.7519 19.5016C24.7216 19.4801 24.6913 19.4586 24.66 19.4391ZM21.3842 19.5955C21.4086 19.5955 21.4321 19.5955 21.4555 19.5955C21.4321 19.5955 21.4076 19.5955 21.3842 19.5955ZM21.6159 19.5974C21.6393 19.5974 21.6628 19.5974 21.6853 19.5974C21.6618 19.5974 21.6384 19.5974 21.6159 19.5974ZM21.8632 19.6023C21.8769 19.6023 21.8906 19.6023 21.9043 19.6033C21.8906 19.6033 21.8769 19.6033 21.8632 19.6023ZM22.3178 19.6219C22.3393 19.6228 22.3598 19.6248 22.3803 19.6258C22.3598 19.6248 22.3383 19.6228 22.3178 19.6219ZM22.7499 19.658C22.7499 19.658 22.7587 19.658 22.7635 19.659C22.7587 19.659 22.7547 19.659 22.7499 19.658ZM22.9434 19.6815C22.9581 19.6835 22.9727 19.6854 22.9864 19.6874C22.9718 19.6854 22.9581 19.6835 22.9434 19.6815ZM23.1155 19.7079C23.1331 19.7108 23.1497 19.7138 23.1663 19.7167C23.1497 19.7138 23.1321 19.7108 23.1155 19.7079ZM23.6297 19.8262C23.6424 19.8301 23.6551 19.834 23.6678 19.8379C23.6551 19.834 23.6434 19.8301 23.6297 19.8262ZM23.7685 19.8721C23.7822 19.877 23.7959 19.8819 23.8086 19.8868C23.7949 19.8819 23.7822 19.877 23.7685 19.8721ZM23.9083 19.9269C23.9181 19.9308 23.9278 19.9347 23.9366 19.9386C23.9269 19.9347 23.9171 19.9308 23.9083 19.9269ZM24.0569 19.9973C24.0569 19.9973 24.0657 20.0021 24.0696 20.0051C24.0647 20.0031 24.0608 20.0002 24.0569 19.9973ZM24.1664 20.0608C24.1771 20.0676 24.1869 20.0745 24.1967 20.0803C24.1869 20.0735 24.1761 20.0667 24.1664 20.0608ZM24.27 20.1312C24.2798 20.138 24.2895 20.1458 24.2993 20.1537C24.2895 20.1458 24.2798 20.139 24.27 20.1312ZM20.0185 19.6209C20.0537 19.6199 20.0879 19.6189 20.1221 19.618C20.0879 19.6189 20.0527 19.6199 20.0185 19.6209ZM20.2883 19.6131C20.3225 19.6121 20.3568 19.6111 20.39 19.6101C20.3558 19.6101 20.3225 19.6121 20.2883 19.6131ZM20.562 19.6062C20.5914 19.6062 20.6207 19.6052 20.649 19.6043C20.6207 19.6043 20.5914 19.6052 20.562 19.6062ZM20.8631 19.6004C20.8758 19.6004 20.8876 19.6004 20.9003 19.6004C20.8886 19.6004 20.8758 19.6004 20.8631 19.6004ZM18.8767 19.6629C19.0761 19.6561 19.2756 19.6483 19.472 19.6414C19.2746 19.6492 19.0761 19.6561 18.8767 19.6629ZM17.5951 19.6932C17.7368 19.6922 17.8786 19.6903 18.0203 19.6864C17.8786 19.6893 17.7368 19.6913 17.5951 19.6932ZM18.2471 19.6815C18.3948 19.6776 18.5424 19.6737 18.69 19.6688C18.5424 19.6737 18.3957 19.6776 18.2471 19.6815ZM17.3751 19.6952C17.3409 19.6952 17.3067 19.6952 17.2725 19.6952C17.1004 19.6952 16.9274 19.6932 16.7544 19.6903C16.9616 19.6942 17.1679 19.6952 17.3751 19.6942V19.6952ZM17.3732 18.9131C17.4465 18.9131 17.5188 18.9121 17.5922 18.9112C17.5188 18.9112 17.4465 18.9131 17.3732 18.9131ZM7.79489 19.222C7.90536 19.1917 8.02071 19.1644 8.14389 19.1409C8.02169 19.1653 7.90536 19.1917 7.79489 19.222ZM6.59345 19.7871C6.46636 19.877 6.3383 19.9777 6.2073 20.0911C6.3383 19.9787 6.46636 19.877 6.59345 19.7871ZM14.7054 29.4739H14.7142C14.6985 29.4739 14.6829 29.4739 14.6673 29.4739C14.68 29.4739 14.6927 29.4739 14.7054 29.4739ZM14.0739 29.4739C14.0465 29.4739 14.0201 29.4739 13.9927 29.4739C14.0191 29.4739 14.0465 29.4739 14.0739 29.4739ZM13.9165 29.4739C13.9008 29.4739 13.8852 29.4739 13.8686 29.4739C13.8842 29.4739 13.8999 29.4739 13.9165 29.4739ZM13.6173 29.4749C13.5196 29.4749 13.4238 29.4758 13.3309 29.4768C13.4238 29.4768 13.5196 29.4758 13.6173 29.4749ZM13.1198 29.4788C13.1002 29.4788 13.0816 29.4788 13.0621 29.4788C13.0806 29.4788 13.1002 29.4788 13.1198 29.4788ZM12.7502 29.4837C12.7277 29.4837 12.7043 29.4837 12.6818 29.4846C12.7043 29.4846 12.7268 29.4846 12.7502 29.4837ZM12.6339 29.4856C12.6114 29.4856 12.5889 29.4856 12.5664 29.4866C12.5889 29.4866 12.6114 29.4866 12.6339 29.4856ZM12.5166 29.4876C12.4951 29.4876 12.4726 29.4876 12.4521 29.4885C12.4736 29.4885 12.4951 29.4885 12.5166 29.4876ZM12.41 29.4895C12.3875 29.4895 12.366 29.4895 12.3445 29.4905C12.366 29.4905 12.3875 29.4905 12.41 29.4895ZM12.3005 29.4915C12.281 29.4915 12.2614 29.4915 12.2419 29.4925C12.2614 29.4925 12.281 29.4925 12.3005 29.4915ZM12.1999 29.4944C12.1803 29.4944 12.1607 29.4954 12.1422 29.4964C12.1607 29.4964 12.1803 29.4954 12.1999 29.4944ZM12.1031 29.4973C12.0845 29.4973 12.0659 29.4983 12.0483 29.4993C12.0659 29.4993 12.0845 29.4983 12.1031 29.4973ZM12.0102 29.5003C11.9926 29.5003 11.975 29.5013 11.9584 29.5022C11.976 29.5022 11.9926 29.5013 12.0102 29.5003ZM11.9242 29.5032C11.9066 29.5032 11.89 29.5042 11.8733 29.5052C11.89 29.5052 11.9066 29.5042 11.9242 29.5032ZM11.8411 29.5061C11.8254 29.5061 11.8108 29.5071 11.7951 29.5081C11.8098 29.5081 11.8254 29.5071 11.8411 29.5061ZM11.7639 29.5101C11.7492 29.5101 11.7345 29.511 11.7199 29.512C11.7345 29.512 11.7492 29.5101 11.7639 29.5101ZM11.6925 29.514C11.6788 29.514 11.6651 29.5159 11.6514 29.5159C11.6651 29.5159 11.6778 29.514 11.6925 29.514ZM11.5644 29.5218C11.5517 29.5218 11.54 29.5237 11.5292 29.5247C11.541 29.5247 11.5527 29.5228 11.5644 29.5218ZM11.5087 29.5257C11.498 29.5257 11.4872 29.5276 11.4764 29.5286C11.4872 29.5286 11.497 29.5267 11.5087 29.5257ZM11.4139 29.5355C11.4041 29.5364 11.3953 29.5374 11.3865 29.5394C11.3953 29.5384 11.4041 29.5374 11.4139 29.5355ZM11.3748 29.5404C11.363 29.5423 11.3523 29.5433 11.3415 29.5452C11.3513 29.5433 11.3621 29.5423 11.3748 29.5404ZM21.3021 29.5169C21.2522 29.5169 21.2014 29.5159 21.1515 29.5149C21.2014 29.5149 21.2522 29.5159 21.3021 29.5169ZM20.7429 29.511C20.7429 29.511 20.7361 29.511 20.7321 29.511C20.7361 29.511 20.739 29.511 20.7429 29.511ZM18.4397 29.4905C18.4251 29.4905 18.4104 29.4905 18.3967 29.4905C18.4114 29.4905 18.426 29.4905 18.4397 29.4905ZM34.5756 15.4241C34.5961 15.4339 34.6176 15.4427 34.6372 15.4535C34.6167 15.4427 34.5961 15.4339 34.5756 15.4241ZM34.7242 15.5024C34.7428 15.5131 34.7613 15.5239 34.7789 15.5346C34.7613 15.5229 34.7428 15.5131 34.7242 15.5024ZM34.8669 15.5982C34.8816 15.6089 34.8963 15.6187 34.9099 15.6294C34.8963 15.6187 34.8816 15.6079 34.8669 15.5982ZM33.7906 15.255C33.7662 15.255 33.7427 15.2531 33.7183 15.2531C33.7241 15.2531 33.73 15.2531 33.7359 15.2531C33.7544 15.2531 33.772 15.255 33.7906 15.255ZM34.1562 15.2922C34.1318 15.2873 34.1083 15.2834 34.0829 15.2795C34.1073 15.2834 34.1318 15.2883 34.1562 15.2922ZM33.9783 15.2668C33.9539 15.2638 33.9294 15.2609 33.905 15.2599C33.9294 15.2619 33.9539 15.2648 33.9783 15.2668ZM32.597 15.475C32.64 15.4593 32.684 15.4437 32.727 15.429C32.684 15.4437 32.641 15.4593 32.597 15.475ZM32.8013 15.4056C32.8404 15.3938 32.8785 15.3821 32.9176 15.3714C32.8795 15.3821 32.8404 15.3938 32.8013 15.4056ZM32.9949 15.3508C33.032 15.342 33.0682 15.3323 33.1053 15.3244C33.0692 15.3323 33.032 15.3411 32.9949 15.3508ZM33.3654 15.2785C33.4006 15.2736 33.4358 15.2697 33.47 15.2668C33.4348 15.2697 33.4006 15.2736 33.3654 15.2785ZM32.5315 15.4975C32.467 15.5229 32.4015 15.5493 32.336 15.5776C32.4015 15.5483 32.467 15.5219 32.5315 15.4975ZM25.1234 19.8496C25.1 19.8213 25.0765 19.7939 25.0511 19.7675C25.0755 19.7939 25.1 19.8213 25.1234 19.8496ZM25.5223 20.6718C25.5086 20.6141 25.4929 20.5594 25.4763 20.5056C25.4929 20.5594 25.5096 20.6151 25.5223 20.6718ZM25.3971 20.2964C25.3805 20.2583 25.3619 20.2211 25.3434 20.184C25.3619 20.2201 25.3805 20.2583 25.3971 20.2964ZM25.2251 19.9855C25.2026 19.9533 25.1801 19.921 25.1557 19.8897C25.1801 19.921 25.2026 19.9523 25.2251 19.9855ZM25.0198 19.7333C24.9846 19.6971 24.9475 19.661 24.9093 19.6277C24.9475 19.6619 24.9846 19.6971 25.0198 19.7333ZM21.5279 18.8115C21.4555 18.8115 21.3822 18.8105 21.3079 18.8115C21.3118 18.8115 21.3158 18.8115 21.3206 18.8115C21.3901 18.8115 21.4595 18.8115 21.5279 18.8124V18.8115ZM24.2886 19.2396C24.2504 19.223 24.2113 19.2064 24.1713 19.1898C24.2113 19.2054 24.2504 19.222 24.2886 19.2396ZM24.1175 19.1692C24.0794 19.1546 24.0412 19.1409 24.0012 19.1272C24.0403 19.1409 24.0794 19.1546 24.1175 19.1692ZM23.7705 19.0558C23.7167 19.0412 23.661 19.0265 23.6052 19.0138C23.661 19.0275 23.7167 19.0412 23.7705 19.0558ZM23.5466 19.0001C23.5036 18.9903 23.4606 18.9816 23.4175 18.9728C23.4615 18.9816 23.5046 18.9903 23.5466 19.0001ZM23.355 18.96C23.3061 18.9512 23.2572 18.9424 23.2074 18.9336C23.2572 18.9415 23.3061 18.9503 23.355 18.96ZM23.1634 18.9268C23.0989 18.917 23.0343 18.9073 22.9688 18.8985C23.0343 18.9073 23.0998 18.9161 23.1634 18.9268ZM22.9151 18.8926C22.8652 18.8867 22.8154 18.8809 22.7645 18.875C22.8154 18.8799 22.8652 18.8857 22.9151 18.8926ZM22.6951 18.8682C22.6462 18.8633 22.5974 18.8594 22.5475 18.8545C22.5974 18.8584 22.6462 18.8633 22.6951 18.8682ZM22.484 18.8496C22.4146 18.8447 22.3442 18.8398 22.2728 18.8349C22.3442 18.8388 22.4146 18.8437 22.484 18.8496ZM22.2552 18.8339C22.1887 18.83 22.1223 18.8271 22.0558 18.8242C22.1232 18.8271 22.1897 18.83 22.2552 18.8339ZM21.9844 18.8212C21.9326 18.8193 21.8808 18.8173 21.829 18.8163C21.8808 18.8173 21.9336 18.8193 21.9844 18.8212ZM21.7537 18.8144C21.6951 18.8134 21.6364 18.8124 21.5777 18.8115C21.6364 18.8115 21.6951 18.8134 21.7537 18.8144ZM19.8641 18.8418C19.8875 18.8418 19.911 18.8398 19.9344 18.8388C19.911 18.8388 19.8875 18.8408 19.8641 18.8418ZM20.348 18.8261C20.3734 18.8261 20.3978 18.8242 20.4232 18.8242C20.3978 18.8242 20.3734 18.8251 20.348 18.8261ZM20.8299 18.8144C20.8524 18.8144 20.8749 18.8144 20.8974 18.8134C20.8749 18.8134 20.8524 18.8134 20.8299 18.8144ZM18.0057 18.9024C18.08 18.9004 18.1543 18.8994 18.2286 18.8975C18.1543 18.8994 18.08 18.9014 18.0057 18.9024ZM24.1761 4.37557C24.3746 4.37557 24.574 4.37753 24.7725 4.37851C24.9758 4.38046 25.1782 4.38144 25.3805 4.38144C26.1812 4.38144 27.0424 4.35896 27.9144 4.19668C29.0963 3.97672 30.244 3.53877 31.3271 2.89357C30.855 4.93573 30.2068 6.89772 29.4013 8.72872C28.4648 10.8559 27.3758 13.035 25.2886 14.2638C24.2133 14.8972 22.9659 15.2453 21.7762 15.2453C20.6989 15.2453 19.1934 14.9578 18.1337 13.5883C17.6968 13.0232 17.3663 12.4181 17.1503 11.7905C18.9774 10.0739 21.7039 8.99756 25.2534 8.59186C25.4939 8.56449 25.6679 8.34551 25.6406 8.10503C25.6151 7.88312 25.4274 7.71498 25.2036 7.71498C25.187 7.71498 25.1703 7.71498 25.1537 7.71791C21.6374 8.11969 18.865 9.16375 16.9128 10.8237C16.7397 9.64862 16.9782 8.47944 17.6059 7.43637C18.4427 6.0443 19.9569 4.97972 21.655 4.59064C22.4791 4.40197 23.353 4.37557 24.1752 4.37557H24.1761ZM25.4558 7.85673C25.4665 7.86552 25.4763 7.8753 25.4861 7.88605C25.4763 7.87628 25.4665 7.8665 25.4558 7.85673ZM25.5066 7.90756C25.5154 7.91831 25.5232 7.93102 25.532 7.94373C25.5242 7.93102 25.5164 7.91929 25.5066 7.90756ZM25.5477 7.96817C25.5555 7.98283 25.5614 7.9975 25.5672 8.01314C25.5614 7.9975 25.5555 7.98186 25.5477 7.96817ZM25.1606 7.76777C25.1752 7.76581 25.1909 7.76483 25.2055 7.76483C25.2114 7.76483 25.2182 7.76581 25.2241 7.76679C25.2036 7.76581 25.1821 7.76483 25.1606 7.76679V7.76777ZM25.2573 7.76972C25.271 7.77168 25.2847 7.77363 25.2974 7.77754C25.2837 7.77461 25.271 7.77168 25.2573 7.76972ZM25.3297 7.78634C25.3424 7.79025 25.3551 7.79612 25.3668 7.80198C25.3541 7.79612 25.3424 7.79123 25.3297 7.78634ZM6.85837 10.9918C6.98839 11.1228 7.12623 11.246 7.27189 11.3613C7.12525 11.246 6.98839 11.1228 6.85837 10.9918ZM3.98918 4.84188C4.09965 5.27299 4.22185 5.69726 4.35577 6.11371C4.22185 5.69628 4.09965 5.27201 3.98918 4.84188ZM7.28851 7.79318C7.29242 7.76777 7.29926 7.74333 7.30708 7.71987C7.29828 7.74333 7.29242 7.76777 7.28851 7.79318ZM7.31783 7.69738C7.32468 7.68174 7.33152 7.66708 7.33934 7.65339C7.33152 7.66708 7.32468 7.68272 7.31783 7.69738ZM7.35596 7.62993C7.36476 7.6182 7.37258 7.60549 7.38235 7.59474C7.37258 7.60549 7.36378 7.61722 7.35596 7.62993ZM7.59253 7.47156C7.60622 7.46863 7.62088 7.46667 7.63554 7.46472C7.62088 7.46667 7.60622 7.46765 7.59253 7.47156ZM7.46056 7.52826C7.47229 7.52044 7.48402 7.5136 7.49575 7.50675C7.48304 7.5136 7.47131 7.52044 7.46056 7.52826ZM7.5241 7.49404C7.53681 7.48818 7.5505 7.48427 7.5632 7.47938C7.54952 7.48329 7.53681 7.48818 7.5241 7.49404ZM7.24256 7.78634C7.20541 8.02585 7.37062 8.25069 7.61013 8.28784C9.77742 8.62021 11.4833 9.28497 12.6828 10.2616C12.5498 10.6135 12.3602 10.9508 12.1177 11.2646C11.4892 12.0769 10.5859 12.248 9.93872 12.248C9.20358 12.248 8.43129 12.032 7.76459 11.639C6.4605 10.8716 5.76642 9.47853 5.16716 8.11774C4.72432 7.11181 4.35382 6.04137 4.06446 4.93377C4.63438 5.21043 5.23071 5.40692 5.8368 5.52032C6.43508 5.63176 7.01869 5.64642 7.56027 5.64642C7.6942 5.64642 7.8291 5.64545 7.96401 5.64447C8.09403 5.64349 8.22502 5.64251 8.35504 5.64251C8.96212 5.64251 9.46655 5.665 9.95436 5.77742C11.0013 6.0179 11.933 6.67092 12.4472 7.52533C12.7786 8.0757 12.9311 8.69353 12.892 9.31723C11.5977 8.38364 9.86637 7.7443 7.74406 7.41877C7.72157 7.41486 7.69909 7.41388 7.6766 7.41388C7.46154 7.41388 7.27482 7.57421 7.24256 7.78732V7.78634ZM7.66683 7.46276C7.66683 7.46276 7.67367 7.46276 7.67758 7.46276C7.69713 7.46276 7.71766 7.46472 7.73721 7.46765C7.71375 7.46374 7.69029 7.46374 7.66683 7.46374V7.46276ZM4.73019 4.32279C4.99706 4.43618 5.27274 4.53101 5.55722 4.60531C5.27274 4.53003 4.99706 4.43521 4.73019 4.32279C4.59626 4.26609 4.46526 4.20548 4.33525 4.13998C4.46429 4.20548 4.59626 4.26609 4.73019 4.32279ZM7.53876 32.8905C7.53876 32.8905 7.53192 32.8934 7.52899 32.8954C7.53192 32.8934 7.53583 32.8925 7.53876 32.8905C7.55734 32.8798 7.57396 32.868 7.59058 32.8543C7.57396 32.868 7.55636 32.8798 7.53876 32.8905ZM14.3877 30.254C14.6878 30.254 15.0016 30.254 15.3242 30.254C15.1033 30.254 14.8872 30.254 14.6761 30.254C14.5783 30.254 14.4825 30.254 14.3877 30.254ZM11.5087 30.3097C11.5087 30.3097 11.5165 30.3097 11.5204 30.3087C11.5165 30.3087 11.5126 30.3087 11.5087 30.3097ZM11.5478 30.3048C11.5527 30.3048 11.5586 30.3038 11.5644 30.3029C11.5586 30.3029 11.5537 30.3038 11.5478 30.3048ZM11.5947 30.3009C11.6006 30.3009 11.6065 30.2999 11.6133 30.299C11.6065 30.299 11.6006 30.2999 11.5947 30.3009ZM11.6485 30.297C11.6553 30.297 11.6612 30.297 11.669 30.296C11.6622 30.296 11.6553 30.296 11.6485 30.297ZM11.7218 30.2921C11.7218 30.2921 11.7267 30.2921 11.7296 30.2921C11.7267 30.2921 11.7247 30.2921 11.7218 30.2921ZM11.7981 30.2882C11.8049 30.2882 11.8137 30.2882 11.8206 30.2872C11.8127 30.2872 11.8049 30.2872 11.7981 30.2882ZM11.8733 30.2853C11.8831 30.2853 11.8929 30.2853 11.9036 30.2843C11.8939 30.2843 11.8831 30.2843 11.8733 30.2853ZM11.9545 30.2823C11.9652 30.2823 11.977 30.2823 11.9877 30.2814C11.976 30.2814 11.9652 30.2814 11.9545 30.2823ZM12.0444 30.2794C12.0552 30.2794 12.0659 30.2794 12.0767 30.2784C12.0659 30.2784 12.0552 30.2784 12.0444 30.2794ZM12.2693 30.2735C12.2829 30.2735 12.2966 30.2735 12.3093 30.2735C12.2957 30.2735 12.282 30.2735 12.2693 30.2735ZM12.3739 30.2716C12.3905 30.2716 12.4071 30.2716 12.4237 30.2706C12.4071 30.2706 12.3905 30.2706 12.3739 30.2716ZM13.0249 30.2628C13.0513 30.2628 13.0777 30.2628 13.1041 30.2628C13.0777 30.2628 13.0503 30.2628 13.0249 30.2628ZM13.2947 30.2608C13.3231 30.2608 13.3505 30.2608 13.3788 30.2608C13.3505 30.2608 13.3221 30.2608 13.2947 30.2608ZM13.4257 30.2608C13.458 30.2608 13.4893 30.2608 13.5215 30.2608C13.4893 30.2608 13.457 30.2608 13.4257 30.2608ZM13.5323 30.2608C13.6085 30.2608 13.6867 30.2608 13.7659 30.2599C13.6867 30.2599 13.6085 30.2599 13.5323 30.2608ZM14.1081 30.2599C14.1433 30.2599 14.1775 30.2599 14.2127 30.2599C14.1775 30.2599 14.1423 30.2599 14.1081 30.2599ZM14.2606 30.2599C14.2977 30.2599 14.3349 30.2599 14.373 30.2599C14.3359 30.2599 14.2977 30.2599 14.2606 30.2599ZM16.7153 30.2638C16.7857 30.2638 16.8561 30.2638 16.9274 30.2647C16.857 30.2647 16.7857 30.2647 16.7153 30.2638ZM16.9685 30.2647C17.0369 30.2647 17.1044 30.2647 17.1728 30.2657C17.1044 30.2657 17.0359 30.2657 16.9685 30.2647ZM18.1592 30.2726C18.2188 30.2726 18.2774 30.2726 18.3371 30.2735C18.2774 30.2735 18.2188 30.2735 18.1592 30.2726ZM18.3791 30.2745C18.4495 30.2745 18.5199 30.2755 18.5903 30.2765C18.5199 30.2765 18.4495 30.2755 18.3791 30.2745ZM18.5912 30.2765C18.6616 30.2765 18.733 30.2774 18.8034 30.2784C18.733 30.2784 18.6626 30.2775 18.5912 30.2765ZM18.8298 30.2784C18.9021 30.2784 18.9745 30.2794 19.0458 30.2804C18.9745 30.2804 18.9021 30.2794 18.8298 30.2784ZM19.0507 30.2804C19.1973 30.2814 19.343 30.2833 19.4867 30.2843C19.343 30.2833 19.1983 30.2814 19.0507 30.2804ZM19.5415 30.2843C19.5903 30.2843 19.6392 30.2843 19.6871 30.2853C19.6382 30.2853 19.5903 30.2853 19.5415 30.2843ZM19.7858 30.2862C19.8191 30.2862 19.8533 30.2862 19.8865 30.2862C19.8533 30.2862 19.8201 30.2862 19.7858 30.2862ZM19.9862 30.2882C20.0156 30.2882 20.0459 30.2882 20.0752 30.2882C20.0459 30.2882 20.0166 30.2882 19.9862 30.2882ZM20.8338 30.296C20.8798 30.296 20.9247 30.296 20.9697 30.297C20.9247 30.297 20.8798 30.297 20.8338 30.296ZM21.2121 30.2999C21.261 30.2999 21.3089 30.2999 21.3558 30.3009C21.3089 30.3009 21.261 30.3009 21.2121 30.2999Z" fill="#34354C"/>
</svg>
