<svg xmlns="http://www.w3.org/2000/svg" width="14" height="15" viewBox="0 0 14 15"><g><g><g><path fill="#999" d="M10.748 11.751a2.012 2.012 0 0 1-1.431-.59L7.249 9.09a.393.393 0 0 0-.543 0l-2.075 2.075c-.379.38-.894.594-1.431.593h-.405l2.62 2.62a2.096 2.096 0 0 0 2.961 0l2.626-2.626z"/></g><g><path fill="#999" d="M3.2 3.231a2.012 2.012 0 0 1 1.432.593l2.074 2.075c.15.15.394.15.544 0l2.067-2.067a2.009 2.009 0 0 1 1.432-.594h.248L8.372.613a2.094 2.094 0 0 0-2.96 0H5.41L2.795 3.231z"/></g><g><path fill="#999" d="M13.17 6.085L11.582 4.5a.306.306 0 0 1-.113.023h-.721c-.376 0-.736.15-1.002.415L7.68 7.003a.993.993 0 0 1-1.403 0L4.202 4.929A1.424 1.424 0 0 0 3.2 4.513h-.885a.312.312 0 0 1-.107-.021L.612 6.085a2.096 2.096 0 0 0 0 2.962l1.593 1.593a.3.3 0 0 1 .106-.022h.89c.375 0 .735-.15 1-.415l2.075-2.075a1.017 1.017 0 0 1 1.404 0l2.067 2.067c.266.265.626.414 1.002.415h.72c.04 0 .078.008.114.023l1.586-1.587a2.094 2.094 0 0 0 0-2.96v-.001"/></g></g></g></svg>