<svg width="77" height="29" viewBox="0 0 77 29" fill="none" xmlns="http://www.w3.org/2000/svg">
<g id="a" clip-path="url(#clip0_374_5893)">
<path id="Vector" d="M23.2293 4.28202C19.2824 3.58755 15.5459 2.27995 12.1249 0.460938C12.1132 0.466749 12.1015 0.472561 12.0898 0.478372V2.76812C12.1015 2.76231 12.1132 2.7565 12.1249 2.75068C15.0843 4.22391 18.2103 5.31648 21.4443 6.00805C21.5611 6.8885 21.6196 7.78057 21.6196 8.67555C21.6196 15.7802 18.1518 22.4692 12.0898 26.1218V28.4609C19.1305 24.7212 23.6646 17.1691 23.6646 8.67555C23.6646 7.17327 23.5156 5.70295 23.2293 4.28202Z" fill="#747678"/>
<path id="Vector_2" d="M2.20276 6.12829C2.09759 6.97096 2.04501 7.82235 2.04501 8.67374C2.04501 15.7783 6.024 22.4674 12.0889 26.12V28.4591C5.04824 24.7194 0 17.1673 0 8.67374C0 7.20633 0.14315 5.77088 0.417765 4.38192C4.57497 3.7194 8.5043 2.37694 12.0889 0.476562V2.76631C8.95128 4.3238 5.63545 5.45124 2.20276 6.12829Z" fill="#57595B"/>
<path id="Vector_3" d="M7.78554 11.9053L6.11448 13.5674L10.8677 18.2951L12.0888 17.0804V26.1232C6.02392 22.4706 2.04492 15.7816 2.04492 8.67696C2.04492 7.82557 2.09751 6.97418 2.20268 6.13151C5.63537 5.45446 8.9512 4.32702 12.0888 2.76953V13.7533L10.8677 14.968L7.78554 11.9053Z" fill="#ADADAD"/>
<path id="Vector_4" d="M21.6193 8.67487C21.6193 15.7795 18.1516 22.4686 12.0896 26.1211V17.0784L10.8684 18.293L6.11523 13.5653L7.7863 11.9032L10.8684 14.9659L12.0896 13.7512V2.76743C12.1013 2.76162 12.1129 2.75581 12.1246 2.75C15.084 4.22323 18.21 5.3158 21.444 6.00737C21.5609 6.88782 21.6193 7.77989 21.6193 8.67487Z" fill="#F4F4F4"/>
<g id="g3062">
<g id="Group">
<path id="path3064" d="M41.6465 15.7817H36.1764V17.3962H40.0557C39.8641 19.6601 37.9704 20.6257 36.1828 20.6257C33.8959 20.6257 31.9002 18.836 31.9002 16.3274C31.9002 13.8837 33.8027 12.0019 36.1877 12.0019C38.028 12.0019 39.1124 13.1689 39.1124 13.1689L40.2488 11.9981C40.2488 11.9981 38.7902 10.3828 36.1296 10.3828C32.7422 10.3828 30.1211 13.227 30.1211 16.2987C30.1211 19.3088 32.5865 22.2442 36.2161 22.2442C39.4083 22.2442 41.7452 20.0689 41.7452 16.8525C41.7452 16.174 41.6462 15.7817 41.6462 15.7817H41.6465Z" fill="#747678"/>
<path id="path3066" d="M46.1265 14.6133C43.882 14.6133 42.2734 16.3585 42.2734 18.3943C42.2734 20.46 43.8338 22.2377 46.1528 22.2377C48.2524 22.2377 49.9723 20.6416 49.9723 18.4387C49.9723 15.9139 47.9717 14.6133 46.1265 14.6133ZM46.1487 16.1106C47.2524 16.1106 48.2983 16.9983 48.2983 18.4286C48.2983 19.8286 47.2568 20.7413 46.1435 20.7413C44.9203 20.7413 43.9553 19.7667 43.9553 18.4175C43.9553 17.0971 44.9083 16.1106 46.1487 16.1106Z" fill="#747678"/>
<path id="path3068" d="M54.5074 14.6133C52.2628 14.6133 50.6543 16.3585 50.6543 18.3943C50.6543 20.46 52.2146 22.2377 54.5337 22.2377C56.6333 22.2377 58.3532 20.6416 58.3532 18.4387C58.3532 15.9139 56.3523 14.6133 54.5071 14.6133H54.5074ZM54.5296 16.1106C55.6333 16.1106 56.6792 16.9983 56.6792 18.4286C56.6792 19.8286 55.6377 20.7413 54.5243 20.7413C53.3011 20.7413 52.3362 19.7667 52.3362 18.4175C52.3362 17.0971 53.2891 16.1106 54.5296 16.1106Z" fill="#747678"/>
<path id="path3070" d="M62.7264 14.6178C60.6662 14.6178 59.0469 16.4127 59.0469 18.4269C59.0469 20.7216 60.9242 22.2431 62.6911 22.2431C63.7834 22.2431 64.3642 21.8119 64.793 21.3167V22.0685C64.793 23.3836 63.9902 24.1714 62.7781 24.1714C61.6075 24.1714 61.0203 23.3054 60.8161 22.8141L59.3431 23.4266C59.8658 24.5256 60.9178 25.6719 62.7904 25.6719C64.8389 25.6719 66.3998 24.3887 66.3998 21.6971V14.8465H64.7928V15.4921C64.299 14.9627 63.6233 14.6172 62.7261 14.6172L62.7264 14.6178ZM62.8754 16.1122C63.8857 16.1122 64.9228 16.97 64.9228 18.4351C64.9228 19.924 63.8877 20.7449 62.8532 20.7449C61.7548 20.7449 60.7328 19.8577 60.7328 18.4493C60.7328 16.9857 61.7942 16.1122 62.8754 16.1122Z" fill="#747678"/>
<path id="path3072" d="M73.5457 14.6094C71.6023 14.6094 69.9707 16.1474 69.9707 18.4165C69.9707 20.8178 71.7896 22.242 73.7323 22.242C75.354 22.242 76.3494 21.3595 76.9433 20.5688L75.6184 19.6919C75.2746 20.2225 74.6999 20.7414 73.7405 20.7414C72.6631 20.7414 72.1676 20.1545 71.8606 19.5861L77 17.4652L76.7332 16.8436C76.2366 15.6264 75.0782 14.6094 73.5457 14.6094ZM73.6126 16.0756C74.3128 16.0756 74.8168 16.4458 75.0309 16.8898L71.5988 18.3166C71.451 17.2118 72.503 16.0756 73.6126 16.0756Z" fill="#747678"/>
<path id="path3074" d="M67.5195 22.0142H69.2075V10.7773H67.5195V22.0142Z" fill="#747678"/>
</g>
</g>
<g id="Group_2">
<path id="Vector_5" d="M32.6289 8.20639H32.1965L30.5535 5.7054V8.20639H30.1211V4.96094H30.5535L32.2009 7.47327V4.96094H32.6291L32.6289 8.20639Z" fill="#7F7F7F"/>
<path id="Vector_6" d="M34.8243 8.20654C34.8003 8.15888 34.781 8.07433 34.7662 7.95228C34.5733 8.15162 34.3434 8.251 34.0758 8.251C33.8368 8.251 33.6408 8.18387 33.4874 8.04934C33.3344 7.91509 33.2578 7.74452 33.2578 7.53792C33.2578 7.28686 33.3536 7.09159 33.5456 6.9527C33.7375 6.81351 34.0077 6.74435 34.3557 6.74435H34.7591V6.5549C34.7591 6.41077 34.7159 6.29599 34.6294 6.21056C34.5427 6.12514 34.415 6.08242 34.2461 6.08242C34.0983 6.08242 33.9741 6.11961 33.8742 6.194C33.7743 6.26839 33.7241 6.35818 33.7241 6.46366H33.3072C33.3072 6.34336 33.3498 6.22713 33.436 6.11467C33.5219 6.00251 33.6382 5.91389 33.7854 5.84822C33.9327 5.78254 34.0945 5.75 34.2707 5.75C34.55 5.75 34.7688 5.81945 34.9271 5.95834C35.0855 6.09753 35.1676 6.28873 35.1737 6.53252V7.64253C35.1737 7.86395 35.2023 8.04004 35.259 8.1708V8.20654H34.8243ZM34.1363 7.89213C34.2663 7.89213 34.3896 7.85872 34.5064 7.79188C34.6227 7.72505 34.7074 7.63817 34.7594 7.53124V7.03638H34.4346C33.9268 7.03638 33.6727 7.18429 33.6727 7.47981C33.6727 7.60911 33.7159 7.71023 33.8027 7.78288C33.8894 7.85552 34.0004 7.89213 34.1363 7.89213Z" fill="#7F7F7F"/>
<path id="Vector_7" d="M36.5908 7.6493L37.1918 5.79688H37.6151L36.7454 8.20866H36.4295L35.5508 5.79688H35.9744L36.5908 7.6493Z" fill="#7F7F7F"/>
<path id="Vector_8" d="M39.0201 8.251C38.6911 8.251 38.4238 8.14377 38.2176 7.92904C38.0116 7.7143 37.9082 7.42721 37.9082 7.06748V6.99164C37.9082 6.75249 37.9541 6.53892 38.0461 6.35091C38.1381 6.16291 38.2667 6.01588 38.4317 5.90953C38.5965 5.80318 38.7756 5.75 38.9684 5.75C39.2836 5.75 39.5287 5.85345 39.7037 6.05976C39.8784 6.26636 39.9658 6.56216 39.9658 6.94689V7.11862H38.323C38.3289 7.35631 38.3987 7.54838 38.5325 7.69483C38.6663 7.84128 38.836 7.91451 39.0423 7.91451C39.1887 7.91451 39.3128 7.88458 39.4142 7.8253C39.5159 7.76602 39.6047 7.68699 39.6809 7.58906L39.9342 7.7852C39.7309 8.09583 39.4262 8.251 39.0198 8.251H39.0201ZM38.9684 6.08881C38.801 6.08881 38.6605 6.14925 38.5471 6.27042C38.4338 6.39159 38.3634 6.56129 38.3365 6.77981H39.5509V6.74871C39.5389 6.53921 39.4823 6.37677 39.3806 6.26171C39.2789 6.14664 39.1416 6.08881 38.9684 6.08881Z" fill="#7F7F7F"/>
<path id="Vector_9" d="M40.3479 6.98059C40.3479 6.60459 40.4353 6.30558 40.61 6.08329C40.785 5.86129 41.0164 5.75 41.3047 5.75C41.6007 5.75 41.8315 5.85403 41.9974 6.06208L42.0173 5.79475H42.3962V8.14871C42.3962 8.46079 42.3033 8.70662 42.1172 8.88649C41.9311 9.06636 41.6813 9.15614 41.3675 9.15614C41.1925 9.15614 41.0216 9.11895 40.8542 9.04456C40.6871 8.97017 40.5592 8.86847 40.4709 8.73917L40.686 8.49159C40.8636 8.71011 41.0812 8.81936 41.338 8.81936C41.5396 8.81936 41.6971 8.7627 41.8098 8.64996C41.9226 8.53692 41.979 8.37798 41.979 8.17283V7.96565C41.813 8.15598 41.5866 8.251 41.2998 8.251C41.0158 8.251 40.7862 8.13738 40.6109 7.90986C40.435 7.68263 40.3477 7.37258 40.3477 6.9803L40.3479 6.98059ZM40.7648 7.02738C40.7648 7.29936 40.8206 7.51293 40.9328 7.66839C41.045 7.82356 41.2019 7.90143 41.4035 7.90143C41.6649 7.90143 41.8569 7.78317 41.9796 7.54693V6.44564C41.8525 6.2155 41.662 6.10015 41.4081 6.10015C41.2066 6.10015 41.0488 6.17831 40.9352 6.33435C40.8215 6.49039 40.7648 6.7214 40.7648 7.02767V7.02738Z" fill="#7F7F7F"/>
<path id="Vector_10" d="M44.5176 8.20654C44.4937 8.15888 44.4744 8.07433 44.4595 7.95228C44.2667 8.15162 44.0368 8.251 43.7692 8.251C43.5302 8.251 43.3342 8.18387 43.1808 8.04934C43.0277 7.91509 42.9512 7.74452 42.9512 7.53792C42.9512 7.28686 43.047 7.09159 43.2389 6.9527C43.4309 6.81351 43.7011 6.74435 44.0491 6.74435H44.4525V6.5549C44.4525 6.41077 44.4093 6.29599 44.3228 6.21056C44.236 6.12514 44.1084 6.08242 43.9395 6.08242C43.7917 6.08242 43.6675 6.11961 43.5676 6.194C43.4677 6.26839 43.4174 6.35818 43.4174 6.46366H43.0005C43.0005 6.34336 43.0432 6.22713 43.1294 6.11467C43.2153 6.00251 43.3315 5.91389 43.4788 5.84822C43.626 5.78254 43.7879 5.75 43.964 5.75C44.2433 5.75 44.4621 5.81945 44.6205 5.95834C44.7788 6.09753 44.8609 6.28873 44.867 6.53252V7.64253C44.867 7.86395 44.8957 8.04004 44.9524 8.1708V8.20654H44.5176ZM43.8296 7.89213C43.9597 7.89213 44.0829 7.85872 44.1998 7.79188C44.3161 7.72505 44.4008 7.63817 44.4528 7.53124V7.03638H44.1279C43.6202 7.03638 43.366 7.18429 43.366 7.47981C43.366 7.60911 43.4093 7.71023 43.496 7.78288C43.5828 7.85552 43.6941 7.89213 43.8299 7.89213H43.8296Z" fill="#7F7F7F"/>
<path id="Vector_11" d="M46.4905 7.91451C46.6383 7.91451 46.7675 7.87005 46.8782 7.78084C46.9886 7.69164 47.05 7.58034 47.0619 7.44668H47.4543C47.4467 7.58499 47.3991 7.71633 47.3108 7.84099C47.2226 7.96594 47.1049 8.06532 46.9579 8.13971C46.8107 8.2138 46.655 8.251 46.4905 8.251C46.1601 8.251 45.8977 8.14145 45.7029 7.92235C45.5077 7.70326 45.4102 7.40338 45.4102 7.02273V6.95357C45.4102 6.71878 45.4534 6.51015 45.5402 6.32738C45.6269 6.1446 45.7514 6.00251 45.9132 5.90168C46.0751 5.80085 46.267 5.75 46.4882 5.75C46.7602 5.75 46.986 5.83107 47.1659 5.99292C47.3459 6.15477 47.442 6.36515 47.454 6.62376H47.0616C47.0497 6.46773 46.9904 6.33958 46.8834 6.23933C46.7768 6.13908 46.645 6.08881 46.4879 6.08881C46.2772 6.08881 46.1139 6.16407 45.9982 6.31488C45.8826 6.46569 45.8244 6.68391 45.8244 6.96897V7.04714C45.8244 7.32522 45.8817 7.53908 45.9971 7.68902C46.1122 7.83925 46.2764 7.91422 46.4902 7.91422L46.4905 7.91451ZM46.5574 8.22659L46.5305 8.34253C46.759 8.38263 46.8735 8.51135 46.8735 8.72812C46.8735 8.87225 46.8139 8.98645 46.6944 9.07042C46.5749 9.1544 46.4084 9.19653 46.1946 9.19653L46.1788 8.95797C46.2968 8.95797 46.3883 8.9385 46.4531 8.89985C46.518 8.86121 46.5507 8.80687 46.5507 8.73713C46.5507 8.67175 46.5267 8.62352 46.4791 8.59213C46.4312 8.56104 46.3342 8.53867 46.1875 8.5253L46.2594 8.22659H46.5574Z" fill="#7F7F7F"/>
<path id="Vector_12" d="M49.418 8.20783C49.3941 8.16017 49.3748 8.07561 49.3596 7.95357C49.1671 8.15291 48.9369 8.25228 48.6696 8.25228C48.4306 8.25228 48.2343 8.18516 48.0812 8.05062C47.9281 7.91638 47.8516 7.74581 47.8516 7.53921C47.8516 7.28815 47.9474 7.09288 48.1393 6.95399C48.3313 6.8148 48.6012 6.74564 48.9494 6.74564H49.3529V6.55619C49.3529 6.41206 49.3097 6.29728 49.2229 6.21185C49.1361 6.12642 49.0087 6.08371 48.8396 6.08371C48.6915 6.08371 48.5676 6.1209 48.4677 6.19529C48.3678 6.26968 48.3172 6.35947 48.3172 6.46495H47.9004C47.9004 6.34465 47.9433 6.22842 48.0292 6.11596C48.1151 6.00351 48.2316 5.91517 48.3786 5.8495C48.5258 5.78412 48.6877 5.75129 48.8638 5.75129C49.1431 5.75129 49.3622 5.82074 49.5206 5.95963C49.6789 6.09882 49.761 6.29002 49.7672 6.53381V7.64382C49.7672 7.86524 49.7955 8.04133 49.8522 8.17209V8.20783H49.418ZM49.7046 4.85515C49.7046 5.01555 49.6588 5.14573 49.5667 5.2451C49.4747 5.34448 49.3602 5.39446 49.2226 5.39446C49.1612 5.39446 49.1081 5.3869 49.0634 5.37209C49.0187 5.35727 48.96 5.32676 48.8875 5.28055C48.8151 5.23464 48.7625 5.20675 48.7306 5.19687C48.6985 5.18728 48.6617 5.18234 48.6196 5.18234C48.5583 5.18234 48.506 5.20588 48.4627 5.25266C48.4195 5.29944 48.3976 5.3593 48.3976 5.43223L48.1198 5.41654C48.1198 5.2576 48.165 5.12597 48.2553 5.02194C48.3459 4.91791 48.4604 4.8659 48.5994 4.8659C48.652 4.8659 48.6988 4.87346 48.7406 4.88827C48.7826 4.90309 48.8393 4.93215 48.9109 4.97516C48.9827 5.01816 49.0377 5.04664 49.0756 5.06001C49.1136 5.07337 49.1557 5.08006 49.2021 5.08006C49.2664 5.08006 49.3199 5.05478 49.3625 5.00421C49.4052 4.95365 49.4265 4.89496 49.4265 4.82812L49.7043 4.85486L49.7046 4.85515ZM48.7297 7.89342C48.8595 7.89342 48.983 7.86001 49.0996 7.79317C49.2162 7.72634 49.3006 7.63946 49.3529 7.53253V7.03767H49.028C48.52 7.03767 48.2661 7.18558 48.2661 7.48109C48.2661 7.6104 48.3094 7.71152 48.3958 7.78416C48.4826 7.85681 48.5939 7.89342 48.73 7.89342H48.7297Z" fill="#7F7F7F"/>
<path id="Vector_13" d="M50.3066 6.97827C50.3066 6.74203 50.3534 6.52962 50.4466 6.34074C50.5398 6.15187 50.6701 6.00629 50.8366 5.90372C51.0031 5.80114 51.1933 5.75 51.4069 5.75C51.7373 5.75 52.0043 5.86391 52.2082 6.09114C52.4118 6.31866 52.5141 6.62086 52.5141 6.99861V7.02767C52.5141 7.26245 52.4688 7.47312 52.3785 7.65967C52.288 7.84622 52.1588 7.99151 51.9908 8.09554C51.8226 8.19956 51.6295 8.25158 51.4115 8.25158C51.0829 8.25158 50.8164 8.13796 50.6125 7.91044C50.4089 7.68321 50.3066 7.38217 50.3066 7.00762V6.97827ZM50.7235 7.02738C50.7235 7.29471 50.7861 7.50973 50.9108 7.67159C51.0355 7.83373 51.2026 7.91451 51.4118 7.91451C51.6225 7.91451 51.7899 7.83227 51.914 7.6681C52.0379 7.50392 52.1001 7.27408 52.1001 6.97798C52.1001 6.71355 52.0367 6.49911 51.9108 6.33493C51.7843 6.17076 51.6166 6.08852 51.4074 6.08852C51.2029 6.08852 51.0376 6.16959 50.9123 6.33144C50.7866 6.49359 50.7238 6.72518 50.7238 7.02709L50.7235 7.02738Z" fill="#7F7F7F"/>
<path id="Vector_14" d="M55.1975 6.76168C54.8282 6.6562 54.5598 6.52631 54.3918 6.3726C54.2238 6.21888 54.1397 6.02884 54.1397 5.80307C54.1397 5.54736 54.2425 5.33611 54.4479 5.16874C54.6532 5.00136 54.9203 4.91797 55.2492 4.91797C55.4733 4.91797 55.6728 4.96097 55.8487 5.04728C56.0243 5.13329 56.1601 5.25242 56.2565 5.4041C56.3526 5.55549 56.4008 5.72141 56.4008 5.90099H55.9685C55.9685 5.70427 55.9057 5.54939 55.78 5.43665C55.6544 5.3242 55.4777 5.26782 55.2492 5.26782C55.0368 5.26782 54.8715 5.31432 54.7529 5.4073C54.634 5.50029 54.5747 5.62959 54.5747 5.79464C54.5747 5.92714 54.631 6.03901 54.7438 6.13055C54.8566 6.22208 55.0485 6.30606 55.3199 6.3819C55.591 6.45774 55.8031 6.54142 55.9565 6.63295C56.1099 6.72449 56.2232 6.83113 56.2971 6.95288C56.371 7.07463 56.4081 7.21818 56.4081 7.38293C56.4081 7.64591 56.3047 7.85657 56.0988 8.01494C55.8925 8.17301 55.617 8.25234 55.2717 8.25234C55.0476 8.25234 54.8385 8.20963 54.6445 8.1242C54.4502 8.03877 54.3003 7.92166 54.1952 7.77318C54.0897 7.62469 54.0371 7.45587 54.0371 7.26728H54.4695C54.4695 7.46342 54.5422 7.6183 54.688 7.73221C54.8335 7.84582 55.0281 7.90278 55.2717 7.90278C55.4987 7.90278 55.6728 7.85657 55.7938 7.76446C55.915 7.67235 55.9755 7.54653 55.9755 7.38758C55.9755 7.22864 55.9194 7.10572 55.8075 7.01855C55.6953 6.93167 55.4923 6.84595 55.1978 6.7611L55.1975 6.76168Z" fill="#7F7F7F"/>
<path id="Vector_15" d="M57.901 8.251C57.572 8.251 57.3047 8.14377 57.0984 7.92904C56.8925 7.7143 56.7891 7.42721 56.7891 7.06748V6.99164C56.7891 6.75249 56.8349 6.53892 56.927 6.35091C57.019 6.16291 57.1475 6.01588 57.3126 5.90953C57.4774 5.80318 57.6564 5.75 57.8493 5.75C58.1645 5.75 58.4096 5.85345 58.5846 6.05976C58.7593 6.26636 58.8466 6.56216 58.8466 6.94689V7.11862H57.2039C57.2097 7.35631 57.2796 7.54838 57.4134 7.69483C57.5472 7.84128 57.7169 7.91451 57.9232 7.91451C58.0695 7.91451 58.1937 7.88458 58.2951 7.8253C58.3967 7.76602 58.4855 7.68699 58.5618 7.58906L58.8151 7.7852C58.6117 8.09583 58.307 8.251 57.9007 8.251H57.901ZM57.8493 6.08881C57.6819 6.08881 57.5413 6.14925 57.428 6.27042C57.3146 6.39159 57.2442 6.56129 57.2173 6.77981H58.4318V6.74871C58.4198 6.53921 58.3631 6.37677 58.2615 6.26171C58.1598 6.14664 58.0225 6.08881 57.8493 6.08881Z" fill="#7F7F7F"/>
<path id="Vector_16" d="M59.2269 6.98059C59.2269 6.60459 59.3142 6.30558 59.4889 6.08329C59.6639 5.86129 59.8953 5.75 60.1836 5.75C60.4796 5.75 60.7104 5.85403 60.8763 6.06208L60.8962 5.79475H61.2751V8.14871C61.2751 8.46079 61.1822 8.70662 60.9961 8.88649C60.81 9.06636 60.5602 9.15614 60.2464 9.15614C60.0714 9.15614 59.9005 9.11895 59.7331 9.04456C59.566 8.97017 59.4381 8.86847 59.3499 8.73917L59.5649 8.49159C59.7425 8.71011 59.9601 8.81936 60.2169 8.81936C60.4185 8.81936 60.576 8.7627 60.6887 8.64996C60.8015 8.53692 60.8579 8.37798 60.8579 8.17283V7.96565C60.692 8.15598 60.4655 8.251 60.1787 8.251C59.8947 8.251 59.6651 8.13738 59.4898 7.90986C59.3139 7.68263 59.2266 7.37258 59.2266 6.9803L59.2269 6.98059ZM59.6437 7.02738C59.6437 7.29936 59.6995 7.51293 59.8117 7.66839C59.9239 7.82356 60.0808 7.90143 60.2824 7.90143C60.5438 7.90143 60.7358 7.78317 60.8585 7.54693V6.44564C60.7314 6.2155 60.5409 6.10015 60.287 6.10015C60.0855 6.10015 59.9277 6.17831 59.8141 6.33435C59.7004 6.49039 59.6437 6.7214 59.6437 7.02767V7.02738Z" fill="#7F7F7F"/>
<path id="Vector_17" d="M63.3966 7.9701C63.2351 8.15868 62.9984 8.25312 62.6861 8.25312C62.4276 8.25312 62.2307 8.17844 62.0957 8.02909C61.9604 7.87973 61.8921 7.65889 61.8906 7.36599V5.79688H62.3052V7.35495C62.3052 7.72049 62.4548 7.90327 62.7533 7.90327C63.0703 7.90327 63.2809 7.78587 63.3855 7.55109V5.79688H63.8001V8.20866H63.4054L63.3966 7.9701Z" fill="#7F7F7F"/>
<path id="Vector_18" d="M65.6037 6.16465C65.5409 6.15419 65.4731 6.14896 65.3998 6.14896C65.1278 6.14896 64.9435 6.26403 64.8462 6.49446V8.20654H64.4316V5.79475H64.8351L64.8415 6.07341C64.9777 5.8578 65.1702 5.75 65.4197 5.75C65.5003 5.75 65.5614 5.76046 65.6034 5.78109L65.6037 6.16465Z" fill="#7F7F7F"/>
<path id="Vector_19" d="M67.3907 8.20654C67.3667 8.15888 67.3475 8.07433 67.3323 7.95228C67.1397 8.15162 66.9095 8.251 66.6422 8.251C66.4032 8.251 66.2069 8.18387 66.0538 8.04934C65.9008 7.91509 65.8242 7.74452 65.8242 7.53792C65.8242 7.28686 65.92 7.09159 66.112 6.9527C66.3039 6.81351 66.5739 6.74435 66.9221 6.74435H67.3255V6.5549C67.3255 6.41077 67.2823 6.29599 67.1955 6.21056C67.1088 6.12514 66.9814 6.08242 66.8122 6.08242C66.6641 6.08242 66.5403 6.11961 66.4403 6.194C66.3404 6.26839 66.2899 6.35818 66.2899 6.46366H65.873C65.873 6.34336 65.9159 6.22713 66.0018 6.11467C66.0877 6.00222 66.2043 5.91389 66.3512 5.84822C66.4985 5.78284 66.6603 5.75 66.8365 5.75C67.1158 5.75 67.3349 5.81945 67.4932 5.95834C67.6516 6.09753 67.7337 6.28873 67.7398 6.53252V7.64253C67.7398 7.86395 67.7681 8.04004 67.8248 8.1708V8.20654H67.3904H67.3907ZM66.7027 7.89213C66.8324 7.89213 66.956 7.85872 67.0725 7.79188C67.1891 7.72505 67.2735 7.63817 67.3258 7.53124V7.03638H67.001C66.4929 7.03638 66.2391 7.18429 66.2391 7.47981C66.2391 7.60911 66.2823 7.71023 66.3688 7.78288C66.4555 7.85552 66.5668 7.89213 66.703 7.89213H66.7027Z" fill="#7F7F7F"/>
</g>
<path id="Vector_20" d="M18.2509 10.9502L12.0896 17.0784L10.8684 18.293L6.11523 13.5654L7.7863 11.9033L10.8684 14.9659L12.0896 13.7513L16.5798 9.28516L18.2509 10.9502Z" fill="#747678"/>
</g>
<defs>
<clipPath id="clip0_374_5893">
<rect width="77" height="28" fill="white" transform="translate(0 0.460938)"/>
</clipPath>
</defs>
</svg>
