<svg xmlns="http://www.w3.org/2000/svg" width="20" height="16" viewBox="0 0 20 16"><g><g><g><path fill="#999" d="M11.967 16c4.2.02 8.033-3.425 8.033-7.616 0-4.583-3.833-7.75-8.033-7.75H8.353C4.103.635.606 3.803.606 8.385c0 4.192 3.498 7.636 7.747 7.616z"/></g><g><path fill="#fff" d="M9.965 12.465V4.143a4.463 4.463 0 0 1 2.863 4.16 4.464 4.464 0 0 1-2.863 4.162zM3.914 8.304a4.465 4.465 0 0 1 2.86-4.16v8.32a4.463 4.463 0 0 1-2.86-4.16zM8.37 1.27a7.034 7.034 0 0 0 0 14.066 7.033 7.033 0 0 0 0-14.066z"/></g><g><path fill="#fff" d="M9.965 12.465V4.143a4.463 4.463 0 0 1 2.863 4.16 4.464 4.464 0 0 1-2.863 4.162zM3.914 8.304a4.465 4.465 0 0 1 2.86-4.16v8.32a4.463 4.463 0 0 1-2.86-4.16zM8.37 1.27a7.034 7.034 0 0 0 0 14.066 7.033 7.033 0 0 0 0-14.066z"/></g></g></g></svg>