<svg width="34" height="32" viewBox="0 0 34 32" fill="none" xmlns="http://www.w3.org/2000/svg">
<g id="Group 261">
<path id="Vector" d="M31.9002 19.1483L25.7168 14.5654L19.3152 9.8207C19.2424 9.76412 19.1454 9.73179 19.0484 9.73179H17.448V7.01594C19.1859 6.78962 20.5195 5.2862 20.5195 3.52414C20.5195 3.4918 20.5114 3.45947 20.5114 3.41906C20.4953 2.90984 20.374 2.43295 20.1639 2.00455C19.5981 0.824454 18.3937 0 16.9954 0C15.0555 0 13.4713 1.58424 13.4713 3.52414C13.4713 3.77471 13.6733 3.97678 13.9158 3.97678C14.1583 3.97678 14.3604 3.77471 14.3604 3.52414C14.3604 3.33823 14.3846 3.15232 14.4169 2.9745C14.5059 2.53802 14.716 2.15005 14.9989 1.82673C15.4839 1.26093 16.1871 0.8972 16.9873 0.8972C17.7471 0.8972 18.418 1.22052 18.9029 1.73782C19.2586 2.11771 19.5011 2.61077 19.5819 3.15232C19.5981 3.27357 19.6223 3.39481 19.6223 3.52414C19.6223 4.97097 18.4422 6.15107 16.9954 6.15107C16.7448 6.15107 16.5508 6.35314 16.5508 6.60371V9.73987H14.9504C14.8534 9.73987 14.7564 9.7722 14.6837 9.82878L8.45987 14.436L8.27396 14.5734L6.43915 15.9314L6.00267 16.2547L4.93573 17.0468L2.09056 19.1564C1.20144 19.8192 0.667969 20.87 0.667969 21.9774C0.667969 23.9172 2.24413 25.4934 4.18402 25.4934H29.8148C31.7547 25.4934 33.3309 23.9172 33.3309 21.9774C33.3309 20.87 32.7974 19.8111 31.9083 19.1564L31.9002 19.1483ZM29.8068 24.5881H4.18402C2.73719 24.5881 1.56517 23.4161 1.56517 21.9693C1.56517 21.1448 1.96123 20.3608 2.62403 19.8677L5.28329 17.9036L6.32599 17.1276L9.78546 14.5654L15.0959 10.629H18.8949L24.2053 14.5654L31.3668 19.8677C32.0295 20.3608 32.4256 21.1448 32.4256 21.9693C32.4256 23.4161 31.2536 24.5881 29.8068 24.5881Z" fill="#34354C"/>
<path id="Vector_2" d="M31.2222 11.3337H31.0848L31.0606 11.2044C30.3897 7.42969 27.8759 4.2612 24.3356 2.72545C24.3114 2.71737 24.2871 2.70928 24.2629 2.7012L24.1901 2.67695H24.1659L24.1255 2.63654L23.7617 2.49105C23.7617 2.49105 23.7132 2.48296 23.6809 2.47488H23.6647L23.6162 2.4668H23.6001H23.592C23.398 2.4668 23.2283 2.57996 23.1555 2.75778C23.107 2.87902 23.107 3.00027 23.1555 3.12151C23.204 3.24275 23.2929 3.33167 23.4142 3.37208L23.786 3.52565L23.883 3.55799C27.0919 4.92399 29.4117 7.76108 30.0987 11.1559L30.1391 11.3499H29.9371H28.66L30.7211 14.8659L32.7337 11.3256L31.2222 11.358V11.3337Z" fill="#34354C"/>
<path id="Vector_3" d="M23.6148 29.5756C23.534 29.5756 23.4612 29.5917 23.3885 29.6321L23.0328 29.8261L22.9439 29.8827H22.9359C21.4324 30.6587 19.7431 31.0709 18.0538 31.0709C16.3645 31.0709 14.6347 30.6506 13.1313 29.8423L12.9535 29.7453L13.0828 29.5917L13.8992 28.6056L9.90625 27.959L11.3288 31.766L12.2665 30.5778L12.3554 30.4728L12.4766 30.5374C14.174 31.4912 16.1058 32.0004 18.07 32.0004C19.8805 32.0004 21.6911 31.5639 23.2915 30.7476C23.3157 30.7395 23.34 30.7233 23.3642 30.7072C23.3885 30.691 23.4127 30.6748 23.437 30.6667H23.4532L23.5017 30.6425L23.8492 30.4566C23.8492 30.4566 23.8896 30.4243 23.9139 30.4H23.93L23.9705 30.3515H23.9866V30.3354C24.1079 30.1818 24.1321 29.9797 24.0351 29.81C23.9543 29.6564 23.7926 29.5594 23.6229 29.5594L23.6148 29.5756Z" fill="#34354C"/>
<path id="Vector_4" d="M6.98797 4.60591L7.03647 4.73524L6.92331 4.7999C3.60125 6.72363 1.47545 10.175 1.24913 14.0225C1.24913 14.0467 1.24913 14.071 1.24913 14.1033C1.24913 14.1275 1.24913 14.1599 1.24913 14.1841V14.2084L1.23296 14.2569L1.2168 14.6529C1.2168 14.6529 1.2168 14.7014 1.23296 14.7338V14.7499L1.24913 14.7984V14.8146C1.31379 15.0005 1.48353 15.1217 1.67752 15.1217C1.95234 15.1217 2.15441 14.9197 2.16249 14.6691L2.17866 14.265V14.1599C2.35648 10.6842 4.22363 7.53191 7.18196 5.72135L7.3517 5.61627L7.41637 5.80218L7.85284 7.00653L10.4555 3.87037L6.46259 3.19141L6.97989 4.59783L6.98797 4.60591Z" fill="#34354C"/>
</g>
</svg>
