<svg width="32" height="32" viewBox="0 0 32 32" fill="none" xmlns="http://www.w3.org/2000/svg">
<g id="Social Media / Youtube">
<g id="Vector">
<path d="M24.9009 11.5982C24.692 10.8127 24.0739 10.1931 23.2876 9.9807C21.8657 9.59961 16.161 9.59961 16.161 9.59961C16.161 9.59961 10.4592 9.59961 9.03447 9.9807C8.25102 10.1902 7.63296 10.8098 7.42114 11.5982C7.04102 13.0236 7.04102 15.9996 7.04102 15.9996C7.04102 15.9996 7.04102 18.9756 7.42114 20.4011C7.63006 21.1865 8.24812 21.8062 9.03447 22.0185C10.4592 22.3996 16.161 22.3996 16.161 22.3996C16.161 22.3996 21.8657 22.3996 23.2876 22.0185C24.071 21.8091 24.6891 21.1894 24.9009 20.4011C25.281 18.9756 25.281 15.9996 25.281 15.9996C25.281 15.9996 25.281 13.0236 24.9009 11.5982Z" fill="#D392A0"/>
<path d="M14.3388 18.7429L19.0772 15.9996L14.3388 13.2563V18.7429Z" fill="white"/>
</g>
</g>
</svg>
