<svg xmlns="http://www.w3.org/2000/svg" width="19" height="18" viewBox="0 0 19 18"><g><g><g><path fill="#000000" d="M7.848 3.137l.001-.033c.003-.783.64-1.42 1.421-1.42a1.425 1.425 0 0 1 0 2.85c-.779 0-1.416-.635-1.422-1.397M.84 3.953H6.29a3.091 3.091 0 0 0 5.96 0h5.447a.842.842 0 0 0 0-1.683H12.25a3.092 3.092 0 0 0-5.962 0H.839a.841.841 0 0 0 0 1.683"/></g><g><path fill="#000000" d="M14.658 9c0 .786-.638 1.425-1.421 1.425a1.426 1.426 0 0 1 0-2.85c.783 0 1.42.639 1.42 1.425m3.04-.839h-1.479a3.09 3.09 0 0 0-2.981-2.27 3.091 3.091 0 0 0-2.982 2.27H.84a.841.841 0 0 0 0 1.683h9.418a3.092 3.092 0 0 0 5.96 0h1.48a.841.841 0 0 0 0-1.683"/></g><g><path fill="#000000" d="M6.725 14.892c0 .786-.638 1.425-1.421 1.425-.78 0-1.418-.636-1.422-1.402l.001-.033a1.427 1.427 0 0 1 1.42-1.415c.784 0 1.422.64 1.422 1.425m10.972-.844H8.283a3.092 3.092 0 0 0-5.96 0H.84a.841.841 0 0 0 0 1.683h1.483a3.091 3.091 0 0 0 2.982 2.27 3.091 3.091 0 0 0 2.981-2.27h9.412a.841.841 0 0 0 0-1.683"/></g></g></g></svg>
