<svg width="32" height="32" viewBox="0 0 32 32" fill="none" xmlns="http://www.w3.org/2000/svg">
<g id="Social Media / Pinterest">
<path id="Vector" d="M15.2178 8.05351C12.6205 8.35032 10.0324 10.5014 9.92556 13.5742C9.85842 15.4503 10.3788 16.8578 12.123 17.253C12.8799 15.8862 11.8789 15.5847 11.7232 14.5958C11.0838 10.5436 16.289 7.78013 19.0129 10.6092C20.8976 12.5681 19.6569 18.5949 16.6171 17.9685C13.7055 17.3702 18.0424 12.5728 15.7183 11.6308C13.8291 10.8654 12.825 13.9725 13.7207 15.5159C13.1958 18.17 12.065 20.671 12.5228 24C14.0076 22.8971 14.5082 20.7851 14.9187 18.5824C15.6649 19.0464 16.0632 19.5291 17.0154 19.6041C20.5267 19.8822 22.4877 16.0158 22.0085 12.4494C21.5827 9.28761 18.5002 7.67859 15.2178 8.05351Z" fill="#000000"/>
</g>
</svg>
