<svg width="40" height="34" viewBox="0 0 40 34" fill="none" xmlns="http://www.w3.org/2000/svg">
<g id="08">
<path id="Vector" d="M39.8657 16.8719L33.4447 11.4854V0.704711C33.4447 0.494988 33.2741 0.324384 33.0643 0.324384H28.1646C27.9549 0.324384 27.7843 0.494988 27.7843 0.704711V6.73452L20.2452 0.409146C20.1039 0.290701 19.8974 0.290701 19.7562 0.409146L0.135634 16.8719C-0.0251903 17.0066 -0.0458292 17.2468 0.0889152 17.4076L3.24237 21.1663C3.36734 21.3141 3.58467 21.3456 3.74549 21.238C3.75744 21.2304 3.7683 21.2217 3.77917 21.213L6.05135 19.3071V33.2998C6.05135 33.5095 6.22196 33.6802 6.43168 33.6802H33.5696C33.7794 33.6802 33.95 33.5095 33.95 33.2998V19.3071L36.2211 21.213C36.2406 21.2293 36.2623 21.2445 36.2841 21.2565C36.3417 21.288 36.4036 21.3032 36.4656 21.3032C36.5753 21.3032 36.6829 21.2565 36.7568 21.1674L39.9113 17.4087C39.9765 17.3315 40.008 17.2316 39.9982 17.1316C39.9896 17.0316 39.9407 16.9382 39.8635 16.873L39.8657 16.8719ZM33.1893 32.9195H6.81201V18.6692L20.0017 7.60384L33.1893 18.6692V32.9195ZM36.4199 20.3872L20.2462 6.81602C20.1756 6.75626 20.0887 6.72692 20.0017 6.72692C19.9148 6.72692 19.8279 6.75626 19.7572 6.81602L3.5814 20.3872L0.915853 17.2109L20.0007 1.19697L27.9202 7.84182C28.0332 7.93636 28.1918 7.95809 28.3255 7.89507C28.4591 7.83313 28.545 7.69838 28.545 7.5506V1.08613H32.684V11.6636C32.684 11.7755 32.734 11.8831 32.8198 11.9548L39.0855 17.2109L36.4199 20.3872Z" fill="#34354C"/>
<path id="Vector_2" d="M14.5565 27.3956L13.8187 28.1334C13.6698 28.2823 13.6698 28.5225 13.8187 28.6713C13.8926 28.7452 13.9904 28.7832 14.0871 28.7832C14.1838 28.7832 14.2816 28.7463 14.3555 28.6713L15.0933 27.9335C15.6921 28.0606 16.2995 28.1237 16.9069 28.1237C19.3226 28.1237 21.7317 27.1391 23.5203 25.3505C25.8109 23.0599 26.7835 19.7499 26.0565 16.7138C26.0228 16.5748 25.9142 16.4661 25.7751 16.4324C22.739 15.7054 19.4291 16.678 17.1384 18.9686C14.8999 21.2071 13.9219 24.4171 14.5554 27.3956H14.5565ZM25.3687 17.1213C25.9326 19.839 25.0307 22.7654 22.9835 24.8126C21.0503 26.7458 18.3337 27.6564 15.7497 27.2782L18.8455 24.1824H21.3166C21.5263 24.1824 21.6969 24.0118 21.6969 23.802C21.6969 23.5923 21.5263 23.4217 21.3166 23.4217H19.6062L22.2424 20.7855C22.3913 20.6366 22.3913 20.3965 22.2424 20.2476C22.0935 20.0988 21.8534 20.0988 21.7045 20.2476L19.0683 22.8838V21.1735C19.0683 20.9637 18.8977 20.7931 18.688 20.7931C18.4782 20.7931 18.3076 20.9637 18.3076 21.1735V23.6445L15.2118 26.7404C14.8336 24.1563 15.7442 21.4386 17.6774 19.5065C19.7246 17.4593 22.6521 16.5574 25.3687 17.1213Z" fill="#34354C"/>
</g>
</svg>
