<svg width="39" height="24" viewBox="0 0 39 24" fill="none" xmlns="http://www.w3.org/2000/svg">
<g id="Frame 68">
<path id="Union" fill-rule="evenodd" clip-rule="evenodd" d="M22.7027 20.1914C16.5116 19.0037 15.3489 16.4072 15.3489 11.6563V0.174882C14.833 0.0429119 13.7239 -0.141846 13.4143 0.174882C13.3217 0.26962 13.3052 0.634907 13.2782 1.22842C13.1925 3.11518 13.0021 7.30835 9.93241 12.4481C5.67629 19.5745 9.55547 22.9438 11.0925 23.5336C13.8337 24.5855 17.9932 23.6371 21.4172 22.8563C21.8595 22.7555 22.2896 22.6574 22.7027 22.5668C23.1388 22.6574 23.5927 22.7555 24.0596 22.8563C27.6738 23.6371 32.0644 24.5855 34.9579 23.5336C36.5803 22.9438 40.675 19.5745 36.1825 12.4481C32.9423 7.30835 32.7412 3.11518 32.6508 1.22842C32.6223 0.634907 32.6048 0.26962 32.5071 0.174882C32.1804 -0.141846 31.0096 0.0429119 30.465 0.174882V11.6563C30.465 16.4072 29.2378 19.0037 22.7027 20.1914Z" fill="#34354C"/>
</g>
</svg>
