<svg xmlns="http://www.w3.org/2000/svg" width="53" height="16" viewBox="0 0 53 16"><g><g><path fill="#999" d="M-.001.444l.056-.31h6.652C7.603.17 8.325.45 8.575 1.394l1.448 6.848C8.6 4.658 5.174 1.68 0 .444zm4.262 2.39c2.762 1.74 5.115 4.502 5.942 6.426l.45 1.595 4.2-10.57L19.402.28l-6.759 15.472-4.538.008zm14.19 12.933l2.683-15.5h4.292l-2.684 15.5zm25.57-5.492zm3.565 0L46.591 5.8l-.288-1.336c-.222.584-.595 1.522-.572 1.48l-1.71 4.332zm1.218 5.502s-.394-1.782-.523-2.323l-5.495-.007c-.166.42-.901 2.33-.901 2.33h-4.506l6.372-14.205C44.202.562 44.968.284 45.998.284h3.315l3.472 15.493zm-23.378-.603l.605-3.47.553.249c1.408.577 2.32.81 4.039.81 1.234 0 2.552-.475 2.566-1.512.008-.68-.552-1.163-2.225-1.924-1.628-.742-3.784-1.985-3.757-4.21C27.23 2.104 30.22 0 34.46 0c1.66 0 2.992.338 3.842.652l-.58 3.36-.387-.18a8.026 8.026 0 0 0-3.212-.593c-1.678 0-2.459.688-2.459 1.332-.009.726.91 1.205 2.41 1.923 2.48 1.104 3.625 2.447 3.606 4.21C37.65 13.923 34.717 16 30.208 16c-1.923-.019-3.776-.392-4.782-.826z"/></g></g></svg>