<svg width="19" height="19" viewBox="0 0 19 19" fill="none" xmlns="http://www.w3.org/2000/svg">
<g id="truck">
<path id="Vector" d="M12.6666 2.375H0.791626V12.6667H12.6666V2.375Z" stroke="#D392A0" stroke-width="1.5" stroke-linecap="round" stroke-linejoin="round"/>
<path id="Vector_2" d="M12.6666 6.33398H15.8333L18.2083 8.70898V12.6673H12.6666V6.33398Z" stroke="#D392A0" stroke-width="1.5" stroke-linecap="round" stroke-linejoin="round"/>
<path id="Vector_3" d="M4.35417 16.6243C5.44723 16.6243 6.33333 15.7382 6.33333 14.6452C6.33333 13.5521 5.44723 12.666 4.35417 12.666C3.2611 12.666 2.375 13.5521 2.375 14.6452C2.375 15.7382 3.2611 16.6243 4.35417 16.6243Z" stroke="#D392A0" stroke-width="1.5" stroke-linecap="round" stroke-linejoin="round"/>
<path id="Vector_4" d="M14.6458 16.6243C15.7389 16.6243 16.625 15.7382 16.625 14.6452C16.625 13.5521 15.7389 12.666 14.6458 12.666C13.5527 12.666 12.6666 13.5521 12.6666 14.6452C12.6666 15.7382 13.5527 16.6243 14.6458 16.6243Z" stroke="#D392A0" stroke-width="1.5" stroke-linecap="round" stroke-linejoin="round"/>
</g>
</svg>
