<svg xmlns="http://www.w3.org/2000/svg" width="30" height="21" viewBox="0 0 30 21"><defs><clipPath id="pmjua"><path d="M0 21V-.12h30.094V21z"/></clipPath></defs><g><g><g/><g clip-path="url(#pmjua)"><path d="M6.48 16.052a.97.97 0 0 0 .235-.024 1.196 1.196 0 0 0 .439-.18 1.235 1.235 0 0 0 .552-1.021 1.232 1.232 0 0 0-.99-1.2 1.24 1.24 0 0 0-1.102.334 1.232 1.232 0 0 0-.002 1.732c.224.228.54.36.869.36"/></g><g clip-path="url(#pmjua)"><path d="M27.644 8.422v9.946c0 .101-.082.183-.183.183H2.631a.183.183 0 0 1-.182-.183V8.422zm0-5.775v3.325H2.45V2.647c0-.176.143-.319.318-.319h24.559c.175 0 .318.143.318.319zm-.318-2.768H2.767A2.77 2.77 0 0 0 0 2.647v15.721A2.635 2.635 0 0 0 2.632 21h24.83a2.635 2.635 0 0 0 2.632-2.632V2.647a2.771 2.771 0 0 0-2.768-2.768"/></g></g></g></svg>