<svg width="40" height="42" viewBox="0 0 40 42" fill="none" xmlns="http://www.w3.org/2000/svg">
<g id="05">
<path id="Vector" d="M10.1199 9.85487C10.1763 9.87715 10.234 9.88764 10.2903 9.88764C10.4725 9.88764 10.6442 9.77885 10.7163 9.59929C11.4712 7.7106 13.2761 6.55982 14.4373 6.08535C15.3273 7.42618 16.71 8.3869 18.2868 8.74472C18.7455 8.84957 19.2121 8.90069 19.6761 8.90069C20.937 8.90069 22.1834 8.52321 23.2372 7.80103C24.4522 6.97006 25.9294 6.57554 27.396 6.68826L28.0422 6.73807C28.1811 6.74986 28.3135 6.69744 28.4079 6.59914C28.5035 6.50084 28.5494 6.36452 28.5337 6.22821C28.3541 4.66457 26.5821 2.03403 23.7248 1.1585C21.5884 0.503159 18.237 0.669623 14.3626 5.12987C13.0716 5.59385 10.7923 6.93599 9.86304 9.2572C9.76867 9.49181 9.88401 9.75919 10.1186 9.85356L10.1199 9.85487ZM23.4561 2.03666C25.624 2.70117 27.0369 4.55055 27.4812 5.77603H27.4668C25.7917 5.64497 24.1049 6.09584 22.7182 7.04477C21.4678 7.90065 19.9658 8.18637 18.4886 7.85084C17.195 7.55724 16.0914 6.82458 15.3286 5.76555C17.7481 4.97521 19.8059 5.0735 20.857 5.21375C21.1087 5.24651 21.338 5.07088 21.3721 4.81923C21.4049 4.56758 21.2293 4.3369 20.9776 4.30413C20.0103 4.17569 18.2488 4.08001 16.1373 4.58593C19.2095 1.61462 21.7745 1.52156 23.4561 2.03666Z" fill="#34354C"/>
<path id="Vector_2" d="M4.59885 26.6274C4.68404 26.6995 4.7889 26.7336 4.89244 26.7336C5.02351 26.7336 5.15458 26.6772 5.24502 26.5684C5.40754 26.3744 5.38133 26.0848 5.18604 25.9223C3.62108 24.6194 3.08764 22.5473 2.99589 21.2969C4.54511 20.8643 5.88594 19.8473 6.71429 18.4579C7.60948 16.9572 7.84016 15.1341 7.34735 13.4577C6.93186 12.0461 7.01313 10.5191 7.57541 9.15866L7.82312 8.55968C7.87555 8.43254 7.86769 8.28967 7.80346 8.16909C7.73924 8.04851 7.6239 7.96201 7.4889 7.93579C5.94754 7.62385 2.89628 8.49546 1.1806 10.9425C-0.101249 12.7722 -0.980716 16.0109 2.06531 21.0727C2.10725 22.4437 2.6787 25.0271 4.60016 26.6274H4.59885ZM1.93031 11.4694C3.23181 9.61347 5.4272 8.84148 6.73002 8.79691L6.72477 8.81002C6.08385 10.3632 5.99079 12.1064 6.46526 13.7185C6.89254 15.1721 6.70118 16.6885 5.92526 17.99C5.24632 19.129 4.20827 19.9521 2.96574 20.3519C2.96181 17.8078 3.69186 15.8798 4.14929 14.9243C4.25807 14.6963 4.16239 14.4224 3.93302 14.3123C3.70366 14.2022 3.43103 14.2991 3.32094 14.5285C2.90021 15.4093 2.26453 17.0542 2.09283 19.2194C0.215934 15.3805 0.921081 12.9111 1.93031 11.472V11.4694Z" fill="#34354C"/>
<path id="Vector_3" d="M19.0002 36.2273C17.2793 37.3112 15.1429 37.1814 13.9239 36.8826C13.9921 35.2744 13.4377 33.6845 12.3734 32.4682C11.2226 31.1536 9.56069 30.3711 7.81355 30.3213C6.34297 30.2794 4.91563 29.7315 3.795 28.776L3.30219 28.3553C3.19734 28.2662 3.05971 28.2295 2.92471 28.2531C2.78971 28.2767 2.67306 28.3606 2.60491 28.4798C1.8316 29.8508 1.71758 33.02 3.51583 35.4081C4.53816 36.7659 6.40719 38.1553 9.77826 38.1553C10.8386 38.1553 12.0484 38.0163 13.4259 37.6978C13.9947 37.863 14.806 38.0058 15.7183 38.0058C16.9175 38.0058 18.2872 37.7607 19.4891 37.0045C19.704 36.8695 19.7683 36.5864 19.6333 36.3714C19.4983 36.1565 19.2152 36.0936 19.0002 36.2273ZM4.2485 34.8576C2.88539 33.0462 2.82903 30.7185 3.18947 29.4668L3.19996 29.4759C4.47918 30.5664 6.10836 31.1916 7.78734 31.2401C9.30118 31.2821 10.6853 31.9335 11.6827 33.0738C12.5556 34.0712 13.0183 35.3137 13.0143 36.6178C10.5935 35.8354 8.9853 34.5457 8.21724 33.8156C8.03375 33.6413 7.74277 33.6478 7.56845 33.8313C7.39413 34.0148 7.40069 34.3058 7.58418 34.4801C8.29195 35.1525 9.6603 36.2653 11.6656 37.0975C7.43345 37.6965 5.30491 36.2626 4.24719 34.8576H4.2485Z" fill="#34354C"/>
<path id="Vector_4" d="M33.9602 26.0472C33.8986 25.8021 33.6483 25.6526 33.4032 25.7156C33.1581 25.7772 33.0087 26.0275 33.0703 26.2726C33.5696 28.2452 32.7858 30.2361 32.1253 31.303C30.6167 30.742 28.9337 30.7774 27.4474 31.4144C25.8419 32.1025 24.5836 33.442 23.9977 35.0869C23.5036 36.4736 22.5402 37.6611 21.2872 38.4318L20.7354 38.7712C20.6188 38.8433 20.5401 38.9626 20.5218 39.0989C20.5035 39.2352 20.5454 39.3715 20.6384 39.4725C21.4144 40.3165 23.2061 41.1239 25.2153 41.1239C25.9637 41.1239 26.7423 41.0125 27.509 40.7478C29.6219 40.0216 32.2367 37.918 32.7478 32.0317C33.5198 30.898 34.5749 28.4719 33.9615 26.0485L33.9602 26.0472ZM27.2089 39.8788C25.0646 40.6154 22.8338 39.9495 21.7552 39.2195L21.7669 39.2129C23.1982 38.3335 24.2979 36.9782 24.8615 35.3949C25.37 33.9676 26.4172 32.8535 27.8092 32.2572C29.0281 31.7342 30.3519 31.6792 31.5918 32.0855C30.0989 34.1459 28.3767 35.277 27.4435 35.7816C27.2207 35.9022 27.1381 36.18 27.2587 36.4028C27.3413 36.5562 27.4999 36.6427 27.6624 36.6427C27.7358 36.6427 27.8105 36.6243 27.88 36.5876C28.7385 36.1224 30.2195 35.1643 31.6311 33.5141C30.8932 37.724 28.8721 39.306 27.2089 39.8775V39.8788Z" fill="#34354C"/>
<path id="Vector_5" d="M33.3269 11.9037C32.4867 10.8198 30.5063 9.0661 28.0121 8.89965C27.7591 8.8813 27.5402 9.07397 27.5245 9.32693C27.5075 9.57989 27.6988 9.79878 27.9518 9.81451C29.982 9.94951 31.6335 11.31 32.4435 12.2681C31.4434 13.529 30.9572 15.1411 31.104 16.7506C31.2626 18.4912 32.1473 20.1007 33.5313 21.1676C34.6978 22.0654 35.5288 23.3486 35.8748 24.7799L36.0269 25.4103C36.0596 25.544 36.1488 25.6554 36.272 25.7157C36.3349 25.7458 36.4044 25.7616 36.4725 25.7616C36.538 25.7616 36.6023 25.7471 36.6639 25.7196C38.0951 25.0656 40.0507 22.5674 39.9995 19.5791C39.9615 17.3457 38.7688 14.2092 33.3295 11.9024L33.3269 11.9037ZM36.7674 24.578L36.7648 24.5649C36.3716 22.9318 35.4213 21.4678 34.0897 20.4415C32.8904 19.5175 32.1538 18.1766 32.0162 16.6681C31.8956 15.3469 32.2521 14.0703 33.0228 13.0178C34.5209 15.0743 35.0648 17.0613 35.2562 18.1046C35.2968 18.3261 35.4895 18.4807 35.7071 18.4807C35.7346 18.4807 35.7621 18.4781 35.791 18.4729C36.04 18.427 36.2051 18.1884 36.1593 17.9381C35.9823 16.9787 35.5288 15.2735 34.3951 13.4215C38.1698 15.4242 39.0506 17.8359 39.0808 19.5935C39.1188 21.8597 37.7963 23.7759 36.7687 24.5767L36.7674 24.578Z" fill="#34354C"/>
</g>
</svg>
