<svg width="32" height="40" viewBox="0 0 32 40" fill="none" xmlns="http://www.w3.org/2000/svg">
<g id="06">
<path id="Vector" d="M31.0141 23.9922C30.8343 21.1622 29.8207 18.4221 28.0851 16.069L16.3679 0.185014C16.2819 0.0690532 16.1451 0 16.0005 0C15.8558 0 15.719 0.0690532 15.633 0.185014L3.91577 16.069C2.18026 18.4221 1.16658 21.1622 0.986778 23.9922C0.817397 26.6502 1.37375 29.3342 2.5946 31.7524C3.81675 34.172 5.64606 36.2124 7.8845 37.6534C10.2689 39.1883 13.0741 40 15.9992 40C18.9242 40 21.7295 39.1883 24.1138 37.6534C26.3536 36.2111 28.1829 34.1707 29.4037 31.7524C30.6259 29.3329 31.1809 26.6502 31.0128 23.9922H31.0141ZM28.592 31.342C26.1425 36.1928 21.4363 39.0892 16.0018 39.0892C10.5672 39.0892 5.86104 36.1928 3.41153 31.342C0.962021 26.4912 1.42587 20.9837 4.65193 16.6111L16.0018 1.22475L27.3516 16.6111C30.5777 20.9837 31.0415 26.4912 28.592 31.342Z" fill="#34354C"/>
<path id="Vector_2" d="M24.7917 31.0732C24.5936 30.9181 24.307 30.9533 24.1519 31.1527C22.4503 33.3351 20.2418 34.6901 17.5864 35.18C15.5917 35.5474 14.0776 35.2621 14.062 35.2595C13.8158 35.2113 13.576 35.3716 13.5265 35.6191C13.477 35.8667 13.6386 36.1064 13.8848 36.1546C13.9265 36.1624 14.548 36.2823 15.5213 36.2823C16.1324 36.2823 16.8803 36.2354 17.7128 36.0843C19.705 35.7233 22.5636 34.6719 24.8698 31.7142C25.0249 31.5162 24.9897 31.2295 24.7903 31.0745L24.7917 31.0732Z" fill="#34354C"/>
</g>
</svg>
