<svg width="97" height="14" viewBox="0 0 97 14" fill="none" xmlns="http://www.w3.org/2000/svg">
<g id="a" clip-path="url(#clip0_1_1007)">
<path id="Vector" d="M4.56195 7.37389C3.49492 7.37389 2.61373 7.01943 1.9183 6.31031C1.22267 5.60128 0.875 4.72689 0.875 3.68694C0.875 2.6404 1.22267 1.76419 1.9183 1.05851C2.61373 0.352933 3.49492 0 4.56195 0C5.2035 0 5.79597 0.150437 6.33963 0.450736C6.88309 0.751323 7.30694 1.15813 7.61078 1.67126L6.40547 2.37014C6.22976 2.05281 5.98009 1.80467 5.65587 1.62571C5.33174 1.44685 4.96703 1.35728 4.56195 1.35728C3.87321 1.35728 3.31768 1.57346 2.89575 2.00554C2.47363 2.4378 2.26262 2.99821 2.26262 3.68694C2.26262 4.36908 2.47363 4.92623 2.89575 5.35831C3.31759 5.79048 3.87321 6.00656 4.56195 6.00656C4.96713 6.00656 5.33336 5.91718 5.66094 5.73813C5.98842 5.55927 6.23656 5.31448 6.40537 5.00384L7.61068 5.70272C7.30684 6.21595 6.88472 6.62285 6.3446 6.92325C5.80429 7.22384 5.21011 7.37399 4.56185 7.37399L4.56195 7.37389Z" fill="#737678"/>
<path id="Vector_2" d="M14.1143 6.30533C13.3985 7.0178 12.5274 7.37399 11.5011 7.37399C10.4749 7.37399 9.60525 7.01789 8.89287 6.30533C8.18041 5.59305 7.82422 4.72019 7.82422 3.68704C7.82422 2.65389 8.18031 1.78122 8.89287 1.06875C9.60515 0.356283 10.4746 0 11.501 0C12.5275 0 13.3984 0.356283 14.1142 1.06866C14.8299 1.78113 15.188 2.65389 15.188 3.68694C15.188 4.72 14.83 5.59296 14.1142 6.30523L14.1143 6.30533ZM9.87024 5.35323C10.3091 5.78885 10.8528 6.00656 11.501 6.00656C12.1493 6.00656 12.6927 5.78885 13.1317 5.35323C13.5706 4.91771 13.7902 4.36228 13.7902 3.68704C13.7902 3.0118 13.5707 2.45474 13.1317 2.01578C12.6927 1.57691 12.1492 1.35738 11.501 1.35738C10.8529 1.35738 10.3091 1.57691 9.87024 2.01578C9.43127 2.45474 9.21184 3.01189 9.21184 3.68704C9.21184 4.36219 9.43127 4.91781 9.87024 5.35323Z" fill="#737678"/>
<path id="Vector_3" d="M22.8545 0.142578V7.23282H21.4668V2.63435L19.4673 5.92368L19.3042 5.92942L17.3139 2.65177V7.23292H15.916V0.142578H17.3544L19.3874 3.49056L21.4103 0.142578H22.8545Z" fill="#737678"/>
<path id="Vector_4" d="M30.8564 0.142578V7.23282H29.4687V2.63435L27.4692 5.92368L27.3061 5.92942L25.3158 2.65177V7.23292H23.918V0.142578H25.3563L27.3893 3.49056L29.4123 0.142578H30.8564Z" fill="#737678"/>
<path id="Vector_5" d="M33.3178 5.89583H36.3057V7.23282H31.9199V0.142578H36.2551V1.47957H33.3177V2.98882H36.0019V4.30562H33.3177V5.89592L33.3178 5.89583Z" fill="#737678"/>
<path id="Vector_6" d="M40.9247 7.23292L39.4914 4.77157H38.433V7.23292H37.0352V0.142578H39.8713C40.5262 0.142578 41.0833 0.372157 41.5426 0.831315C42.0017 1.29057 42.2314 1.84427 42.2314 2.49244C42.2314 2.9315 42.1064 3.33821 41.8566 3.71296C41.6068 4.08781 41.2759 4.36964 40.8641 4.55855L42.4339 7.23282L40.9247 7.23292ZM38.433 1.44923V3.54597H39.8713C40.1346 3.54597 40.3607 3.4431 40.5498 3.23696C40.7388 3.03112 40.8335 2.78288 40.8335 2.49253C40.8335 2.20218 40.7388 1.95576 40.5498 1.75317C40.3607 1.55067 40.1346 1.44923 39.8713 1.44923H38.433Z" fill="#737678"/>
<path id="Vector_7" d="M46.2826 7.37399C45.2156 7.37399 44.3344 7.01952 43.639 6.3104C42.9435 5.60138 42.5957 4.72699 42.5957 3.68694C42.5957 2.6404 42.9434 1.76419 43.639 1.05851C44.3344 0.352933 45.2157 0 46.2826 0C46.9242 0 47.5167 0.150437 48.0603 0.450736C48.6038 0.751323 49.0276 1.15813 49.3315 1.67126L48.1262 2.37014C47.9505 2.05281 47.7008 1.80467 47.3766 1.62571C47.0524 1.44685 46.6877 1.35728 46.2826 1.35728C45.5939 1.35728 45.0384 1.57346 44.6165 2.00554C44.1943 2.4378 43.9833 2.99821 43.9833 3.68694C43.9833 4.36908 44.1943 4.92623 44.6165 5.35831C45.0383 5.79048 45.5939 6.00656 46.2826 6.00656C46.6878 6.00656 47.0541 5.91718 47.3816 5.73813C47.7091 5.55927 47.9573 5.31448 48.1261 5.00384L49.3314 5.70272C49.0275 6.21595 48.6054 6.62285 48.0653 6.92325C47.525 7.22384 46.9309 7.37399 46.2826 7.37399Z" fill="#737678"/>
<path id="Vector_8" d="M51.3373 5.89583H54.3253V7.23282H49.9395V0.142578H54.2747V1.47957H51.3372V2.98882H54.0214V4.30562H51.3372V5.89592L51.3373 5.89583Z" fill="#737678"/>
<path id="Vector_9" d="M61.9823 3.85854V4.22315C61.9823 5.10108 61.6682 5.84226 61.0403 6.44649C60.4123 7.05092 59.5716 7.35304 58.5182 7.35304C57.4444 7.35304 56.5565 6.99857 55.8542 6.28945C55.1518 5.58043 54.8008 4.71283 54.8008 3.68628C54.8008 2.65974 55.1518 1.79214 55.8542 1.08312C56.5565 0.374187 57.4444 0.0195312 58.5182 0.0195312C59.1731 0.0195312 59.7742 0.178294 60.3211 0.495627C60.868 0.813057 61.29 1.23499 61.5872 1.7618L60.9592 2.12641C60.7363 1.69434 60.4054 1.35002 59.9666 1.09326C59.5276 0.836694 59.0449 0.708363 58.5182 0.708363C57.6334 0.708363 56.9109 0.995457 56.3505 1.56936C55.7899 2.14335 55.5098 2.84903 55.5098 3.68628C55.5098 4.52354 55.7899 5.22941 56.3505 5.80331C56.9109 6.3774 57.6334 6.6643 58.5182 6.6643C59.3148 6.6643 59.953 6.46343 60.4325 6.0616C60.9119 5.65986 61.1853 5.14835 61.2529 4.52708H58.437V3.85854H61.9823Z" fill="#737678"/>
<path id="Vector_10" d="M67.3007 7.23292L65.6462 4.39682H63.6542V7.23292H62.9453V0.142578H65.7813C66.3689 0.142578 66.8703 0.350242 67.2855 0.765474C67.7007 1.1808 67.9085 1.68216 67.9085 2.26965C67.9085 2.74919 67.7649 3.1762 67.4779 3.55095C67.191 3.9257 66.8247 4.17719 66.3791 4.30533L68.111 7.23282H67.3006L67.3007 7.23292ZM63.6541 0.811122V3.72828H65.7812C66.1729 3.72828 66.5072 3.58492 66.784 3.29783C67.0608 3.01093 67.1993 2.66814 67.1993 2.26975C67.1993 1.86456 67.0608 1.52015 66.784 1.23659C66.5071 0.953042 66.1729 0.811218 65.7812 0.811218L63.6541 0.811122Z" fill="#737678"/>
<path id="Vector_11" d="M74.7347 6.28438C74.0257 6.99685 73.158 7.35304 72.1317 7.35304C71.1054 7.35304 70.2376 6.99695 69.5285 6.28438C68.8194 5.5721 68.4648 4.70604 68.4648 3.68628C68.4648 2.66653 68.8194 1.80075 69.5285 1.08819C70.2375 0.375814 71.1051 0.0195312 72.1317 0.0195312C73.1582 0.0195312 74.0257 0.375814 74.7347 1.08819C75.4438 1.80066 75.7984 2.66672 75.7984 3.68628C75.7984 4.70585 75.4438 5.5721 74.7347 6.28438ZM70.0248 5.79824C70.5921 6.37558 71.2942 6.6643 72.1317 6.6643C72.9691 6.6643 73.6712 6.37558 74.2385 5.79824C74.8058 5.22089 75.0893 4.51694 75.0893 3.68638C75.0893 2.85582 74.8058 2.15187 74.2385 1.57452C73.6712 0.997179 72.9689 0.708555 72.1317 0.708555C71.2945 0.708555 70.5921 0.997179 70.0248 1.57452C69.4575 2.15187 69.174 2.85582 69.174 3.68638C69.174 4.51694 69.4575 5.22089 70.0248 5.79824Z" fill="#737678"/>
<path id="Vector_12" d="M77.9832 7.23292L75.9512 0.142578H76.6999L78.4525 6.26924L80.2965 0.142578H81.1297L82.9761 6.27747L84.7229 0.142578H85.4401L83.4164 7.23282H82.5655L80.7129 1.07802L78.8606 7.23282L77.9832 7.23292Z" fill="#737678"/>
<path id="Vector_13" d="M90.7891 0.142578V0.811027H88.6115V7.23282H87.9024V0.811122H85.7246V0.142578H90.7891Z" fill="#737678"/>
<path id="Vector_14" d="M96.1068 0.142578H96.8157V7.23282H96.1068V3.92063H92.2578V7.23282H91.5488V0.142578H92.2578V3.25218H96.1068V0.142578Z" fill="#737678"/>
<g id="Group">
<g id="Group_2">
<path id="Vector_15" d="M9.08664 13.216H8.37733L8.21187 12.3718H7.56227L7.39681 13.216H6.6875L7.59596 9.14844H8.17809L9.08664 13.216ZM8.4937 13.075H8.90884L8.06315 9.29084H7.70773L6.86205 13.075H7.27719L7.44265 12.2309H8.32508L8.4936 13.075H8.4937ZM8.25168 11.8433H7.51787L7.82123 10.2791H7.94994L8.25178 11.8433H8.25168ZM7.68945 11.7008H8.08009L7.88554 10.6927L7.68945 11.7008Z" fill="#737678"/>
<path id="Vector_16" d="M10.6072 13.216H9.75391V9.14844H10.6578C10.9994 9.14844 11.2645 9.245 11.4453 9.43496C11.6245 9.62492 11.7149 9.89306 11.7149 10.2332V12.0701C11.7149 12.4561 11.6184 12.7472 11.4269 12.9341C11.2354 13.121 10.9596 13.2161 10.6072 13.2161V13.216ZM9.8964 13.075H10.6088C10.9229 13.075 11.1649 12.9939 11.3288 12.833C11.4927 12.6737 11.5754 12.4162 11.5754 12.07V10.2331C11.5754 9.92971 11.4973 9.69382 11.3441 9.53142C11.1909 9.37055 10.9611 9.2894 10.6593 9.2894H9.89784V13.0751H9.8963L9.8964 13.075ZM10.6471 12.6874H10.3178V9.67698H10.6471C10.8356 9.67698 10.9689 9.72904 11.0454 9.83325C11.1174 9.92981 11.1527 10.0646 11.1527 10.2331V12.1251C11.1527 12.3135 11.1144 12.4499 11.0363 12.5434C10.9582 12.6384 10.8264 12.6874 10.6471 12.6874ZM10.4587 12.5449H10.6471C10.782 12.5449 10.8769 12.5143 10.9291 12.4514C10.9842 12.3856 11.0118 12.2753 11.0118 12.1251V10.2331C11.0118 10.0952 10.9842 9.98799 10.9321 9.91746C10.8847 9.85315 10.7881 9.81937 10.6471 9.81937H10.4587V12.5448V12.5449Z" fill="#737678"/>
<path id="Vector_17" d="M14.5341 9.21875L13.7282 13.1454H13.2318L12.4336 9.21875H13.0296L13.477 11.9595H13.4877L13.9397 9.21875H14.5341Z" fill="#737678"/>
<path id="Vector_18" d="M15.4238 13.1454V9.21875H17.0999V9.74882H15.9861V10.9009H16.9574V11.431H15.9861V12.5831H17.0999V13.1453H15.4238V13.1454Z" fill="#737678"/>
<path id="Vector_19" d="M17.9922 13.1454V9.21875H18.533L19.3817 11.5842H19.3924V9.21875H19.9547V13.1454H19.4246L18.5636 10.7846H18.5529V13.1454H17.9922Z" fill="#737678"/>
<path id="Vector_20" d="M21.3835 13.1453V9.74882H20.7324V9.21875H22.5969V9.74882H21.9458V13.1453H21.3835Z" fill="#737678"/>
<path id="Vector_21" d="M25.216 9.21875V12.2629C25.216 12.3916 25.1931 12.5095 25.1471 12.6183C25.1012 12.7271 25.0353 12.8236 24.9511 12.9079C24.8668 12.9922 24.7688 13.058 24.6584 13.107C24.5481 13.1545 24.4302 13.179 24.3061 13.179C24.1804 13.179 24.064 13.1545 23.9552 13.107C23.8464 13.0596 23.75 12.9936 23.6656 12.9079C23.5813 12.8236 23.5155 12.7271 23.4665 12.6183C23.419 12.5095 23.3945 12.3916 23.3945 12.2629V9.21875H23.9568V12.2078C23.9568 12.3472 23.9904 12.4498 24.0564 12.5173C24.1222 12.5831 24.205 12.6169 24.3045 12.6169C24.404 12.6169 24.4868 12.5832 24.5527 12.5173C24.6185 12.4514 24.6523 12.3487 24.6523 12.2078V9.21875H25.216Z" fill="#737678"/>
<path id="Vector_22" d="M26.2969 13.1454V9.21875H27.2007C27.8626 9.21875 28.1935 9.60326 28.1935 10.3709C28.1935 10.6022 28.1583 10.7999 28.0862 10.9607C28.0143 11.1231 27.8886 11.2534 27.7078 11.3529L28.3146 13.1454H27.7186L27.1946 11.4694H26.8576V13.1454H26.2969ZM26.8591 9.74891V10.973H27.1793C27.2789 10.973 27.357 10.9592 27.4167 10.9316C27.4749 10.9041 27.5209 10.8643 27.5546 10.8136C27.5837 10.7616 27.6036 10.6987 27.6159 10.6237C27.6266 10.5487 27.6327 10.4613 27.6327 10.3617C27.6327 10.262 27.6266 10.1748 27.6159 10.0996C27.6052 10.0245 27.5822 9.95868 27.55 9.90356C27.4796 9.80088 27.3478 9.74882 27.1533 9.74882L26.8591 9.74891Z" fill="#737678"/>
<path id="Vector_23" d="M29.1973 13.1454V9.21875H30.8748V9.74882H29.761V10.9009H30.7324V11.431H29.761V12.5831H30.8748V13.1453H29.1973V13.1454Z" fill="#737678"/>
<path id="Vector_24" d="M33.6103 10.3498H33.0481V10.2226C33.0481 10.0939 33.0175 9.98213 32.9577 9.88864C32.8964 9.79514 32.7953 9.74768 32.6512 9.74768C32.5747 9.74768 32.5118 9.76299 32.4644 9.79208C32.4169 9.82117 32.3785 9.85792 32.3479 9.90242C32.3188 9.94988 32.2989 10.0051 32.2866 10.0648C32.2759 10.1261 32.2698 10.1889 32.2698 10.2548C32.2698 10.3313 32.2729 10.3957 32.2775 10.4478C32.2836 10.4999 32.2974 10.5459 32.3188 10.5857C32.3402 10.6255 32.3724 10.6607 32.4154 10.6899C32.4582 10.719 32.515 10.7481 32.5885 10.7788L33.0205 10.9504C33.1462 10.9979 33.2473 11.0546 33.3239 11.1189C33.4005 11.1832 33.4618 11.2584 33.5062 11.3426C33.546 11.4315 33.5736 11.531 33.589 11.6429C33.6043 11.7547 33.6104 11.8834 33.6104 12.0259C33.6104 12.1913 33.5936 12.3445 33.5614 12.487C33.5277 12.628 33.4756 12.749 33.4021 12.8486C33.3255 12.9513 33.2244 13.0324 33.0987 13.0906C32.9731 13.1488 32.8214 13.1795 32.6406 13.1795C32.5043 13.1795 32.3771 13.155 32.2607 13.1075C32.1427 13.0601 32.0417 12.9941 31.9573 12.9084C31.873 12.8241 31.8057 12.7261 31.7567 12.6127C31.7077 12.5008 31.6816 12.3783 31.6816 12.2465V12.0367H32.2439V12.2128C32.2439 12.3155 32.2745 12.4089 32.3343 12.4917C32.3955 12.5744 32.4967 12.6158 32.6407 12.6158C32.7358 12.6158 32.8108 12.6021 32.8644 12.5745C32.918 12.5469 32.9594 12.5071 32.9885 12.4565C33.0176 12.4044 33.036 12.3431 33.0405 12.2711C33.0467 12.1992 33.0482 12.1194 33.0482 12.0306C33.0482 11.928 33.0451 11.8437 33.0375 11.7763C33.0298 11.7104 33.016 11.6567 32.9931 11.6169C32.9671 11.5771 32.9334 11.5434 32.8904 11.5173C32.8475 11.4913 32.7923 11.4637 32.7219 11.4346L32.319 11.2692C32.077 11.1696 31.913 11.0379 31.8303 10.8755C31.7475 10.7115 31.7061 10.5063 31.7061 10.2611C31.7061 10.114 31.726 9.97457 31.7674 9.84127C31.8072 9.70949 31.8685 9.59466 31.9497 9.49963C32.0262 9.4046 32.1259 9.32804 32.2454 9.27139C32.3649 9.21473 32.5074 9.18555 32.6729 9.18555C32.8123 9.18555 32.941 9.21158 33.0559 9.26211C33.1723 9.31416 33.2718 9.38163 33.3562 9.46585C33.5247 9.64202 33.6105 9.84423 33.6105 10.0726V10.3499L33.6103 10.3498Z" fill="#737678"/>
</g>
<g id="Group_3">
<path id="Vector_25" d="M2.58969 11.2042C2.85314 11.2042 3.07803 11.304 3.26455 11.5035C3.45097 11.703 3.54427 11.9476 3.54427 12.2371C3.54427 12.5266 3.45097 12.7712 3.26455 12.9707C3.07803 13.1703 2.85305 13.2701 2.58969 13.2701C2.3158 13.2701 2.1045 13.1749 1.95588 12.9844V13.2153H1.45117V10.4766H1.95588V11.4899C2.1045 11.2996 2.3158 11.2042 2.58969 11.2042ZM2.10842 12.6343C2.21015 12.7374 2.33934 12.7888 2.49581 12.7888C2.65227 12.7888 2.78204 12.7373 2.8852 12.6343C2.98817 12.5313 3.03975 12.3989 3.03975 12.2371C3.03975 12.0753 2.98827 11.943 2.8852 11.84C2.78204 11.7369 2.65237 11.6854 2.49581 11.6854C2.33925 11.6854 2.21025 11.7369 2.10842 11.84C2.0067 11.943 1.95588 12.0754 1.95588 12.2371C1.95588 12.3988 2.0067 12.5312 2.10842 12.6343Z" fill="#737678"/>
<path id="Vector_26" d="M5.00037 11.2598H5.5403L4.82706 13.2193C4.72533 13.4985 4.5905 13.7016 4.42245 13.8282C4.25441 13.9548 4.04531 14.0116 3.79534 13.9985V13.529C3.93085 13.5316 4.03851 13.5029 4.11813 13.4429C4.19766 13.3829 4.26091 13.2865 4.3079 13.1534L3.50586 11.2598H4.05756L4.56772 12.5747L5.00037 11.2598Z" fill="#737678"/>
</g>
</g>
</g>
<defs>
<clipPath id="clip0_1_1007">
<rect width="95.9411" height="14" fill="white" transform="translate(0.875)"/>
</clipPath>
</defs>
</svg>
