<svg xmlns="http://www.w3.org/2000/svg" width="30" height="40" viewBox="0 0 30 40"><defs><clipPath id="7zz0a"><path d="M0 40.09V0h30v40.09z"/></clipPath></defs><g><g><g/><g clip-path="url(#7zz0a)"><path d="M16.538 38.181a.376.376 0 0 0-.05-.004l.022-.023c.037-.015.148.045.028.027zm-2.345.583l.046.046c-.023.145-.038.138-.043-.021 0-.009-.002-.017-.003-.025zm-.61-.61zm.027.026l-.025.001c-.146.016-.048-.046-.001-.027l.026.026zm6.749-5.876c-1.852 1.649-3.221 3.643-4.231 5.878h-1.803l-.344.001-.09-.199a15.551 15.551 0 0 0-1.515-2.703 17.12 17.12 0 0 0-2.575-2.918c-1.903-1.713-4.118-3.016-6.4-4.157v-2.268l.172.092c6.61 3.526 14.508 3.827 21.356.783.6-.267 1.184-.565 1.764-.874v2.267c-2.256 1.128-4.443 2.415-6.334 4.098m6.799-8.75c-1.17.632-2.33 1.292-3.56 1.803a22.104 22.104 0 0 1-6.283 1.592 22.509 22.509 0 0 1-12.795-2.54l-1.584-.855c-.62-.334-1.412.081-1.412.811v4.422c0 .311.174.668.465.81 2.268 1.11 4.524 2.346 6.419 4.034.918.819 1.758 1.73 2.45 2.747.35.512.668 1.045.953 1.595.142.273.24.623.42.869 0 .001.153.224.137.155.075.214.069.424.229.631.491.637 1.64.43 2.345.43.544 0 1.099.035 1.642 0 .684-.044.95-.452 1.2-1.037.276-.642.597-1.268.956-1.868a14.63 14.63 0 0 1 2.235-2.852c2.035-2.03 4.568-3.45 7.13-4.704.291-.142.465-.499.465-.81v-4.422c0-.73-.792-1.145-1.412-.81"/></g><g clip-path="url(#7zz0a)"><path d="M11.222 17.288c-.889.825-2.042 1.517-3.277 1.598-2.637.174-5.292-2.232-5.89-4.71-.413-1.71-.537-5.83 2.076-5.756.664.02 1.554.33 2.28.652a18.187 18.187 0 0 1 2.906 1.654c.984.678 1.917 1.455 2.695 2.365.282.329.536.692.72 1.085.024.05.051.118.078.199.01.06.027.12.05.177l.013.048.01.046.006.057c.002.055.002.11 0 .166-.06.244-.156.481-.276.71a.829.829 0 0 0-.14.247c-.336.548-.8 1.044-1.25 1.462m16.782-3.853c-.296 2.551-2.515 4.973-5.074 5.407-1.416.24-2.82-.37-3.894-1.266-.592-.494-1.22-1.123-1.625-1.826a.928.928 0 0 0-.069-.121 3.297 3.297 0 0 1-.298-.76c.01.048.012-.273-.003-.18.007-.04.015-.082.025-.124a.85.85 0 0 0 .059-.201 2.57 2.57 0 0 1 .047-.13c.076-.193.37-.671.579-.94.61-.783 1.383-1.465 2.17-2.066 1.58-1.21 3.532-2.44 5.532-2.776.868-.145 1.776.248 2.199 1.22.5 1.148.494 2.542.352 3.763m.215-6.105L25.572.692c-.189-.474-.625-.795-1.154-.655-.45.118-.844.684-.656 1.154l2.136 5.356c-.862.003-1.727.253-2.522.566a18.442 18.442 0 0 0-3.643 1.948c-1.222.835-2.416 1.789-3.344 2.952-.32.402-.617.832-.836 1.289-.378.05-.757.052-1.136.005-.665-1.475-2.18-2.725-3.334-3.606a19.22 19.22 0 0 0-3.53-2.16c-1.043-.487-2.164-.933-3.328-.994-.065-.003-.126-.002-.189-.003l2.135-5.353C6.361.717 5.964.165 5.516.037c-.533-.153-.968.187-1.155.655L1.708 7.344C.09 8.746-.18 11.69.092 13.77c.439 3.348 3.333 6.443 6.72 6.929 1.92.275 3.72-.448 5.208-1.631.702-.558 1.406-1.265 1.933-2.063.409-.09.817-.142 1.246-.122.274.013.543.093.812.159.412.61.922 1.164 1.436 1.631 1.218 1.108 2.705 1.918 4.362 2.075 3.43.326 6.805-2.6 7.788-5.742.697-2.23.638-6.036-1.377-7.677"/></g></g></g></svg>