<svg width="230" height="47" viewBox="0 0 230 47" fill="none" xmlns="http://www.w3.org/2000/svg">
<g id="logo">
<g id="Group">
<path id="Vector" d="M0.857882 22.3672C0.382616 22.3689 0 22.7539 0 23.2282C0 23.7026 0.386219 24.0876 0.85977 24.0858C1.33315 24.0858 1.71576 23.7009 1.71576 23.2265C1.71576 22.7522 1.3316 22.3672 0.857882 22.3672Z" fill="url(#paint0_linear_1_33699)"/>
<path id="Vector_2" d="M7.36619 8.28527C7.58752 8.28527 7.80697 8.20106 7.97529 8.03263C8.30986 7.6956 8.30814 7.15268 7.97357 6.81754C7.63728 6.48241 7.09338 6.48241 6.7607 6.81926C6.42612 7.1544 6.42612 7.69921 6.7607 8.03435C6.92867 8.20106 7.14846 8.28527 7.36619 8.28527Z" fill="url(#paint1_linear_1_33699)"/>
<path id="Vector_3" d="M23.1216 1.71865C23.5949 1.71694 23.9794 1.33196 23.9794 0.857611C23.9777 0.383264 23.5934 -0.00171292 23.1198 5.7321e-06H23.1181C22.6463 5.7321e-06 22.262 0.384983 22.2637 0.861049C22.2637 1.3354 22.6478 1.71865 23.1216 1.71865Z" fill="url(#paint2_linear_1_33699)"/>
<path id="Vector_4" d="M6.79656 38.4043C6.4601 38.7395 6.46199 39.2843 6.79656 39.6193C6.96471 39.7877 7.18261 39.8703 7.40205 39.8703C7.6215 39.8703 7.84146 39.7879 8.00926 39.6193C8.34401 39.2826 8.34401 38.7395 8.00926 38.4043C7.67315 38.0675 7.13096 38.0692 6.79656 38.4043Z" fill="url(#paint3_linear_1_33699)"/>
<path id="Vector_5" d="M38.2922 7.98044C38.4588 8.14732 38.6784 8.23153 38.8965 8.23153C39.1179 8.23153 39.3371 8.1456 39.5039 7.977C39.8383 7.64186 39.8383 7.09705 39.502 6.76191C39.1676 6.42695 38.6237 6.4285 38.2891 6.76552C37.9546 7.10066 37.9563 7.64547 38.2909 7.98044H38.2924H38.2922Z" fill="url(#paint4_linear_1_33699)"/>
<path id="Vector_6" d="M45.4576 22.291C44.9823 22.2929 44.5997 22.6777 44.6016 23.1522V23.2021C44.6016 23.6764 44.9857 24.0614 45.4595 24.0614C45.9332 24.0614 46.3173 23.6764 46.3173 23.2021V23.1486C46.3154 22.6743 45.9313 22.291 45.4576 22.291Z" fill="url(#paint5_linear_1_33699)"/>
<path id="Vector_7" d="M23.1706 44.6856C22.6988 44.6856 22.3145 45.0705 22.3145 45.5449C22.3145 46.0192 22.6988 46.4042 23.1723 46.4042C23.6459 46.4042 24.0302 46.0175 24.0302 45.5449C24.0302 45.0688 23.6459 44.6838 23.1706 44.6856Z" fill="url(#paint6_linear_1_33699)"/>
<path id="Vector_8" d="M38.3249 38.3875C37.9904 38.7228 37.9904 39.2657 38.3267 39.6026C38.4929 39.7695 38.7127 39.8537 38.9323 39.8537C39.1519 39.8537 39.3716 39.7695 39.5397 39.6009C39.8743 39.2657 39.8743 38.7228 39.5397 38.3858C39.2034 38.0508 38.6612 38.0508 38.3249 38.3875Z" fill="url(#paint7_linear_1_33699)"/>
<path id="Vector_9" d="M38.1323 25.0134C38.8475 24.534 39.6578 23.9904 40.7672 23.5582L42.6031 22.8436L40.7346 22.2201C39.6269 21.8505 38.8114 21.314 38.0917 20.8403C37.8259 20.6652 37.5745 20.4997 37.3252 20.3536C37.1868 20.2584 37.0425 20.1757 36.8927 20.1047C36.9299 20.0528 36.9665 19.9994 37.0016 19.9439C37.177 19.7119 37.3489 19.4618 37.5301 19.1978C38.017 18.487 38.57 17.6814 39.4413 16.8692L40.8842 15.5247L38.9175 15.6378C38.7627 15.6466 38.6052 15.651 38.4492 15.651C37.4918 15.651 36.6734 15.4828 35.9524 15.3341C35.6407 15.2704 35.3461 15.2095 35.0603 15.1662C34.9993 15.1525 34.9379 15.1406 34.876 15.1303C34.9446 14.9472 34.9997 14.7506 35.0398 14.541C35.1162 14.261 35.1822 13.9654 35.2522 13.6531C35.44 12.8111 35.653 11.8568 36.1602 10.7768L36.9982 8.99041L35.2154 9.83031C34.1595 10.327 33.1993 10.5011 32.3521 10.6554C32.0391 10.7122 31.7425 10.7663 31.4608 10.8326C31.2712 10.8634 31.0869 10.9107 30.9083 10.9742C30.9012 10.9282 30.8932 10.8825 30.8848 10.8361C30.8523 10.5468 30.8048 10.2474 30.7545 9.93068C30.6185 9.07892 30.4648 8.11373 30.538 6.92305L30.6586 4.9521L29.3104 6.39267C28.5129 7.24512 27.6847 7.76261 26.9548 8.21856C26.6847 8.38751 26.4288 8.54751 26.1915 8.71354C26.0815 8.77936 25.9775 8.85068 25.8777 8.92802C25.8221 8.8182 25.7591 8.70907 25.6891 8.59976C25.5506 8.34489 25.3945 8.08571 25.2289 7.81228C24.7835 7.07343 24.2784 6.23645 23.8995 5.10472L23.2723 3.23242L22.5631 5.07533C22.1436 6.16547 21.5709 6.95639 21.0653 7.6545C20.8784 7.91282 20.7017 8.15721 20.5439 8.4004C20.4071 8.58172 20.2915 8.77472 20.198 8.97769C20.1151 8.92046 20.0284 8.86546 19.9372 8.81219C19.6985 8.64926 19.4415 8.4908 19.1709 8.32323C18.4376 7.86985 17.6058 7.35598 16.7522 6.52174L15.341 5.14356L15.5501 7.10677C15.6737 8.26806 15.5244 9.23429 15.3926 10.0864C15.3437 10.4021 15.2977 10.7006 15.2679 10.9895C15.2588 11.0442 15.2507 11.099 15.244 11.1538C15.063 11.0964 14.87 11.0531 14.6653 11.0232C14.3827 10.9605 14.085 10.9088 13.7712 10.8543C12.9221 10.7072 11.9602 10.5399 10.8584 10.0845L9.03708 9.33105L9.95999 11.0753C10.5063 12.1074 10.7263 13.0595 10.9206 13.8994C10.9927 14.2106 11.0605 14.505 11.1406 14.7841C11.1835 14.9845 11.2442 15.1784 11.3227 15.364C11.2626 15.3752 11.2027 15.3888 11.1413 15.4034C10.8561 15.4505 10.5609 15.513 10.2486 15.5795C9.43325 15.7528 8.50931 15.9492 7.36816 15.9492L7.25938 15.9484L5.28831 15.927L6.79252 17.2031C7.68231 17.9575 8.23959 18.7592 8.73185 19.4664C8.91406 19.729 9.08649 19.9777 9.26511 20.207C9.30491 20.2672 9.34695 20.3252 9.39018 20.3816C9.24263 20.4586 9.0961 20.549 8.95009 20.6526C8.70302 20.8027 8.45269 20.9708 8.18829 21.1485C7.4723 21.6288 6.66092 22.1733 5.54962 22.6054L3.71289 23.3202L5.5817 23.944C6.68768 24.3132 7.50284 24.8496 8.22192 25.3227C8.48907 25.4984 8.74163 25.6646 8.99196 25.811C9.13025 25.906 9.27403 25.9887 9.42296 26.0597C9.38607 26.1118 9.34918 26.165 9.31418 26.22C9.13934 26.4514 8.96862 26.7002 8.78795 26.9637C8.30033 27.675 7.747 28.4813 6.87453 29.2944L5.43123 30.6388L7.39887 30.5259C7.55277 30.5172 7.70959 30.5129 7.86521 30.5129C8.82295 30.5129 9.64069 30.6811 10.3622 30.8298C10.6743 30.8939 10.9699 30.9546 11.2559 30.9982C11.3172 31.0116 11.3789 31.0238 11.4405 31.0336C11.3722 31.2165 11.3168 31.4133 11.2763 31.6223C11.2003 31.9019 11.1339 32.1968 11.0649 32.5082C10.8771 33.3505 10.664 34.3056 10.1564 35.3868L9.31744 37.1728L11.1011 36.3341C12.1574 35.8371 13.1179 35.6626 13.9653 35.5086C14.2784 35.4519 14.5742 35.3978 14.8556 35.3318C15.0457 35.3007 15.23 35.2534 15.4082 35.1898C15.4153 35.2357 15.4226 35.2816 15.4317 35.328C15.464 35.6162 15.5115 35.9151 15.5621 36.2306C15.6977 37.0829 15.8514 38.049 15.7785 39.241L15.6574 41.2115L17.0051 39.7716C17.804 38.9181 18.6327 38.4008 19.3632 37.944C19.633 37.7755 19.8884 37.616 20.1252 37.4505C20.204 37.4029 20.2807 37.3522 20.3551 37.2986C20.4289 37.4664 20.5197 37.6343 20.6269 37.8015C20.7647 38.0562 20.921 38.3147 21.086 38.5883C21.5318 39.3268 22.0371 40.1641 22.4166 41.2967L23.0437 43.169L23.7529 41.3263C24.1725 40.2351 24.7454 39.4438 25.2514 38.7459C25.4384 38.4874 25.615 38.2428 25.773 37.9996C25.9149 37.8087 26.017 37.609 26.0947 37.4069C26.1846 37.4703 26.2795 37.531 26.3797 37.5884C26.6192 37.753 26.8769 37.9123 27.1497 38.0809C27.8817 38.5338 28.7116 39.047 29.5638 39.8799L30.9755 41.2582L30.7659 39.2945C30.6422 38.1311 30.7916 37.1651 30.9227 36.3125C30.9712 35.9978 31.0177 35.6998 31.0476 35.4117C31.08 35.223 31.0955 35.0333 31.0938 34.8437C31.1969 34.8678 31.3038 34.8875 31.4132 34.9035C31.697 34.9666 31.9957 35.0185 32.3116 35.0733C33.159 35.2206 34.1202 35.3878 35.2207 35.8424L37.042 36.5948L36.1187 34.8511C35.5717 33.8178 35.3512 32.8652 35.157 32.0248C35.0853 31.7144 35.0179 31.421 34.9376 31.1431C34.9148 31.0352 34.8866 30.929 34.8535 30.8245C34.959 30.8081 35.0656 30.7868 35.1738 30.7609C35.4604 30.7134 35.7572 30.6505 36.0703 30.584C36.8863 30.4108 37.8106 30.2147 38.9537 30.2147L39.057 30.2152L41.0275 30.2357L39.5228 28.9604C38.6316 28.2047 38.0737 27.4021 37.5812 26.6944C37.3997 26.4331 37.2278 26.1857 37.0505 25.9574C37.0104 25.8974 36.9685 25.839 36.9253 25.7823C37.0727 25.7055 37.2195 25.6149 37.3654 25.5113C37.6138 25.3604 37.8657 25.1916 38.1318 25.0132L38.1323 25.0134ZM30.5337 23.3061C31.6895 23.735 32.5271 24.2783 33.2659 24.7578C33.4198 24.8573 33.5675 24.9524 33.713 25.0436C33.4709 25.0871 33.221 25.14 32.9562 25.1983C32.1011 25.3863 31.1167 25.6029 29.9058 25.5487L28.9212 25.5049L29.6515 26.1678C30.565 26.9965 31.1402 27.8129 31.6481 28.5332C31.7667 28.7014 31.8806 28.8606 31.994 29.0151C31.8085 28.9802 31.6184 28.9468 31.4184 28.9133C30.5478 28.7684 29.5612 28.6041 28.4566 28.1033L27.5588 27.6964L27.9913 28.5835C28.5314 29.6927 28.7631 30.6648 28.9672 31.5228C29.0408 31.8304 29.1103 32.1212 29.1884 32.3927C29.0041 32.2731 28.8121 32.1535 28.6076 32.0291C27.8537 31.5702 26.9998 31.0499 26.1604 30.1734L25.4786 29.4612L25.5499 30.4457C25.6393 31.6776 25.4933 32.6669 25.3643 33.5394C25.3343 33.7427 25.3073 33.9364 25.2828 34.1258C25.2342 34.0456 25.1869 33.9665 25.1364 33.8838C24.6758 33.1287 24.154 32.2728 23.8054 31.1037L23.5224 30.158L23.1377 31.067C22.6561 32.2045 22.0764 33.0178 21.5651 33.7352C21.4424 33.9074 21.3268 34.0722 21.2163 34.2343C21.1847 33.9667 21.1392 33.6872 21.0902 33.3914C20.9453 32.5196 20.7803 31.531 20.8956 30.3209L20.9886 29.3382L20.2911 30.0353C19.4204 30.9058 18.5788 31.4399 17.836 31.9112C17.5936 32.065 17.3656 32.2112 17.1518 32.3584C17.1842 32.2157 17.2163 32.0689 17.2489 31.918C17.4352 31.0536 17.6471 30.0738 18.2 28.9914L18.6493 28.1126L17.7436 28.5026C16.6139 28.9891 15.6347 29.1739 14.7708 29.3371C14.5891 29.3713 14.4153 29.405 14.2458 29.4399C14.4115 29.2192 14.5749 28.9785 14.7475 28.7234C15.2421 27.9913 15.8029 27.1615 16.7186 26.3639L17.462 25.7161L16.4766 25.7398C15.2481 25.7691 14.265 25.5742 13.4063 25.4037C13.1475 25.3519 12.9027 25.3054 12.6654 25.266C12.7987 25.178 12.9341 25.0864 13.0746 24.9909C13.8048 24.4938 14.6322 23.9304 15.7775 23.5285L16.7072 23.2023L15.7835 22.8592C14.6308 22.4309 13.7947 21.8885 13.0564 21.4102C12.9006 21.3093 12.7509 21.2133 12.6033 21.121C12.8449 21.0773 13.0949 21.0246 13.3593 20.9665C14.2144 20.7785 15.1963 20.5622 16.4118 20.6159L17.3958 20.6592L16.6654 19.9966C15.7553 19.1703 15.1805 18.356 14.6735 17.6374C14.4942 17.3841 14.3251 17.1451 14.1549 16.9252C14.3184 16.9551 14.486 16.9838 14.6605 17.0131C15.5314 17.1586 16.5183 17.3231 17.6247 17.8246L18.5225 18.2316L18.0898 17.3442C17.5498 16.2366 17.3184 15.2655 17.1139 14.4086C17.0739 14.2405 17.0348 14.0786 16.995 13.9209C17.2158 14.0699 17.4541 14.2163 17.7072 14.3703C18.4616 14.8299 19.3162 15.3506 20.1566 16.2282L20.8385 16.9405L20.7671 15.9563C20.6782 14.7267 20.8235 13.7389 20.9522 12.8672C20.9814 12.6688 21.0081 12.4791 21.0323 12.2938C21.0788 12.3706 21.1245 12.4466 21.173 12.5258C21.6346 13.2793 22.1579 14.1331 22.5046 15.2973L22.787 16.2435L23.1721 15.3346C23.6527 14.1998 24.2333 13.3877 24.7444 12.6712C24.8801 12.4817 25.0067 12.301 25.127 12.1232C25.1562 12.3325 25.1896 12.5472 25.2276 12.7733C25.3724 13.6452 25.5372 14.6334 25.4219 15.8433L25.3284 16.8261L26.0266 16.129C26.898 15.258 27.7398 14.7235 28.4834 14.2521C28.725 14.0986 28.9525 13.9527 29.1654 13.8059C29.1326 13.9496 29.1007 14.097 29.0679 14.2491C28.8816 15.1128 28.6699 16.0919 28.1172 17.1731L27.6677 18.0518L28.5736 17.6617C29.7047 17.1746 30.6845 16.99 31.5491 16.8269C31.7294 16.7931 31.9024 16.7594 32.071 16.725C31.905 16.9457 31.7416 17.1872 31.5688 17.4424C31.074 18.1744 30.5138 19.0038 29.5991 19.8009L28.8559 20.4485L29.8404 20.4251C31.0733 20.3952 32.0541 20.5911 32.9119 20.7616C33.17 20.813 33.4141 20.8596 33.6509 20.8991C33.5181 20.9867 33.3829 21.0784 33.2431 21.1737C32.5132 21.6709 31.6855 22.2347 30.5394 22.6368L29.6091 22.963L30.5337 23.3061ZM36.1194 19.3453C35.9406 19.6278 35.7407 19.8433 35.5172 19.992C35.4204 20.0601 35.3255 20.1128 35.2142 20.1578L35.1555 20.1822C35.0609 20.2207 34.9434 20.24 34.82 20.2601C34.5527 20.311 34.2559 20.3001 33.952 20.2292L33.9232 20.2237C33.6538 20.184 33.361 20.1257 33.0499 20.0638C32.3998 19.9344 31.6183 19.7792 30.701 19.728C31.3314 19.0631 31.7794 18.4002 32.157 17.8416C32.3329 17.5807 32.4993 17.3346 32.662 17.1203L32.6791 17.0961C32.8382 16.8472 33.041 16.6396 33.293 16.4724C33.3889 16.4045 33.4836 16.3517 33.595 16.3074L33.6533 16.2825C33.7532 16.2422 33.8577 16.2134 33.9831 16.1929C34.2679 16.139 34.5639 16.146 34.8466 16.2122L34.8758 16.2178C35.1409 16.2569 35.4307 16.3167 35.7373 16.3796C36.4215 16.5205 37.1876 16.6781 38.0975 16.7118C37.4779 17.3888 37.0294 18.0424 36.6518 18.5928C36.4718 18.8549 36.3023 19.1024 36.1364 19.3198L36.1189 19.3451L36.1194 19.3453ZM34.0056 14.2856L33.9985 14.3153C33.9376 14.6441 33.8323 14.9189 33.6796 15.1411C33.6156 15.2396 33.5475 15.3238 33.4627 15.4051L33.4346 15.4319L33.5612 15.5641C33.5559 15.5658 33.5509 15.5679 33.5454 15.5694L33.4136 15.453C33.3426 15.522 33.2448 15.5813 33.1331 15.649C32.9018 15.7975 32.6266 15.897 32.3157 15.9444L32.2865 15.9502C32.0218 16.014 31.7282 16.0692 31.4177 16.1276C30.7619 16.2515 29.9824 16.3983 29.1127 16.6934C29.4506 15.8411 29.6194 15.0588 29.7618 14.3997C29.8282 14.0917 29.8912 13.8009 29.9629 13.5412L29.9696 13.512C30.0238 13.2224 30.1348 12.9538 30.3057 12.7053C30.3704 12.6059 30.4387 12.5221 30.5289 12.436L30.5701 12.3945C30.6485 12.3191 30.7357 12.2531 30.8436 12.1876C31.0895 12.03 31.3611 11.9274 31.6519 11.8832L31.6814 11.8776C31.9422 11.815 32.234 11.7619 32.5425 11.7059C33.2052 11.5856 33.9924 11.4424 34.8547 11.1327C34.5311 11.9931 34.358 12.7678 34.2123 13.4202C34.1437 13.7301 34.078 14.0228 34.0056 14.2859V14.2856ZM29.8291 10.9809L29.8337 11.0109C29.8984 11.3401 29.9015 11.6347 29.8418 11.8958C29.8186 12.0123 29.7858 12.1165 29.7412 12.2163L29.7107 12.2837C29.6688 12.3763 29.5967 12.4714 29.5216 12.571C29.361 12.7946 29.1422 12.9887 28.871 13.1475L28.8458 13.164C28.6232 13.3211 28.3705 13.4812 28.1032 13.6507C27.5394 14.0087 26.8695 14.4335 26.1704 15.0294C26.1698 14.1116 26.0384 13.3217 25.9279 12.6561C25.8761 12.3457 25.8276 12.0527 25.7984 11.7853L25.7936 11.7559C25.7373 11.4658 25.7419 11.175 25.8092 10.8814C25.8327 10.7642 25.8648 10.6606 25.9125 10.557L25.9406 10.4935C25.9847 10.3964 26.0408 10.3033 26.1175 10.2015C26.2879 9.96385 26.503 9.7681 26.7572 9.61892L26.7822 9.60259C27.0013 9.44791 27.2534 9.29066 27.5196 9.12429C28.0908 8.76716 28.7687 8.34351 29.4561 7.73683C29.4724 8.65545 29.5971 9.43846 29.7024 10.0984C29.7524 10.4122 29.7995 10.7091 29.8291 10.9809ZM25.2387 10.3315L25.1452 10.3354L25.1442 10.3839C25.1402 10.4848 25.109 10.6004 25.0767 10.7211C25.0117 10.989 24.8817 11.2513 24.69 11.5005L24.6725 11.5252C24.5251 11.755 24.3513 11.9989 24.1667 12.257C23.7784 12.8007 23.3177 13.4464 22.8931 14.2613C22.5484 13.4111 22.1311 12.7283 21.7785 12.1532C21.6143 11.8853 21.4589 11.6321 21.3319 11.3953L21.3168 11.3699C21.1557 11.1226 21.0505 10.8514 21.0027 10.5551C20.98 10.4363 20.9716 10.3277 20.9762 10.223L20.8436 10.2177C20.8405 10.212 20.8373 10.2064 20.8345 10.2005L20.9779 10.1952L20.9791 10.144C20.9829 10.0381 20.9997 9.93085 21.0334 9.8066C21.102 9.5225 21.2276 9.26024 21.4072 9.02736L21.4246 9.00261C21.5697 8.77627 21.7442 8.53566 21.9286 8.28112C22.3241 7.73511 22.7929 7.08718 23.2021 6.26601C23.5627 7.1121 23.9725 7.79182 24.3177 8.36413C24.4817 8.63551 24.636 8.89176 24.7653 9.1322L24.7808 9.15798C24.964 9.43898 25.0772 9.71069 25.1201 9.97451C25.1423 10.0926 25.151 10.201 25.1469 10.3064L25.2464 10.3102C25.2437 10.317 25.2414 10.3243 25.2384 10.3313L25.2387 10.3315ZM20.2867 10.5527C20.2875 10.5599 20.2886 10.5669 20.2896 10.5741L20.2417 10.6003L20.2652 10.648C20.3064 10.7378 20.3309 10.8464 20.3591 10.9799C20.4238 11.2477 20.4277 11.5404 20.3707 11.8504L20.3668 11.88C20.3407 12.1522 20.2964 12.4488 20.2501 12.763C20.1527 13.4245 20.0367 14.2098 20.0307 15.1291C19.3358 14.5296 18.6524 14.1132 18.0766 13.7624C17.8089 13.5995 17.556 13.4453 17.3354 13.2932L17.3108 13.2776C17.0542 13.1305 16.8366 12.9369 16.659 12.6965C16.5863 12.6018 16.529 12.5087 16.4801 12.4043L16.4509 12.3413C16.4056 12.2447 16.3725 12.1419 16.3461 12.0161C16.2774 11.7329 16.2697 11.4419 16.3226 11.1513L16.3265 11.122C16.3529 10.8545 16.3982 10.5607 16.4461 10.2502C16.5494 9.58334 16.6715 8.79208 16.6616 7.87449C17.3678 8.46296 18.0433 8.88024 18.6116 9.23154C18.8803 9.39773 19.1342 9.55464 19.3583 9.70881L19.3837 9.72462C19.675 9.8915 19.9003 10.0811 20.0581 10.2961C20.1312 10.3904 20.1882 10.4825 20.2324 10.5778L20.2865 10.5525L20.2867 10.5527ZM15.72 12.4207C15.7226 12.4284 15.726 12.4351 15.7287 12.4428L15.6258 12.5819L15.6515 12.6044C15.7215 12.6714 15.7835 12.7603 15.8624 12.8785C16.022 13.1026 16.134 13.3726 16.1959 13.6813L16.2033 13.7107C16.2793 13.9731 16.3492 14.2649 16.4228 14.574C16.5779 15.2239 16.7621 15.996 17.0984 16.8513C16.2304 16.5537 15.4417 16.422 14.7768 16.3112C14.4675 16.2594 14.1758 16.2108 13.9147 16.152L13.8851 16.1467C13.594 16.1066 13.3205 16.008 13.0645 15.8494C12.9629 15.7896 12.8751 15.7248 12.8102 15.665L12.7409 15.5988C12.6621 15.5245 12.5928 15.4415 12.5223 15.3357C12.3538 15.0985 12.2384 14.8314 12.1797 14.542L12.1726 14.5133C12.0975 14.2551 12.0306 13.9659 11.9599 13.6593C11.8077 13.0021 11.6274 12.2216 11.2772 11.3737C12.1515 11.6566 12.9332 11.7922 13.5914 11.9064C13.9023 11.9604 14.1967 12.0115 14.4616 12.0709L14.4908 12.0762C14.8235 12.1221 15.1023 12.2144 15.3293 12.3557C15.4326 12.416 15.5199 12.4803 15.5964 12.5523L15.7202 12.4203L15.72 12.4207ZM11.3709 16.4468C11.6943 16.3658 11.9741 16.3445 12.2519 16.3931C12.3705 16.4108 12.4756 16.4383 12.5839 16.4813L12.6452 16.505C12.7399 16.5427 12.838 16.6095 12.9413 16.6802C13.1726 16.8285 13.3769 17.0375 13.5485 17.3009L13.5669 17.3262C13.7357 17.5421 13.9097 17.7882 14.0931 18.0487C14.4779 18.5935 14.9347 19.2406 15.5626 19.9086C14.6461 19.9556 13.8586 20.1283 13.2069 20.2716C12.901 20.3388 12.6119 20.4022 12.3475 20.445L12.3178 20.451C12.0357 20.5213 11.7518 20.5342 11.4462 20.4804C11.3288 20.4627 11.2233 20.4352 11.1382 20.4028L11.0524 20.3684C10.9531 20.3295 10.8575 20.2782 10.7518 20.2061C10.5068 20.0479 10.3007 19.8428 10.14 19.5967L10.1221 19.5723C9.95622 19.3602 9.78635 19.1158 9.60671 18.8573C9.22204 18.3039 8.76565 17.6474 8.12618 16.9912C9.04326 16.9282 9.82015 16.7627 10.472 16.6241C10.7806 16.5585 11.0725 16.4964 11.3412 16.453L11.3707 16.4471L11.3709 16.4468ZM9.55027 21.5364C9.8217 21.3398 10.0871 21.2133 10.3491 21.1588C10.4651 21.1311 10.5727 21.1174 10.6949 21.117L10.7575 21.1156C10.853 21.1156 10.9532 21.1364 11.0945 21.1679C11.3652 21.2203 11.6327 21.338 11.8894 21.5176L11.9151 21.5341C12.1514 21.6715 12.4032 21.8347 12.67 22.0078C13.2301 22.3706 13.8949 22.8016 14.7262 23.1882C13.8937 23.5726 13.2323 24.0231 12.6748 24.4024C12.4154 24.5789 12.1706 24.7456 11.9412 24.8841L11.9163 24.9005C11.6776 25.0728 11.412 25.1906 11.1178 25.2526C11.0028 25.2798 10.8946 25.2935 10.798 25.2952L10.7534 25.2933L10.7371 25.2939L10.7384 25.3928C10.7321 25.3958 10.7261 25.3987 10.7201 25.4016L10.7106 25.2952L10.7079 25.4075C10.7055 25.4085 10.7036 25.4095 10.7014 25.4105V25.2952C10.596 25.2952 10.4914 25.2832 10.3711 25.2564C10.0859 25.2014 9.81844 25.0878 9.57617 24.9187L9.55095 24.9029C9.31864 24.7678 9.07037 24.6045 8.80803 24.4316C8.24543 24.0612 7.57731 23.6216 6.74001 23.2504C7.56753 22.8503 8.22621 22.4082 8.78143 22.036C9.0436 21.8598 9.29136 21.6936 9.5247 21.5532L9.54992 21.5365L9.55027 21.5364ZM10.1973 26.8193C10.3769 26.5364 10.5766 26.3207 10.799 26.1728C10.8966 26.1045 10.9915 26.0518 11.1078 26.0049L11.1614 25.9823C11.2552 25.944 11.3728 25.9249 11.4958 25.9048C11.7643 25.8536 12.0621 25.8644 12.3639 25.9358L12.3933 25.9414C12.6635 25.9813 12.9573 26.0396 13.2683 26.1014C13.9184 26.2307 14.6996 26.3859 15.6162 26.4371C14.9851 27.1022 14.5368 27.7654 14.159 28.3242C13.9833 28.5845 13.8174 28.8305 13.6545 29.0443L13.6374 29.0687C13.4792 29.3176 13.2755 29.5252 13.0242 29.6924C12.9296 29.7591 12.8349 29.8117 12.74 29.8508L12.6639 29.882C12.5637 29.9225 12.4585 29.9514 12.3336 29.9718C12.0501 30.0258 11.7538 30.0189 11.47 29.9524L11.4409 29.9469C11.1758 29.9076 10.8855 29.8479 10.5787 29.7847C9.8941 29.6439 9.12887 29.4863 8.2202 29.4526C8.8408 28.7748 9.28947 28.1202 9.66728 27.5688C9.84692 27.3078 10.0154 27.0611 10.1806 26.8442L10.1978 26.8193H10.1973ZM12.3116 31.8787L12.3178 31.85C12.3802 31.5193 12.4859 31.2443 12.6376 31.0238C12.7016 30.9248 12.7701 30.8406 12.8547 30.759L12.9017 30.7128C12.9754 30.6418 13.0772 30.5799 13.1829 30.5158C13.4161 30.3668 13.6913 30.2674 14.0001 30.2205L14.03 30.2149C14.2957 30.1508 14.5902 30.0952 14.9024 30.0365C15.5578 29.9125 16.3361 29.7658 17.2046 29.471C16.8665 30.3245 16.6969 31.1077 16.5545 31.7675C16.4881 32.0746 16.4252 32.3644 16.3541 32.6234L16.3474 32.6524C16.2934 32.9415 16.1819 33.2103 16.0115 33.4585C15.9465 33.5581 15.8778 33.6425 15.7927 33.7245L15.7452 33.7713C15.6692 33.8453 15.5832 33.9108 15.4736 33.9772C15.2286 34.1342 14.9565 34.2368 14.665 34.2814L14.6361 34.287C14.3757 34.3496 14.0843 34.4025 13.7762 34.4584C13.1131 34.5789 12.3257 34.7218 11.4627 35.0315C11.7871 34.17 11.9599 33.3947 12.1057 32.7414C12.1744 32.4326 12.2397 32.1409 12.312 31.8782L12.3116 31.8787ZM16.488 35.1835L16.4837 35.1537C16.419 34.8243 16.4154 34.5297 16.4753 34.2683C16.4988 34.1526 16.5309 34.0493 16.5761 33.9493L16.6063 33.8813C16.6486 33.7879 16.7203 33.6927 16.7954 33.5937C16.956 33.3701 17.1748 33.1763 17.4464 33.0173L17.4714 33.001C17.6948 32.8432 17.9477 32.6825 18.2156 32.5125C18.7792 32.155 19.4483 31.7304 20.1472 31.1349C20.1475 32.053 20.2789 32.8432 20.3894 33.5086C20.4411 33.8187 20.49 34.1115 20.5191 34.3786L20.5234 34.4082C20.5801 34.6973 20.5754 34.9882 20.5083 35.283C20.4855 35.3978 20.4527 35.5018 20.4131 35.5896L20.3759 35.6716C20.3326 35.7678 20.2771 35.8606 20.1986 35.9634C20.0295 36.1999 19.815 36.3958 19.5599 36.5457L19.5353 36.5617C19.3162 36.7158 19.0657 36.8726 18.8001 37.0384C18.2281 37.3957 17.549 37.82 16.8611 38.4276C16.8447 37.5081 16.7201 36.7242 16.6144 36.0639C16.5645 35.7506 16.5173 35.4547 16.4878 35.1831L16.488 35.1835ZM21.1722 36.0177C21.1758 35.9204 21.2024 35.8158 21.2386 35.6807C21.3039 35.4109 21.4333 35.1488 21.6236 34.9014L21.6411 34.8767C21.7874 34.6483 21.96 34.406 22.1431 34.1494C22.5314 33.6049 22.9919 32.9582 23.4166 32.1413C23.7614 32.9948 24.1787 33.6788 24.5301 34.2552C24.6922 34.5208 24.8451 34.7717 24.9714 35.0066L24.9868 35.0324C25.1356 35.2603 25.2358 35.5313 25.2874 35.8491C25.2998 35.9142 25.2958 35.9945 25.2909 36.0877L25.2869 36.17C25.2816 36.2422 25.2535 36.5044 25.2289 36.595C25.1515 36.9147 25.0676 37.1697 24.9101 37.3747L24.893 37.3992C24.7478 37.625 24.5737 37.8651 24.3894 38.1193C23.9943 38.6656 23.5245 39.3142 23.1146 40.1359C22.7539 39.2892 22.3446 38.6093 21.9983 38.0366C21.8351 37.7657 21.6805 37.5098 21.5515 37.2699L21.5364 37.2446C21.3532 36.963 21.2393 36.6909 21.1967 36.4274C21.1746 36.3094 21.1662 36.2013 21.1703 36.0944L21.1722 36.0177ZM26.0698 35.7896L26.0516 35.752C26.011 35.6647 25.9875 35.5599 25.9581 35.4208C25.8938 35.1541 25.89 34.8612 25.9465 34.5505L25.9506 34.5216C25.9772 34.2513 26.0204 33.9565 26.0667 33.6443C26.1645 32.9817 26.2807 32.1947 26.2867 31.2732C26.9807 31.8718 27.6631 32.2874 28.2384 32.6378C28.5074 32.8014 28.7612 32.9561 28.983 33.1087L29.0082 33.1245C29.263 33.2703 29.4802 33.4636 29.6587 33.7063C29.7318 33.8006 29.7887 33.8929 29.8356 33.9945L29.8708 34.0679C29.914 34.1645 29.9468 34.2676 29.9713 34.3846C30.0399 34.6706 30.0476 34.9618 29.9948 35.25L29.9909 35.2797C29.9648 35.547 29.9195 35.8397 29.8716 36.1495C29.768 36.8169 29.6456 37.609 29.6561 38.528C28.9511 37.941 28.2778 37.5244 27.7106 37.1737C27.4404 37.0063 27.1851 36.8483 26.9598 36.6931L26.9337 36.6766C26.6436 36.5115 26.4183 36.3222 26.2594 36.1054C26.1863 36.011 26.1288 35.9187 26.0918 35.84C26.0851 35.8219 26.077 35.8036 26.0702 35.7898L26.0698 35.7896ZM30.4819 33.3727C30.4721 33.3626 30.4622 33.3526 30.4524 33.344L30.3462 33.4523C30.3424 33.4464 30.3381 33.4411 30.3345 33.4351L30.427 33.3208C30.357 33.2553 30.2963 33.1668 30.2182 33.0493C30.059 32.825 29.9464 32.5546 29.8831 32.2456L29.8764 32.2174C29.8004 31.9559 29.7309 31.6656 29.6578 31.3581C29.5029 30.7069 29.3184 29.9335 28.9827 29.0768C29.8486 29.3738 30.6375 29.5051 31.3014 29.6157C31.6114 29.6675 31.9043 29.7163 32.1666 29.7752L32.1958 29.7806C32.4356 29.8136 32.6637 29.8892 32.8807 30.0035C32.9149 30.028 32.948 30.0554 32.983 30.0781C33.059 30.1303 33.1429 30.186 33.2357 30.2374C33.2551 30.2542 33.2748 30.2687 33.2944 30.287L33.3387 30.3266C33.4178 30.4024 33.4881 30.4862 33.5584 30.5906C33.728 30.8307 33.8436 31.0981 33.9013 31.3853L33.9083 31.4145C33.9834 31.6723 34.05 31.9608 34.1207 32.2662C34.2725 32.9241 34.4534 33.7051 34.8039 34.5538C33.9316 34.2721 33.1518 34.1365 32.4952 34.0222C32.1821 33.9679 31.8861 33.9165 31.6195 33.8562L31.5893 33.8508C31.2581 33.8055 30.9791 33.7133 30.7511 33.5719C30.6485 33.5117 30.5615 33.4475 30.4821 33.3727H30.4819ZM34.9456 29.7182C34.6246 29.7993 34.3453 29.8206 34.0649 29.7716C33.9479 29.7541 33.8427 29.7268 33.7345 29.684L33.6708 29.6594C33.6578 29.6544 33.6444 29.6474 33.631 29.641C33.5526 29.579 33.4706 29.52 33.3821 29.4683C33.3431 29.4442 33.3028 29.4246 33.2632 29.4026C33.0785 29.2622 32.9111 29.0831 32.767 28.8631L32.75 28.8396C32.5823 28.6251 32.4106 28.3811 32.2286 28.1227C31.8432 27.576 31.3851 26.9269 30.7551 26.2566C31.6706 26.2099 32.4578 26.0367 33.1086 25.8935C33.4152 25.8261 33.7048 25.7625 33.9699 25.7196L33.9987 25.7137C34.281 25.6438 34.5656 25.6314 34.8713 25.6845C34.989 25.702 35.0939 25.7294 35.2064 25.7744L35.2637 25.7957C35.3636 25.8354 35.4614 25.8882 35.5643 25.9585C35.8107 26.1176 36.0164 26.3228 36.1777 26.5686L36.1949 26.5928C36.3596 26.8042 36.5288 27.0472 36.7081 27.3045C37.0931 27.8588 37.5503 28.5167 38.1915 29.174C37.277 29.2375 36.5012 29.4019 35.851 29.5401C35.5402 29.6061 35.2462 29.6685 34.976 29.712L34.9455 29.718L34.9456 29.7182ZM36.7662 24.6286C36.4965 24.8248 36.2316 24.9512 35.9669 25.0063C35.8538 25.0338 35.7462 25.0477 35.6266 25.0483L35.6018 25.0477L35.5897 25.0481L35.5901 25.1655C35.5836 25.1625 35.5774 25.1595 35.5707 25.1565L35.5619 25.0493L35.5609 25.1521C35.5599 25.1517 35.5592 25.1512 35.5582 25.1509V25.0493C35.4633 25.0493 35.3588 25.0276 35.222 24.997C34.9534 24.9453 34.6852 24.8276 34.4265 24.647L34.4021 24.6313C34.167 24.4947 33.917 24.3324 33.652 24.1606C33.0912 23.7969 32.4252 23.3647 31.5903 22.9773C32.4236 22.5925 33.0849 22.1419 33.6422 21.7624C33.9013 21.5859 34.1464 21.419 34.3758 21.2806L34.4005 21.2645C34.6392 21.0921 34.9048 20.9742 35.2001 20.9123C35.315 20.8847 35.4223 20.8711 35.5422 20.8709L35.5613 20.8719L35.6129 20.8692C35.7194 20.8692 35.8246 20.8814 35.9447 20.9084C36.2321 20.9641 36.4996 21.0777 36.741 21.2464L36.7661 21.2622C36.998 21.397 37.2453 21.5599 37.5073 21.7321C38.0702 22.1028 38.7389 22.5428 39.5772 22.9144C38.7519 23.3135 38.0939 23.7548 37.5402 24.1262C37.2762 24.3032 37.0265 24.4704 36.792 24.6112L36.7662 24.6286Z" fill="url(#paint8_linear_1_33699)"/>
</g>
<g id="Group_2">
<path id="Vector_10" d="M86.4906 14.4188C86.32 13.3705 85.2508 11.9455 84.3617 11.2806C83.242 10.4431 81.1712 9.76885 79.3829 10.0072C76.5863 10.38 73.7757 11.6803 73.3868 14.4326C73.0531 16.7949 75.5751 19.5906 77.2735 21.7673C78.963 23.9322 80.5106 26.0305 80.7642 28.5899C81.0049 31.0199 80.0807 33.0553 78.5087 34.4521C76.1686 36.5313 73.2693 37.6984 69.8149 38.0059C66.0016 38.3459 62.2743 37.7935 59.282 35.8378C55.1264 33.1433 54.2587 28.1137 58.4347 25.1569C59.8401 24.162 61.071 23.7659 62.7283 23.683C63.15 23.6619 63.1486 24.2313 62.7173 24.3351C61.0983 24.7256 59.5826 26.1063 58.9591 27.4819C58.3793 28.7611 58.6676 30.4452 60.0175 31.8279C61.718 33.569 64.7906 34.434 67.6901 34.3435C71.3745 34.2283 74.3145 33.5328 75.9275 30.1592C77.1465 27.5517 75.3343 24.7221 73.7828 22.5929C71.7443 19.7954 69.0998 17.2051 69.776 13.7338C70.9952 7.47446 80.4624 4.85386 85.0958 9.21545C87.2352 11.2294 87.397 13.4189 87.1958 14.4247C87.1064 14.871 86.4914 14.7229 86.4906 14.4188Z" fill="url(#paint9_linear_1_33699)"/>
<path id="Vector_11" d="M85.2715 28.9198C85.3055 29.5022 86.0197 28.6874 86.7791 28.1295C87.7307 27.4304 89.123 26.2797 90.1326 26.8988C90.9246 27.3967 88.9746 29.539 88.695 31.1928C88.29 33.5869 89.6201 35.2556 92.0031 35.1055C94.6203 34.9404 96.3826 32.7101 97.877 30.7824C97.9129 31.3882 97.7734 31.8256 97.8587 32.4272C98.2202 34.9682 100.172 35.4965 102.286 34.6896C104.25 33.9401 106.025 32.2025 107.77 30.4246C108.254 29.9319 108.923 29.3434 108.554 29.1585C108.297 29.0296 107.954 29.5452 106.355 30.5059C105.553 30.9887 102.206 33.1114 102.239 30.5351C102.253 29.4207 104.199 25.1454 102.684 24.7338C101.792 24.4913 100.479 25.803 99.8998 26.3151C98.7962 27.2903 97.8388 28.3746 96.7953 29.4121C96.4675 29.7382 94.9944 31.4407 93.9924 31.055C93.008 30.676 93.6271 28.9895 93.7719 28.5599C94.4222 26.6286 93.908 24.724 91.2341 24.6498C88.0507 24.5611 85.2715 28.9198 85.2715 28.9198Z" fill="url(#paint10_linear_1_33699)"/>
<path id="Vector_12" d="M118.049 22.8348C118.841 23.1 119.105 23.7446 119.186 24.4513C119.247 24.9913 119.194 25.6511 119.987 25.769C120.821 25.8929 122.51 24.4266 123.187 23.9189C124.853 22.6703 127.727 22.5414 128.643 24.4718C129.513 26.3037 128.261 29.2249 128.242 31.951C128.229 33.7879 128.506 34.9432 130.015 36.1906C132.036 37.8613 133.366 36.916 133.389 37.1644C133.537 37.6894 131.564 38.4628 129.957 38.31C128.533 38.1747 126.755 37.6225 125.839 36.3624C123.895 33.7845 125.076 30.1799 125.305 27.4301C125.574 24.3352 122.177 27.833 121.931 28.0602C120.73 29.2062 119.986 30.3518 118.9 31.5549C117.87 32.8153 116.274 33.4548 115.182 32.4716C114.105 31.5014 114.859 30.2324 115.868 28.6332C116.306 27.9411 116.832 27.0101 116.608 26.186C116.385 25.3662 115.962 24.7964 114.61 25.3679C113.572 25.807 112.414 27.7403 112.156 26.9671C112.156 26.9671 114.978 21.8063 118.049 22.8348Z" fill="url(#paint11_linear_1_33699)"/>
<path id="Vector_13" d="M151.225 19.2161C152.594 19.1017 154.582 19.0407 154.504 17.7888C154.443 16.8095 152.766 17.028 152.088 17.1295C149.989 17.4435 149.427 17.5451 147.661 17.8261C146.584 17.9973 145.772 18.0645 144.97 18.1308C146.205 15.8175 147.989 13.0405 149.325 11.1528C150.203 9.91361 150.875 9.05205 151.212 8.50827C151.49 8.06246 150.932 7.84195 150.612 8.24377C150.612 8.24377 145.162 13.8204 142.01 18.4842C139.473 18.9159 138.401 19.1257 135.813 19.6001C135.276 19.6986 135.235 20.2939 135.251 20.4587C135.276 20.7365 135.978 20.6369 136.431 20.6261L136.465 20.6215C138.246 20.4764 139.506 20.3522 140.936 20.2116C138.77 24.1617 136.179 33.0975 140.661 34.9533C143.749 36.1876 146.923 34.3655 149.668 31.9269C151.112 30.6443 152.433 28.4692 152.156 28.254C151.749 27.9374 150.984 28.9884 148.639 30.6343C146.949 31.8202 143.492 33.1905 142.376 30.6343C141.198 27.8895 142.825 22.7806 144.096 19.9082C146.504 19.6752 148.789 19.4198 151.225 19.2161Z" fill="url(#paint12_linear_1_33699)"/>
<path id="Vector_14" d="M157.905 28.2802C157.982 28.8768 160.627 26.4851 161.623 27.1916C162.595 27.9939 161.172 29.2849 160.65 30.2852C158.826 33.7893 161.807 35.5217 165.111 34.5818C167.748 33.8323 168.562 33.1012 169.892 31.9989C171.051 31.0395 171.412 30.4387 171.78 29.9224C171.994 29.6216 171.651 29.3209 171.394 29.5787C171.182 29.7904 164.791 34.2835 164.025 31.6031C163.682 30.4 164.836 28.8063 165.226 27.7646C165.732 26.4134 165.356 25.0052 163.644 24.8381C160.713 24.5516 157.845 27.8114 157.905 28.2802Z" fill="url(#paint13_linear_1_33699)"/>
<path id="Vector_15" d="M166.883 20.9559C166.026 22.1016 164.563 22.4989 163.624 21.8726C162.242 20.9511 162.881 19.2436 163.815 18.4304C164.472 17.8575 165.878 17.5784 166.633 18.0772C167.706 18.7861 167.448 20.3544 166.883 20.9559Z" fill="url(#paint14_linear_1_33699)"/>
<path id="Vector_16" d="M183.961 23.1854C185.377 24.1736 184.438 25.9062 184.928 26.2839C185.591 26.7945 187.866 24.9482 188.36 24.6512C190.009 23.658 192.277 23.6484 192.563 26.0261C192.65 26.7461 192.059 28.2293 193.383 27.7204C193.625 27.6277 194.95 26.5623 195.157 26.4077C195.752 25.9603 197.005 25.0322 197.71 24.651C199.231 23.8297 202.047 23.8409 201.743 26.8853C201.485 28.9475 198.838 32.882 198.931 35.0437C199.08 38.476 202.523 37.6973 202.449 38.2232C202.34 38.9916 199.68 39.6791 197.902 39.1685C195.421 38.4561 194.862 36.0366 195.585 33.9266C196.206 32.117 198.717 27.8254 198.054 27.1431C197.654 26.7313 197.087 27.0951 196.461 27.5275C194.828 28.6577 193.423 30.183 191.917 31.5196C191.504 31.8862 191.017 32.3042 190.514 32.5391C189.752 32.8952 188.981 32.892 188.399 32.4927C188.122 32.3031 187.885 31.8573 187.845 31.5253C187.759 30.4082 188.324 29.8169 188.788 28.8614C189.818 26.7418 188.246 26.8949 187.073 27.7443C184.647 29.5009 183.65 30.773 182.245 31.7781C181.044 32.6374 179.071 31.4773 180.444 29.5009C181.519 27.952 182.932 24.2592 179.695 25.4243C178.211 25.9582 176.283 27.5674 176.669 26.6223C176.669 26.6223 180.521 20.7834 183.961 23.185V23.1854Z" fill="url(#paint15_linear_1_33699)"/>
<path id="Vector_17" d="M229.224 26.6285C227.971 27.8694 226.821 28.7665 224.877 30.0082C221.903 31.7269 218.586 33.1018 215.04 32.5862C214.239 32.4717 211.371 31.5215 211.837 30.0656C212.154 29.076 214.868 29.55 216.799 29.2922C219.407 28.9439 223.333 27.0867 221.732 23.8785C220.416 21.3005 215.574 22.3841 213.038 23.7066C210.537 25.0114 207.719 28.2322 208.292 31.0968C208.978 34.4193 213.439 35.7942 216.298 35.336H216.356C218.014 35.2786 220.464 34.5721 222.16 33.7178C225.183 32.0086 227.242 30.3614 229.338 27.6595C229.767 27.1073 230.068 26.705 229.987 26.4946C229.88 26.2153 229.569 26.287 229.224 26.6285ZM213.624 27.6166C213.238 26.4996 216.705 24.6256 217.499 26.1129C218.262 27.5401 213.973 28.6283 213.624 27.6166Z" fill="url(#paint16_linear_1_33699)"/>
</g>
</g>
<defs>
<linearGradient id="paint0_linear_1_33699" x1="0" y1="23.2265" x2="1.71576" y2="23.2265" gradientUnits="userSpaceOnUse">
<stop stop-color="#000000"/>
<stop offset="1" stop-color="#A56F74"/>
</linearGradient>
<linearGradient id="paint1_linear_1_33699" x1="6.50968" y1="7.42577" x2="8.22527" y2="7.42577" gradientUnits="userSpaceOnUse">
<stop stop-color="#000000"/>
<stop offset="1" stop-color="#A56F74"/>
</linearGradient>
<linearGradient id="paint2_linear_1_33699" x1="22.2637" y1="0.85933" x2="23.9794" y2="0.85933" gradientUnits="userSpaceOnUse">
<stop stop-color="#000000"/>
<stop offset="1" stop-color="#A56F74"/>
</linearGradient>
<linearGradient id="paint3_linear_1_33699" x1="6.54503" y1="39.0114" x2="8.26045" y2="39.0114" gradientUnits="userSpaceOnUse">
<stop stop-color="#000000"/>
<stop offset="1" stop-color="#A56F74"/>
</linearGradient>
<linearGradient id="paint4_linear_1_33699" x1="38.0388" y1="7.37169" x2="39.7544" y2="7.37169" gradientUnits="userSpaceOnUse">
<stop stop-color="#000000"/>
<stop offset="1" stop-color="#A56F74"/>
</linearGradient>
<linearGradient id="paint5_linear_1_33699" x1="44.6016" y1="23.1763" x2="46.3173" y2="23.1763" gradientUnits="userSpaceOnUse">
<stop stop-color="#000000"/>
<stop offset="1" stop-color="#A56F74"/>
</linearGradient>
<linearGradient id="paint6_linear_1_33699" x1="22.3145" y1="45.5449" x2="24.0302" y2="45.5449" gradientUnits="userSpaceOnUse">
<stop stop-color="#000000"/>
<stop offset="1" stop-color="#A56F74"/>
</linearGradient>
<linearGradient id="paint7_linear_1_33699" x1="38.0743" y1="38.9943" x2="39.7907" y2="38.9943" gradientUnits="userSpaceOnUse">
<stop stop-color="#000000"/>
<stop offset="1" stop-color="#A56F74"/>
</linearGradient>
<linearGradient id="paint8_linear_1_33699" x1="3.71375" y1="23.2011" x2="42.6033" y2="23.2011" gradientUnits="userSpaceOnUse">
<stop stop-color="#000000"/>
<stop offset="1" stop-color="#A56F74"/>
</linearGradient>
<linearGradient id="paint9_linear_1_33699" x1="55.7012" y1="22.5781" x2="87.2601" y2="22.5781" gradientUnits="userSpaceOnUse">
<stop stop-color="#000000"/>
<stop offset="1" stop-color="#A56F74"/>
</linearGradient>
<linearGradient id="paint10_linear_1_33699" x1="85.2715" y1="29.8817" x2="108.661" y2="29.8817" gradientUnits="userSpaceOnUse">
<stop stop-color="#000000"/>
<stop offset="1" stop-color="#A56F74"/>
</linearGradient>
<linearGradient id="paint11_linear_1_33699" x1="112.156" y1="30.5146" x2="133.397" y2="30.5146" gradientUnits="userSpaceOnUse">
<stop stop-color="#000000"/>
<stop offset="1" stop-color="#A56F74"/>
</linearGradient>
<linearGradient id="paint12_linear_1_33699" x1="135.248" y1="21.6919" x2="154.506" y2="21.6919" gradientUnits="userSpaceOnUse">
<stop stop-color="#000000"/>
<stop offset="1" stop-color="#A56F74"/>
</linearGradient>
<linearGradient id="paint13_linear_1_33699" x1="157.904" y1="29.8275" x2="171.847" y2="29.8275" gradientUnits="userSpaceOnUse">
<stop stop-color="#000000"/>
<stop offset="1" stop-color="#A56F74"/>
</linearGradient>
<linearGradient id="paint14_linear_1_33699" x1="162.824" y1="19.9933" x2="167.372" y2="19.9933" gradientUnits="userSpaceOnUse">
<stop stop-color="#000000"/>
<stop offset="1" stop-color="#A56F74"/>
</linearGradient>
<linearGradient id="paint15_linear_1_33699" x1="176.619" y1="30.9753" x2="202.45" y2="30.9753" gradientUnits="userSpaceOnUse">
<stop stop-color="#000000"/>
<stop offset="1" stop-color="#A56F74"/>
</linearGradient>
<linearGradient id="paint16_linear_1_33699" x1="208.217" y1="28.866" x2="230" y2="28.866" gradientUnits="userSpaceOnUse">
<stop stop-color="#000000"/>
<stop offset="1" stop-color="#A56F74"/>
</linearGradient>
</defs>
</svg>
