<svg width="35" height="21" viewBox="0 0 35 21" fill="none" xmlns="http://www.w3.org/2000/svg">
<g id="Frame" clip-path="url(#clip0_1_974)">
<path id="path4" d="M0.857422 0.857422H1.23847V10.975H0.857422V0.857422ZM1.61952 0.857422H2.00057V10.975H1.61952V0.857422ZM3.90751 0.857422H4.28856V10.975H3.90751V0.857422ZM11.3246 0.857422H11.7056V10.975H11.3246V0.857422ZM13.8042 0.857422H14.1853V10.975H13.8042V0.857422ZM16.2087 0.857422H16.5898V10.975H16.2087V0.857422ZM16.8284 0.857422H17.2094V10.975H16.8289L16.8284 0.857422ZM17.4489 0.857422H17.83V10.975H17.4489V0.857422ZM18.1463 0.857422H18.5274V10.975H18.1464L18.1463 0.857422ZM18.8436 0.857422H19.2246V10.975H18.8436V0.857422ZM20.7821 0.857422H21.1631V10.975H20.7816L20.7821 0.857422ZM25.5884 0.857422H25.9695V10.975H25.5884V0.857422ZM30.602 0.857422H30.9829V10.975H30.6018L30.602 0.857422ZM31.9733 0.857422H32.3543V10.975H31.9733V0.857422ZM32.9647 0.857422H33.3457V10.975H32.9647V0.857422ZM33.5747 0.857422H33.9557V10.975H33.5747V0.857422ZM6.42392 0.857422H6.80497V10.975H6.42392V0.857422ZM2.61095 0.857422H3.29713V10.975H2.61095V0.857422ZM7.13906 0.857422H7.8251V10.975H7.13906V0.857422ZM10.3186 0.857422H11.0046V10.975H10.3186V0.857422ZM11.9463 0.857422H12.6324V10.975H11.9463V0.857422ZM14.5045 0.857422H15.1905V10.975H14.5045V0.857422ZM21.7978 0.857422H22.8649V10.975H21.7978V0.857422ZM23.1917 0.857422H24.0298V10.975H23.1907L23.1917 0.857422ZM24.6625 0.857422H25.3485V10.975H24.6625V0.857422ZM26.6074 0.857422H27.7513V10.975H26.6074V0.857422ZM28.8475 0.857422H29.9916V10.975H28.8475V0.857422ZM4.67 0.857422H6.04209V10.975H4.67V0.857422ZM8.22637 0.857422H9.29346V10.975H8.22637V0.857422Z" fill="#737678"/>
<path id="path6" d="M1.35156 19.9579V14.1669H3.52463C3.88776 14.1529 4.24997 14.2126 4.58937 14.3425C4.84952 14.4537 5.06883 14.6428 5.21711 14.8838C5.36407 15.1117 5.44295 15.3769 5.44448 15.6482C5.4445 15.8955 5.37468 16.1379 5.24307 16.3473C5.09479 16.578 4.8837 16.7615 4.63464 16.8763C4.95426 16.9585 5.23828 17.1428 5.44344 17.4013C5.63329 17.6537 5.73272 17.9626 5.72574 18.2784C5.72799 18.5405 5.66926 18.7995 5.55419 19.035C5.45692 19.2461 5.31079 19.4311 5.12788 19.5745C4.93749 19.7111 4.72192 19.8087 4.49362 19.8615C4.18751 19.9317 3.87398 19.9643 3.55998 19.9586L1.35156 19.9579ZM2.11862 16.6005H3.37096C3.61553 16.61 3.86031 16.5874 4.09901 16.5333C4.27372 16.489 4.42863 16.3876 4.53915 16.2453C4.64205 16.0973 4.69402 15.9198 4.68721 15.7396C4.69074 15.5608 4.64274 15.3847 4.54893 15.2324C4.45943 15.0879 4.32029 14.9809 4.15758 14.9315C3.86885 14.8651 3.5725 14.8378 3.27651 14.8505H2.11888L2.11862 16.6005ZM2.11862 19.2748H3.56024C3.73462 19.2793 3.9091 19.2702 4.08205 19.2474C4.23848 19.2219 4.38865 19.167 4.52454 19.0855C4.64872 19.0053 4.74948 18.8937 4.81662 18.7619C4.89501 18.6123 4.93453 18.4454 4.93155 18.2765C4.93693 18.075 4.87894 17.8769 4.76574 17.7101C4.65399 17.5501 4.49195 17.4319 4.30538 17.3745C4.0295 17.2998 3.74397 17.2671 3.45836 17.2774H2.11862V19.2748ZM6.84566 17.1381C6.79707 16.3129 7.07508 15.5016 7.61964 14.8797C7.87629 14.6102 8.18717 14.3981 8.53177 14.2576C8.87637 14.117 9.24686 14.0511 9.61881 14.0641C10.1267 14.0572 10.6268 14.1899 11.0645 14.4477C11.4899 14.6992 11.8314 15.071 12.0459 15.5163C12.277 16.0013 12.3925 16.5333 12.3832 17.0705C12.3929 17.6166 12.2714 18.1571 12.0289 18.6465C11.8087 19.0919 11.4571 19.459 11.0217 19.6982C10.5912 19.9355 10.1071 20.0586 9.61554 20.0558C9.1012 20.0642 8.59486 19.9277 8.15449 19.6618C7.73077 19.4049 7.39138 19.0298 7.17805 18.5826C6.95809 18.1329 6.84437 17.6387 6.84566 17.1381ZM7.63607 17.1502C7.60318 17.7528 7.80631 18.3445 8.20236 18.7998C8.38103 18.9954 8.59959 19.1505 8.84329 19.2544C9.08699 19.3584 9.35015 19.4089 9.61502 19.4025C9.88147 19.4092 10.1462 19.3583 10.3911 19.2531C10.6361 19.148 10.8553 18.9911 11.0339 18.7933C11.4336 18.3101 11.6336 17.6926 11.5931 17.0669C11.6036 16.6432 11.5234 16.2223 11.3576 15.8323C11.2115 15.4959 10.9681 15.2111 10.6586 15.0143C10.3494 14.82 9.99063 14.7192 9.62546 14.7239C9.36668 14.72 9.1097 14.7674 8.86933 14.8633C8.62897 14.9593 8.41 15.1019 8.22506 15.2829C8.00625 15.5383 7.84129 15.8353 7.74008 16.156C7.63887 16.4767 7.60349 16.8146 7.63607 17.1493V17.1502ZM13.6398 19.9583V14.1669H14.406V19.2742H17.2578V19.9579L13.6398 19.9583ZM18.4859 19.9583V14.1669H22.6734V14.8505H19.252V16.6246H22.4558V17.3042H19.252V19.2749H22.8077V19.9586L18.4859 19.9583ZM25.6393 19.9583V14.8505H23.7304V14.1669H28.3207V14.8505H26.4049V19.9579L25.6393 19.9583ZM29.0274 17.1381C28.9794 16.3127 29.2581 15.5016 29.8033 14.8801C30.0599 14.6106 30.3708 14.3985 30.7154 14.2579C31.06 14.1173 31.4304 14.0514 31.8024 14.0645C32.3103 14.0576 32.8103 14.1903 33.248 14.448C33.6735 14.6995 34.015 15.0714 34.2294 15.5167C34.4607 16.0017 34.5762 16.5337 34.5668 17.0709C34.5763 17.6171 34.4545 18.1576 34.2117 18.6469C33.9907 19.093 33.638 19.4605 33.2012 19.6994C32.7707 19.9367 32.2866 20.0598 31.7951 20.0569C31.2804 20.0654 30.7737 19.9286 30.3332 19.6622C29.9103 19.405 29.5718 19.0299 29.3591 18.583C29.1393 18.1331 29.0258 17.6388 29.0274 17.1381ZM29.8178 17.1502C29.7849 17.7528 29.988 18.3445 30.3841 18.7998C30.5628 18.9954 30.7813 19.1505 31.025 19.2544C31.2687 19.3584 31.5319 19.4089 31.7968 19.4025C32.064 19.41 32.3296 19.3596 32.5755 19.2545C32.8213 19.1495 33.0414 18.9924 33.2206 18.794C33.6202 18.3109 33.8202 17.6933 33.7796 17.0676C33.7879 16.6435 33.7051 16.2225 33.5368 15.833C33.3907 15.4968 33.1473 15.2119 32.8379 15.0151C32.5288 14.821 32.1703 14.7201 31.8054 14.7247C31.5466 14.7208 31.2896 14.7682 31.0492 14.8641C30.8088 14.9601 30.5898 15.1027 30.4048 15.2837C30.1865 15.5391 30.0219 15.836 29.9211 16.1566C29.8202 16.4771 29.7851 16.8147 29.8178 17.1492V17.1502Z" fill="#737678"/>
</g>
<defs>
<clipPath id="clip0_1_974">
<rect width="33.7092" height="19.2" fill="white" transform="translate(0.857422 0.857422)"/>
</clipPath>
</defs>
</svg>
