<svg width="41" height="40" viewBox="0 0 41 40" fill="none" xmlns="http://www.w3.org/2000/svg">
<g id="07">
<path id="Vector" d="M20.3037 11.457C15.5936 11.457 11.7617 15.289 11.7617 19.9991C11.7617 24.7092 15.5936 28.5411 20.3037 28.5411C25.0138 28.5411 28.8458 24.7092 28.8458 19.9991C28.8458 15.289 25.0138 11.457 20.3037 11.457ZM20.3037 27.6303C16.0966 27.6303 12.6738 24.2075 12.6738 20.0004C12.6738 15.7932 16.0966 12.3704 20.3037 12.3704C24.5109 12.3704 27.9337 15.7932 27.9337 20.0004C27.9337 24.2075 24.5109 27.6303 20.3037 27.6303Z" fill="#34354C"/>
<path id="Vector_2" d="M20.3056 7.42671C20.5571 7.42671 20.7617 7.22215 20.7617 6.97068V0.456026C20.7617 0.20456 20.5571 0 20.3056 0C20.0542 0 19.8496 0.20456 19.8496 0.456026V6.97068C19.8496 7.22215 20.0542 7.42671 20.3056 7.42671Z" fill="#34354C"/>
<path id="Vector_3" d="M13.3948 8.94494C13.4795 9.09087 13.6332 9.17295 13.7896 9.17295C13.8665 9.17295 13.9459 9.1534 14.0176 9.1117C14.2352 8.98532 14.3108 8.70651 14.1844 8.48892L10.927 2.84722C10.8007 2.62963 10.5218 2.55405 10.3042 2.68044C10.0867 2.80682 10.0111 3.08565 10.1375 3.30324L13.3948 8.94494Z" fill="#34354C"/>
<path id="Vector_4" d="M9.24962 13.0901L3.60793 9.83278C3.39034 9.7064 3.11151 9.78197 2.98512 9.99956C2.85874 10.2171 2.93431 10.496 3.1519 10.6223L8.79359 13.8797C8.86526 13.9214 8.94343 13.9409 9.02161 13.9409C9.17926 13.9409 9.33301 13.8588 9.4164 13.7129C9.54278 13.4953 9.46721 13.2165 9.24962 13.0901Z" fill="#34354C"/>
<path id="Vector_5" d="M7.7314 20.0009C7.7314 19.7495 7.52684 19.5449 7.27537 19.5449H0.760714C0.509248 19.5449 0.304688 19.7495 0.304688 20.0009C0.304688 20.2524 0.509248 20.457 0.760714 20.457H7.27537C7.52684 20.457 7.7314 20.2524 7.7314 20.0009Z" fill="#34354C"/>
<path id="Vector_6" d="M8.79359 26.1199L3.1519 29.3772C2.93431 29.5036 2.85874 29.7824 2.98512 30C3.06981 30.146 3.22356 30.228 3.37992 30.228C3.45679 30.228 3.53627 30.2085 3.60793 30.1668L9.24962 26.9095C9.46721 26.7831 9.54278 26.5043 9.4164 26.2867C9.29002 26.0691 9.01118 25.9935 8.79359 26.1199Z" fill="#34354C"/>
<path id="Vector_7" d="M14.0176 30.8894C13.8 30.763 13.5212 30.8386 13.3948 31.0562L10.1375 36.6979C10.0111 36.9155 10.0867 37.1943 10.3042 37.3207C10.3759 37.3624 10.4541 37.3819 10.5323 37.3819C10.6899 37.3819 10.8437 37.2999 10.927 37.1539L14.1844 31.5122C14.3108 31.2946 14.2352 31.0158 14.0176 30.8894Z" fill="#34354C"/>
<path id="Vector_8" d="M20.3056 32.5742C20.0542 32.5742 19.8496 32.7788 19.8496 33.0302V39.5449C19.8496 39.7964 20.0542 40.0009 20.3056 40.0009C20.5571 40.0009 20.7617 39.7964 20.7617 39.5449V33.0302C20.7617 32.7788 20.5571 32.5742 20.3056 32.5742Z" fill="#34354C"/>
<path id="Vector_9" d="M27.2142 31.0562C27.0878 30.8386 26.8089 30.763 26.5913 30.8894C26.3738 31.0158 26.2982 31.2946 26.4246 31.5122L29.6819 37.1539C29.7666 37.2998 29.9203 37.3819 30.0767 37.3819C30.1536 37.3819 30.233 37.3624 30.3047 37.3207C30.5223 37.1943 30.5979 36.9155 30.4715 36.6979L27.2142 31.0562Z" fill="#34354C"/>
<path id="Vector_10" d="M37.4586 29.3772L31.8169 26.1199C31.5993 25.9935 31.3205 26.0691 31.1941 26.2867C31.0677 26.5043 31.1433 26.7831 31.3609 26.9095L37.0026 30.1668C37.0742 30.2085 37.1524 30.228 37.2306 30.228C37.3882 30.228 37.542 30.146 37.6254 30C37.7518 29.7824 37.6762 29.5036 37.4586 29.3772Z" fill="#34354C"/>
<path id="Vector_11" d="M39.8496 19.5449H33.3349C33.0835 19.5449 32.8789 19.7495 32.8789 20.0009C32.8789 20.2524 33.0835 20.457 33.3349 20.457H39.8496C40.1011 20.457 40.3056 20.2524 40.3056 20.0009C40.3056 19.7495 40.1011 19.5449 39.8496 19.5449Z" fill="#34354C"/>
<path id="Vector_12" d="M31.5889 13.9409C31.6658 13.9409 31.7453 13.9214 31.8169 13.8797L37.4586 10.6223C37.6762 10.496 37.7518 10.2171 37.6254 9.99956C37.499 9.78197 37.2202 9.7064 37.0026 9.83278L31.3609 13.0901C31.1433 13.2165 31.0677 13.4953 31.1941 13.7129C31.2788 13.8588 31.4325 13.9409 31.5889 13.9409Z" fill="#34354C"/>
<path id="Vector_13" d="M30.3047 2.68044C30.0871 2.55405 29.8083 2.62963 29.6819 2.84722L26.4246 8.48892C26.2982 8.70651 26.3738 8.98532 26.5913 9.1117C26.663 9.1534 26.7412 9.17295 26.8194 9.17295C26.977 9.17295 27.1308 9.09087 27.2142 8.94494L30.4715 3.30324C30.5979 3.08565 30.5223 2.80682 30.3047 2.68044Z" fill="#34354C"/>
</g>
</svg>
