<svg width="34" height="32" viewBox="0 0 34 32" fill="none" xmlns="http://www.w3.org/2000/svg">
<g id="Group">
<path id="Vector" d="M13.3458 23.9638H7.04195L9.44968 19.7935L10.5941 20.4543C10.7182 20.5262 10.8735 20.5179 10.9902 20.4345C11.107 20.3501 11.1632 20.2063 11.1341 20.0655L9.76967 13.4365C9.74882 13.3343 9.68524 13.2457 9.59456 13.1936C9.50388 13.1415 9.39652 13.13 9.2975 13.1634L2.87375 15.2959C2.73721 15.3408 2.64027 15.4627 2.62568 15.6055C2.61109 15.7483 2.68196 15.8869 2.806 15.9588L3.95046 16.6197L0.902744 21.899C0.037627 23.3978 0.037627 25.2615 0.902744 26.7603L1.5521 27.8839C2.41722 29.3828 4.03071 30.3146 5.76199 30.3146H13.3469C13.548 30.3146 13.7117 30.1509 13.7117 29.9498V24.3286C13.7117 24.2317 13.6731 24.1389 13.6054 24.0701C13.5366 24.0013 13.4438 23.9638 13.3479 23.9638H13.3458ZM2.1827 27.5191L1.53334 26.3955C0.79747 25.1207 0.79747 23.5375 1.53334 22.2638L4.76346 16.6687C4.8114 16.5853 4.82495 16.4852 4.79994 16.3914C4.77492 16.2976 4.71343 16.2184 4.63004 16.1694L3.87333 15.7327L9.13595 13.9858L10.2543 19.4172L9.49763 18.9805C9.43196 18.943 9.36005 18.9273 9.29021 18.9326C9.19744 18.9388 9.10885 18.9805 9.04527 19.0524C9.04527 19.0524 9.04422 19.0535 9.04318 19.0545C9.02755 19.0722 9.01296 19.0931 9.00045 19.115L4.79681 26.3965C4.32465 27.2147 4.32465 28.1914 4.79681 29.0096C4.91251 29.2097 5.05114 29.39 5.20748 29.5485C3.95254 29.3775 2.8258 28.6333 2.18374 27.5201L2.1827 27.5191ZM12.981 29.585H7.05863C6.378 29.585 5.76825 29.2327 5.42741 28.6427C5.08658 28.0528 5.08658 27.3492 5.42741 26.7593L6.61981 24.6934H12.98V29.585H12.981Z" fill="#34354C"/>
<path id="Vector_2" d="M19.4057 10.8838L18.2613 11.5446C18.1372 11.6165 18.0664 11.7541 18.0809 11.898C18.0955 12.0408 18.1925 12.1617 18.329 12.2075L24.7528 14.3401C24.7903 14.3526 24.8289 14.3589 24.8674 14.3589C24.931 14.3589 24.9935 14.3422 25.0498 14.3099C25.1405 14.2578 25.2041 14.1692 25.2249 14.067L26.5893 7.43792C26.6185 7.29721 26.5622 7.15233 26.4455 7.06895C26.3287 6.98452 26.1745 6.97722 26.0494 7.04914L24.905 7.70997L21.8572 2.43067C20.9921 0.931825 19.3786 0 17.6474 0H16.3497C14.6184 0 13.0049 0.931825 12.1398 2.43067L8.34786 8.9993C8.24676 9.17337 8.30721 9.39642 8.48128 9.49753L13.3489 12.3076C13.4051 12.3399 13.4677 12.3566 13.5313 12.3566C13.5625 12.3566 13.5948 12.3524 13.6261 12.3441C13.7199 12.3191 13.7991 12.2576 13.8471 12.1742L16.999 6.71456L19.4068 10.8848L19.4057 10.8838ZM16.3497 0.728575H17.6474C19.1191 0.728575 20.4897 1.51969 21.2256 2.79443L24.4557 8.38955C24.5568 8.56362 24.7799 8.62407 24.9539 8.52297L25.7107 8.08624L24.5923 13.5177L19.3296 11.7708L20.0864 11.3341C20.2604 11.233 20.3209 11.0099 20.2198 10.8359L16.0161 3.55428C15.544 2.73606 14.6976 2.24722 13.7533 2.24722C13.5219 2.24722 13.2967 2.2764 13.081 2.33269C13.8565 1.33207 15.0645 0.727532 16.3497 0.727532V0.728575ZM13.3968 11.4925L9.16086 9.04725L12.1221 3.91909C12.4629 3.32914 13.0727 2.97684 13.7533 2.97684C14.4339 2.97684 15.0437 3.32914 15.3845 3.91909L16.5769 5.98494L13.3968 11.4936V11.4925Z" fill="#34354C"/>
<path id="Vector_3" d="M33.0972 21.8956L29.3042 15.327C29.2031 15.1529 28.9801 15.0925 28.806 15.1936L23.9384 18.0036C23.855 18.0516 23.7935 18.1318 23.7685 18.2256C23.7435 18.3195 23.757 18.4185 23.805 18.5029L26.9569 23.9625H22.1415V22.6409C22.1415 22.497 22.057 22.3667 21.9257 22.3084C21.7944 22.249 21.6411 22.2729 21.5338 22.3688L16.4755 26.8654C16.3973 26.9341 16.3535 27.0342 16.3535 27.1384C16.3535 27.2427 16.3983 27.3417 16.4755 27.4115L21.5338 31.908C21.6015 31.9685 21.6881 31.9998 21.7766 31.9998C21.8267 31.9998 21.8778 31.9893 21.9257 31.9675C22.057 31.9091 22.1415 31.7788 22.1415 31.635V30.3133H28.2379C29.9692 30.3133 31.5827 29.3815 32.4478 27.8826L33.0972 26.759C33.9623 25.2602 33.9623 23.3965 33.0972 21.8977V21.8956ZM24.619 18.4529L28.855 16.0076L31.8162 21.1368C32.156 21.7268 32.156 22.4303 31.8162 23.0192C31.4753 23.6092 30.8656 23.9615 30.185 23.9615H27.7991L24.619 18.4529ZM32.4645 26.3921L31.8151 27.5158C31.0793 28.7905 29.7086 29.5816 28.2369 29.5816H21.7756C21.5744 29.5816 21.4108 29.7453 21.4108 29.9464V30.8199L17.2666 27.1353L21.4108 23.4507V24.3242C21.4108 24.5254 21.5744 24.689 21.7756 24.689H27.5865H30.1808C31.1251 24.689 31.9715 24.2002 32.4437 23.382C32.5593 23.1818 32.6459 22.9713 32.7053 22.7566C33.1847 23.9292 33.1034 25.2769 32.4614 26.389L32.4645 26.3921Z" fill="#34354C"/>
</g>
</svg>
