<svg width="30" height="25" viewBox="0 0 30 25" fill="none" xmlns="http://www.w3.org/2000/svg"><path fill-rule="evenodd" clip-rule="evenodd" d="M.307.072C.147.19 0 .46 0 .638c0 .072.144.384.32.692 1.084 1.903 1.633 3.672 1.819 5.865.17 2.008.215 2.381.359 3.035.332 1.5.964 2.672 1.986 3.681 1.694 1.673 4.414 2.703 8.182 3.097.42.044.771.089.78.1.085.098 1.332 2.52 1.54 2.991a13.7 13.7 0 0 1 1.068 3.649c.06.41.135.773.168.805.14.14.273.02.342-.304l.282-1.338c.459-2.176 1.118-3.92 1.899-5.026.29-.41.298-.417.606-.454.172-.02.472-.038.666-.038s.67-.04 1.055-.09c3.032-.384 4.95-1.357 6.052-3.07.522-.813.77-1.627 1.01-3.309.308-2.163.649-3.188 1.574-4.726.322-.535.36-.729.2-1-.182-.308-.406-.367-1.12-.292-4.032.421-7.843 1.829-9.34 3.45-1.338 1.448-1.984 3.62-1.932 6.497l.008.42.66-.676c1.442-1.48 3.326-2.741 4.827-3.233.877-.288.9-.266.134.122-.823.418-1.479.855-2.224 1.485-.913.771-2.206 2.212-2.857 3.183-.344.513-1.196 2.272-1.39 2.87l-.16.49-.288-.865c-.4-1.196-1.16-2.85-1.653-3.6-1.892-2.872-4.04-4.986-6.31-6.205-.305-.165-.543-.3-.527-.3a5 5 0 0 1 .381.112c2.286.728 5.039 2.757 7.022 5.177.258.315.478.563.49.552.01-.012.045-.56.075-1.217.16-3.526-.558-6.143-2.216-8.07-.42-.488-.927-.906-1.743-1.438C9.277 2.053 5.925.835 2.198.191.977-.019.476-.05.308.072" fill="#fff"/></svg>